<?xml version="1.0" standalone="no"?>
<!DOCTYPE svg PUBLIC "-//W3C//DTD SVG 1.1//EN" "http://www.w3.org/Graphics/SVG/1.1/DTD/svg11.dtd" >
<svg xmlns="http://www.w3.org/2000/svg">
<metadata>
This is a custom SVG webfont generated by Font Squirrel.
Copyright   :  1989 1990 2002 Adobe Systems Incorporated All rights reserved  1981 2002 Heidelberger Druckmaschinen AG All rights reserved
Designer    : Jackson Burke
Foundry URL : httpwwwadobecomtype
</metadata>
<defs>
<font id="webfont0xcuBwsA" horiz-adv-x="1138" >
<font-face units-per-em="2048" ascent="1479" descent="-569" />
<missing-glyph horiz-adv-x="569" />
<glyph unicode=" "  horiz-adv-x="569" />
<glyph unicode="&#x09;" horiz-adv-x="569" />
<glyph unicode="&#xa0;" horiz-adv-x="569" />
<glyph unicode="!" horiz-adv-x="454" d="M139 1479h176l-36 -1024h-103zM315 0h-176v184h176v-184z" />
<glyph unicode="&#x22;" horiz-adv-x="681" d="M176 1016v463h103v-463h-103zM403 1016v463h103v-463h-103z" />
<glyph unicode="#" d="M1028 580v-99h-231l-68 -481h-100l67 481h-303l-67 -481h-101l68 481h-242v99h254l47 321h-241v98h254l67 480h103l-68 -480h301l68 480h102l-68 -480h217v-98h-231l-45 -321h217zM756 901h-303l-45 -321h301z" />
<glyph unicode="$" d="M522 1479v143h99v-143q131 -6 238.5 -79t148.5 -163q-2 0 -42 -33t-46 -37q-102 186 -299 211v-577q92 -27 158.5 -55.5t137 -75.5t108.5 -119t38 -164q0 -180 -129 -282.5t-313 -104.5v-244h-99v244q-152 6 -275.5 85t-187.5 214l97 68q51 -117 148 -193t218 -76v609 q-410 115 -409 395q0 178 113.5 275.5t295.5 101.5zM522 829v551q-123 0 -211 -73.5t-88 -194.5q0 -66 24.5 -115t71 -80.5t93.5 -51.5t110 -36zM621 680v-582q131 2 231 86t100 207q0 51 -22.5 94t-49 69t-82 54.5t-83.5 38.5z" />
<glyph unicode="%" horiz-adv-x="1820" d="M504 1479q139 0 237.5 -98.5t98.5 -237.5t-98.5 -237.5t-237.5 -98.5t-237.5 98.5t-98.5 237.5t98.5 237.5t237.5 98.5zM504 1380q-98 0 -169 -69.5t-69 -167.5q-2 -98 69 -168t169 -70t168.5 69.5t68.5 168.5q2 98 -68.5 167.5t-168.5 69.5zM1317 672q137 0 236.5 -98.5 t99.5 -237.5t-99.5 -237.5t-236.5 -98.5t-236.5 98.5t-99.5 237.5t99.5 237.5t236.5 98.5zM1317 573q-98 0 -169 -69.5t-69 -167.5q-2 -98 69 -168t169 -70t168.5 70t68.5 168q2 98 -68.5 167.5t-168.5 69.5zM1401 1499l-871 -1519h-106l868 1519h109z" />
<glyph unicode="&#x26;" horiz-adv-x="1366" d="M223 352q0 -123 94.5 -192.5t221.5 -69.5q193 0 329 143q-70 63 -187.5 225.5t-188.5 278.5q-137 -76 -203 -160t-66 -225zM446 1176q0 -143 91 -271q104 57 170.5 144.5t66.5 175.5q0 74 -42 119t-124 45q-162 0 -162 -213zM1104 696l127 -24q-53 -242 -187 -436 q121 -125 254 -134v-122q-188 8 -344 161q-178 -162 -422 -161q-186 0 -315 99t-129 281q0 156 74 255.5t266 230.5q-117 174 -117 344q0 145 81 227t222 82q129 0 212 -75.5t83 -206.5q0 -72 -23.5 -132.5t-75.5 -117t-90 -88t-114 -86.5q31 -43 103.5 -153t128 -183.5 t112.5 -134.5q113 171 154 374z" />
<glyph unicode="'" horiz-adv-x="454" d="M176 1016v463h103v-463h-103z" />
<glyph unicode="(" horiz-adv-x="681" d="M422 1499h147q-154 -180 -230.5 -400t-76.5 -433t77 -433.5t230 -400.5h-147q-137 184 -210 405.5t-73 428t73 428t210 405.5z" />
<glyph unicode=")" horiz-adv-x="681" d="M260 -168h-147q154 180 230.5 400.5t76.5 433.5t-77 433t-230 400h147q137 -184 210 -405.5t73 -428t-73 -428t-210 -405.5z" />
<glyph unicode="*" horiz-adv-x="1024" d="M569 1479l-22 -289l266 108l33 -102l-287 -70l186 -211l-90 -71l-139 254l-143 -254l-92 61l190 221l-293 62l37 106l270 -104l-26 289h110z" />
<glyph unicode="+" horiz-adv-x="1228" d="M559 588v477h111v-477h477v-111h-477v-477h-111v477h-477v111h477z" />
<glyph unicode="," horiz-adv-x="569" d="M197 184h176v-184l-129 -307h-80l119 307h-86v184z" />
<glyph unicode="-" horiz-adv-x="681" d="M596 477h-510v111h510v-111z" />
<glyph unicode="." horiz-adv-x="569" d="M373 0h-176v184h176v-184z" />
<glyph unicode="/" horiz-adv-x="569" d="M594 1499l-498 -1519h-121l506 1519h113z" />
<glyph unicode="0" d="M569 1499q256 0 384 -212t128 -548t-128 -547.5t-384 -211.5t-384 211.5t-128 547.5t128 548t384 212zM569.5 1389q-192.5 0 -284.5 -173.5t-92 -476.5t92 -476t284.5 -173t284.5 173t92 476t-92 476.5t-284.5 173.5z" />
<glyph unicode="1" d="M909 0h-635v111h254v1241l-282 -41v80l332 108h86v-1388h245v-111z" />
<glyph unicode="2" d="M225 1055l-119 22q37 199 165 310.5t317 111.5q201 0 317.5 -111.5t116.5 -302.5q0 -143 -76 -252.5t-287 -259.5q-438 -309 -446 -462h811v-111h-934v86q0 203 506 578q143 109 206.5 174t80 112t16.5 131q0 139 -82 223.5t-244 84.5q-133 0 -222 -85t-126 -249z" />
<glyph unicode="3" d="M29 274l108 62q66 -137 156 -191.5t239 -54.5q365 0 365 324q0 315 -426 315h-135v111h110q406 0 406 286q0 262 -322 263q-186 0 -340 -193l-96 70q195 233 447 233q78 0 151.5 -18.5t142 -57.5t110.5 -112.5t42 -171.5q0 -129 -54 -210t-183 -138q283 -106 282 -373 q0 -223 -136 -330.5t-370 -107.5q-374 -1 -497 294z" />
<glyph unicode="4" d="M709 1352l-545 -869h559v869h-14zM29 373v104l649 1002h180v-998h223v-108h-223v-373h-135v373h-694z" />
<glyph unicode="5" d="M254 670l-107 18l66 791h735v-111h-635l-41 -514q137 131 332 131q207 0 330 -143.5t123 -352.5q0 -229 -134.5 -369t-381.5 -140q-143 0 -263 71.5t-184 204.5l111 72q117 -238 352 -238q186 0 281.5 113.5t95.5 275.5q0 178 -92 286.5t-256 108.5q-100 0 -195.5 -55 t-136.5 -149z" />
<glyph unicode="6" d="M1014 1376l-62 -100q-96 113 -290 113q-121 0 -212.5 -62.5t-141.5 -164t-74.5 -211t-24.5 -222.5q78 88 182.5 142.5t214.5 54.5q219 0 347 -137.5t128 -350.5q0 -205 -145 -331.5t-354 -126.5q-119 0 -210 41.5t-146.5 108.5t-90.5 162t-48 189t-13 205 q0 145 34.5 284.5t102.5 260.5t185.5 194.5t267.5 73.5q188 0 350 -123zM946 461q0 158 -96 256t-266 98q-141 0 -256 -114.5t-115 -174.5q0 -199 101.5 -317.5t271.5 -118.5t265 98.5t95 272.5z" />
<glyph unicode="7" d="M113 1368v111h913v-80l-629 -1399h-145l631 1368h-770z" />
<glyph unicode="8" d="M569 1499q215 0 339 -96t124 -279q0 -246 -282 -346q340 -154 340 -397q0 -401 -520.5 -401t-520.5 401q0 244 340 397q-283 100 -283 346q0 182 124 278.5t339 96.5zM184 381q0 -143 106.5 -217t278.5 -74t278.5 74t106.5 217q0 113 -91 185.5t-294 154.5 q-203 -82 -294 -154.5t-91 -185.5zM242 1130q0 -211 327 -299q328 88 328 299q0 127 -89 193t-238.5 66t-238.5 -66t-89 -193z" />
<glyph unicode="9" d="M104 102l62 105q123 -117 285 -117q123 0 215 55.5t143 150.5t75.5 205.5t24.5 235.5q-78 -90 -182 -145t-215 -55q-217 0 -346 139t-129 332q0 225 144.5 358t355.5 133q119 0 210 -42t146 -108.5t90 -161.5t48 -189.5t13 -204.5q0 -150 -28.5 -286t-89 -259 t-174 -195.5t-265.5 -72.5q-221 -1 -383 122zM172 1018q0 -164 96.5 -267.5t266.5 -103.5q76 0 148.5 38t118.5 89t74.5 97.5t28.5 68.5q0 207 -101.5 328t-271.5 121t-265 -98.5t-95 -272.5z" />
<glyph unicode=":" horiz-adv-x="569" d="M373 0h-176v184h176v-184zM373 623h-176v184h176v-184z" />
<glyph unicode=";" horiz-adv-x="569" d="M197 184h176v-184l-129 -307h-80l119 307h-86v184zM373 623h-176v184h176v-184z" />
<glyph unicode="&#x3c;" horiz-adv-x="1228" d="M1147 106v-118l-1065 487v115l1065 487v-119l-926 -426z" />
<glyph unicode="=" horiz-adv-x="1228" d="M1147 793v-111h-1065v111h1065zM1147 383v-111h-1065v111h1065z" />
<glyph unicode="&#x3e;" horiz-adv-x="1228" d="M82 -12v118l926 426l-926 426v119l1065 -487v-115z" />
<glyph unicode="?" horiz-adv-x="796" d="M162 1196l-103 51q92 252 338 252q141 0 239.5 -88t98.5 -246q0 -76 -35.5 -143.5t-87.5 -119.5l-102 -103q-51 -51 -87 -116t-36 -134v-98h-111v147q0 57 34 116.5t81 111.5l94 107q47 54 81 121.5t34 137.5q0 92 -57.5 144.5t-147.5 52.5q-157 0 -233 -193zM414 0h-176 v184h176v-184z" />
<glyph unicode="@" horiz-adv-x="1638" d="M692 387q135 0 241.5 172t106.5 328q0 74 -52 136t-114 62q-150 0 -256 -162.5t-106 -326.5q0 -92 52 -150.5t128 -58.5zM1106 1018l53 135h111l-201 -604q-27 -80 -27 -115q0 -59 54 -59q123 0 230.5 160.5t107.5 336.5q0 238 -172 387.5t-408 149.5 q-274 0 -461.5 -200.5t-187.5 -477.5q0 -272 191.5 -466.5t461.5 -194.5q156 0 303.5 76.5t239.5 205.5h106q-94 -172 -272 -272t-377 -100q-322 0 -541 224t-219 541q0 311 222.5 532.5t529.5 221.5q291 0 490.5 -180t199.5 -453q0 -229 -149.5 -407t-315.5 -178 q-57 0 -96 36.5t-43 106.5l-4 -4q-135 -139 -268 -139q-125 0 -202 88t-77 217q0 231 142.5 418.5t355.5 187.5q160 0 223 -174z" />
<glyph unicode="A" horiz-adv-x="1251" d="M381 594h493l-245 774h-4zM51 0l473 1479h207l467 -1479h-143l-150 483h-559l-151 -483h-144z" />
<glyph unicode="B" horiz-adv-x="1366" d="M340 713v-602h350q195 0 286 72.5t91 230.5q0 135 -103.5 217t-316.5 82h-307zM340 1368v-545h322q346 0 346 275q0 156 -95.5 213t-306.5 57h-266zM205 0v1479h413q272 0 398.5 -89.5t126.5 -281.5q0 -119 -49.5 -193.5t-159.5 -126.5q268 -119 268 -382 q0 -219 -135 -312.5t-391 -93.5h-471z" />
<glyph unicode="C" horiz-adv-x="1251" d="M1141 1071l-125 -27q-100 344 -361 345q-209 0 -315.5 -180.5t-106.5 -469.5q0 -291 109 -470t328 -179q164 0 246.5 96.5t125.5 264.5l127 -23q-45 -213 -163.5 -330.5t-337.5 -117.5q-266 0 -418 206.5t-152 552.5t151.5 553t418.5 207q188 0 305 -116.5t168 -311.5z " />
<glyph unicode="D" horiz-adv-x="1366" d="M340 1368v-1257h287q244 0 373.5 163.5t129.5 464.5t-130 465t-373 164h-287zM205 0v1479h418q324 0 483.5 -209t159.5 -530.5t-160 -530.5t-483 -209h-418z" />
<glyph unicode="E" d="M1087 0h-882v1479h844v-111h-709v-545h510v-110h-510v-602h747v-111z" />
<glyph unicode="F" d="M340 0h-135v1479h868v-111h-733v-545h534v-110h-534v-713z" />
<glyph unicode="G" horiz-adv-x="1366" d="M1171 1071l-127 -22q-37 154 -131 247t-249 93q-197 0 -314 -175.5t-117 -474.5q0 -129 21.5 -236.5t72 -204.5t146.5 -152.5t234 -55.5q154 0 250 102.5t96 253.5v136h-373v110h508v-692h-117v145h-4q-68 -88 -159 -126.5t-242 -38.5q-254 0 -411 200.5t-157 558.5 q0 354 163 557t411 203q201 0 330.5 -116.5t168.5 -311.5z" />
<glyph unicode="H" horiz-adv-x="1478" d="M205 0v1479h135v-656h799v656h135v-1479h-135v713h-799v-713h-135z" />
<glyph unicode="I" horiz-adv-x="569" d="M217 0v1479h135v-1479h-135z" />
<glyph unicode="J" horiz-adv-x="909" d="M0 176l109 64q49 -84 95 -117t138 -33q199 0 199 262v1127h135v-1168q0 -162 -91 -246.5t-251 -84.5q-129 0 -202 46t-132 150z" />
<glyph unicode="K" horiz-adv-x="1251" d="M205 0v1479h135v-803l676 803h166l-477 -566l534 -913h-152l-469 815l-278 -321v-494h-135z" />
<glyph unicode="L" horiz-adv-x="1024" d="M205 0v1479h135v-1368h659v-111h-794z" />
<glyph unicode="M" horiz-adv-x="1705" d="M340 0h-135v1479h237l408 -1254h4l410 1254h237v-1479h-135v1368h-4l-444 -1368h-130l-444 1368h-4v-1368z" />
<glyph unicode="N" horiz-adv-x="1478" d="M205 0v1479h227l703 -1233h4v1233h135v-1479h-139l-791 1368h-4v-1368h-135z" />
<glyph unicode="O" horiz-adv-x="1366" d="M682 1499q272 0 428 -212t156 -548t-156 -547.5t-428 -211.5t-428 211.5t-156 547.5t156 548t428 212zM682 90q207 0 327.5 171t120.5 478.5t-120.5 478.5t-327.5 171t-328 -171t-121 -478.5t121 -478.5t328 -171z" />
<glyph unicode="P" horiz-adv-x="1251" d="M340 0h-135v1479h446q256 0 378 -108.5t122 -303.5t-122 -303.5t-378 -108.5h-311v-655zM340 1368v-602h311q365 0 365 301t-365 301h-311z" />
<glyph unicode="Q" horiz-adv-x="1366" d="M1319 0v-123q-242 0 -346 186q-125 -84 -291 -83q-272 0 -428 211.5t-156 547.5t156 548t428 212t428 -212t156 -548q0 -391 -201 -598q47 -82 101.5 -111.5t152.5 -29.5zM721 322v133q176 -31 287 -197q123 170 122 481q0 307 -120.5 478.5t-327.5 171.5t-328 -171 t-121 -478.5t121 -478.5t328 -171q135 0 233 74q-47 82 -89 115t-105 43z" />
<glyph unicode="R" horiz-adv-x="1366" d="M340 1368v-582h365q147 0 233 78t86 213q0 139 -81 215t-238 76h-365zM852 700l362 -700h-147l-344 676h-383v-676h-135v1479h500q215 0 334.5 -108.5t119.5 -293.5q0 -299 -307 -377z" />
<glyph unicode="S" d="M66 375l124 39q43 -168 144.5 -246t277.5 -78q137 0 216 80t79 215q0 109 -83 179.5t-199.5 110.5t-234.5 85t-201 133t-83 223q0 170 113 276.5t313 106.5q176 0 299 -92t175 -262l-117 -35q-90 279 -357 279q-131 0 -210.5 -72t-79.5 -201q0 -86 56 -144.5t245 -129.5 q209 -78 315.5 -146.5t145 -140.5t38.5 -184q0 -182 -131 -286.5t-319 -104.5q-211 0 -338 96t-188 299z" />
<glyph unicode="T" d="M63 1368v111h1012v-111h-438v-1368h-135v1368h-439z" />
<glyph unicode="U" horiz-adv-x="1478" d="M205 1479h135v-1008q0 -207 98.5 -294t301 -87t301 87t98.5 294v1008h135v-996q0 -504 -534.5 -503.5t-534.5 503.5v996z" />
<glyph unicode="V" d="M496 0l-480 1479h144l401 -1286h4l414 1286h143l-491 -1479h-135z" />
<glyph unicode="W" horiz-adv-x="1705" d="M424 0l-391 1479h137l315 -1233h4l295 1233h136l288 -1233h4l322 1233h137l-395 -1479h-135l-289 1217h-4l-289 -1217h-135z" />
<glyph unicode="X" d="M485 774l-434 705h160l354 -590l346 590h160l-426 -705l469 -774h-160l-389 647l-381 -647h-159z" />
<glyph unicode="Y" d="M494 0v627l-453 852h152l364 -731l389 731h152l-469 -852v-627h-135z" />
<glyph unicode="Z" d="M158 1368v111h876v-115l-772 -1253h782v-111h-950v111l772 1257h-708z" />
<glyph unicode="[" horiz-adv-x="681" d="M180 1479h381v-74h-258v-1479h258v-73h-381v1626z" />
<glyph unicode="\" horiz-adv-x="569" d="M473 -20l-498 1519h113l506 -1519h-121z" />
<glyph unicode="]" horiz-adv-x="681" d="M502 -147h-381v73h258v1479h-258v74h381v-1626z" />
<glyph unicode="^" horiz-adv-x="1228" d="M559 1479h109l446 -873h-135l-369 725l-360 -725h-135z" />
<glyph unicode="_" horiz-adv-x="1024" d="M1024 -256h-1024v102h1024v-102z" />
<glyph unicode="`" horiz-adv-x="454" d="M-29 1466h158l227 -282h-104z" />
<glyph unicode="a" horiz-adv-x="1024" d="M868 0h-118l-17 129q-102 -80 -186 -114.5t-201 -34.5q-127 0 -210 74.5t-83 203.5q0 49 10.5 89t23.5 73t46 61.5l57.5 48t79 42l90 36t111.5 31.5l122 30q46 11 142 31v74q0 111 -55 162t-188 51q-186 0 -310 -192l-82 49q129 242 396 241q182 0 269 -79.5t87 -253.5 v-557q0 -99 16 -195zM729 254v348q-178 -39 -291.5 -78t-169 -83t-74 -84t-18.5 -97q0 -86 52.5 -134t138.5 -48t184 47t178 129z" />
<glyph unicode="b" d="M188 0v1479h123v-553q82 86 156 122.5t178 36.5q184 0 302 -154.5t118 -391.5q0 -272 -110.5 -415.5t-317.5 -143.5q-229 0 -342 159l-21 -139h-86zM311 797v-525q68 -94 141.5 -144t178.5 -50q154 0 232.5 122t78.5 316q0 215 -84 343t-246 128q-84 0 -175 -63.5 t-126 -126.5z" />
<glyph unicode="c" horiz-adv-x="1024" d="M922 797l-113 -31q-100 221 -277 221q-336 0 -335 -455q0 -207 89 -330.5t246 -123.5q106 0 177 54t143 167l98 -47q-162 -272 -418 -272q-219 0 -338.5 152.5t-119.5 399.5q0 268 124 410.5t334 142.5q286 1 390 -288z" />
<glyph unicode="d" d="M950 1479v-1479h-86l-20 139q-113 -160 -342 -159q-207 0 -317.5 143t-110.5 416q0 238 117.5 392t302.5 154q104 0 177.5 -36.5t155.5 -122.5v553h123zM827 272v525q-35 63 -126 126.5t-175 63.5q-162 0 -245.5 -128t-83.5 -343q0 -195 78.5 -316.5t232.5 -121.5 q104 0 177.5 50t141.5 144z" />
<glyph unicode="e" horiz-adv-x="1024" d="M938 528h-741q0 -197 85 -323.5t257 -126.5q102 0 166.5 44t144.5 171l100 -53q-88 -143 -180 -201.5t-242 -58.5q-215 0 -334.5 139t-119.5 413q0 250 118.5 401.5t319.5 151.5q211 0 318.5 -150.5t107.5 -406.5zM197 627h618q-41 358 -307 360q-78 0 -139.5 -36 t-97 -91t-55 -115.5t-19.5 -117.5z" />
<glyph unicode="f" horiz-adv-x="569" d="M537 967h-218v-967h-122v967h-177v98h177v152q0 141 61 211.5t195 70.5q43 0 133 -16v-103q-66 20 -121 21q-74 0 -110 -40t-36 -130v-166h218v-98z" />
<glyph unicode="g" horiz-adv-x="1024" d="M985 1106v-111q-121 0 -170 -49q76 -92 76 -223q0 -186 -114.5 -279.5t-297.5 -93.5q-78 0 -172 33q-98 -35 -98 -102q0 -35 21.5 -52.5t94 -29t214.5 -11.5q453 0 452 -276q0 -129 -114.5 -209t-370.5 -80q-252 0 -358.5 70.5t-106.5 181.5q0 76 41 131t145 94v4 q-141 31 -141 140q0 63 49 115.5t111 64.5q-154 104 -154 278q0 176 115 279.5t307 103.5q137 0 248 -73q94 94 223 94zM479 78q-168 0 -241.5 -51.5t-73.5 -128.5q0 -82 82 -129.5t241 -47.5q381 0 381 183q0 174 -389 174zM215 715q0 -131 78 -198.5t199 -67.5 q276 0 276 266q0 137 -71.5 204.5t-204.5 67.5q-129 0 -203 -73.5t-74 -198.5z" />
<glyph unicode="h" d="M291 0h-123v1479h123v-582q94 98 175 143t189 45q315 0 316 -358v-727h-123v715q0 137 -49 204.5t-168 67.5q-23 0 -41.5 -2t-40 -10l-34.5 -12.5t-36 -19.5l-34 -22q-11 -7 -36 -30l-35 -31l-41 -37q-32 -29 -42 -39v-784z" />
<glyph unicode="i" horiz-adv-x="454" d="M289 1065v-1065h-123v1065h123zM289 1298h-123v181h123v-181z" />
<glyph unicode="j" horiz-adv-x="454" d="M-41 -365v101q49 -14 86 -15q121 0 121 111v1233h123v-1235q0 -111 -55.5 -159t-163.5 -48q-68 0 -111 12zM289 1298h-123v181h123v-181z" />
<glyph unicode="k" horiz-adv-x="1024" d="M291 0h-123v1479h123v-979l493 565h142l-346 -397l399 -668h-137l-340 582l-211 -238v-344z" />
<glyph unicode="l" horiz-adv-x="454" d="M166 0v1479h123v-1479h-123z" />
<glyph unicode="m" horiz-adv-x="1705" d="M291 0h-123v1065h123v-162q92 98 165.5 140t188.5 42q90 0 163 -53t95 -141q82 94 164 144t188 50q281 0 281 -288v-797h-123v809q0 178 -184 178q-70 0 -168 -62.5t-148 -140.5v-784h-122v809q0 178 -185 178q-70 0 -168 -62.5t-147 -140.5v-784z" />
<glyph unicode="n" d="M291 0h-123v1065h123v-168q94 98 175 143t189 45q315 0 316 -358v-727h-123v715q0 137 -49 204.5t-168 67.5q-23 0 -41.5 -2t-40 -10l-34.5 -12.5t-36 -19.5l-34 -22q-11 -7 -36 -30l-35 -31l-41 -37q-32 -29 -42 -39v-784z" />
<glyph unicode="o" horiz-adv-x="1024" d="M512 987q-315 0 -315 -454.5t315 -454.5t315 454.5t-315 454.5zM512 1085q231 0 334.5 -155.5t103.5 -397t-103.5 -397t-334.5 -155.5t-334.5 155.5t-103.5 397t103.5 397t334.5 155.5z" />
<glyph unicode="p" d="M188 -377v1442h123v-164h4q127 184 322 184q199 0 313.5 -163.5t114.5 -395.5q0 -270 -113.5 -408t-306.5 -138q-104 0 -178 36.5t-156 122.5v-516h-123zM311 793v-525q35 -63 126 -126.5t175 -63.5q164 0 247 123t83 348q0 180 -81 309t-230 129q-63 0 -122.5 -29.5 t-95.5 -62t-102 -102.5z" />
<glyph unicode="q" d="M950 1057v-1434h-123v514q-82 -84 -155.5 -120.5t-177.5 -36.5q-184 0 -302 153.5t-118 388.5q0 270 110.5 412.5t317.5 142.5q199 0 342 -157l20 137h86zM827 266v520q-68 94 -141.5 143.5t-177.5 49.5q-154 0 -232.5 -121t-78.5 -313q0 -213 84 -340t245 -127 q84 0 175 63.5t126 124.5z" />
<glyph unicode="r" horiz-adv-x="681" d="M283 0h-123v1065h123v-203h4q45 100 127 161.5t180 61.5h55v-118h-55q-109 0 -210 -109.5t-101 -255.5v-602z" />
<glyph unicode="s" horiz-adv-x="909" d="M51 195l90 63q72 -104 146.5 -142t183.5 -38q100 0 169 58.5t69 144.5q0 72 -46.5 118.5t-115.5 67.5l-152 45q-82 25 -151.5 50.5t-115.5 85t-46 147.5q0 143 96 216.5t242 73.5q248 0 366 -192l-94 -66q-117 160 -276 160q-94 0 -152.5 -47t-58.5 -139q0 -72 64.5 -113 t156.5 -64.5t184 -54t156.5 -102.5t64.5 -186q0 -137 -108.5 -219t-259.5 -82q-269 0 -412 215z" />
<glyph unicode="t" horiz-adv-x="569" d="M20 1065h160v348h123v-348h234v-98h-234v-781q0 -109 109 -108q53 0 125 22v-102q-123 -18 -125 -18q-127 0 -179.5 44t-52.5 142v801h-160v98z" />
<glyph unicode="u" d="M848 1065h123v-1065h-123v168q-94 -98 -175 -143t-190 -45q-315 0 -315 358v727h123v-715q0 -137 49 -204.5t168 -67.5q23 0 41 2t39.5 10t35 12t35.5 20l34 22q11 7 37 30l35 31l41 37q32 29 42 39v784z" />
<glyph unicode="v" horiz-adv-x="909" d="M393 0l-364 1065h131l291 -877h4l295 877h131l-367 -1065h-121z" />
<glyph unicode="w" horiz-adv-x="1366" d="M311 0l-297 1065h125l234 -856h4l244 856h120l238 -856h4l240 856h127l-310 -1065h-120l-240 856h-4l-238 -856h-127z" />
<glyph unicode="x" horiz-adv-x="909" d="M455 449l-287 -449h-148l361 565l-320 500h148l246 -385l245 385h148l-320 -500l361 -565h-148z" />
<glyph unicode="y" horiz-adv-x="909" d="M160 1065l293 -866h4l297 866h131l-398 -1141q-57 -164 -128.5 -232.5t-211.5 -68.5q-72 0 -114 12v101q2 0 48 -7.5t75 -7.5q72 0 135 71t104 224l-370 1049h135z" />
<glyph unicode="z" horiz-adv-x="909" d="M100 967v98h729v-78l-614 -889h631v-98h-795v78l615 889h-566z" />
<glyph unicode="{" horiz-adv-x="681" d="M90 629v73q68 0 95.5 41t27.5 125v400q0 111 47 171t133 60h127v-74h-102q-43 0 -62.5 -26.5t-19.5 -108.5v-403q0 -184 -148 -219v-4q147 -35 148 -220v-403q0 -82 19.5 -108.5t62.5 -26.5h102v-74h-127q-86 0 -133 60.5t-47 170.5v400q0 84 -27.5 125t-95.5 41z" />
<glyph unicode="|" horiz-adv-x="454" d="M172 -20v1519h111v-1519h-111z" />
<glyph unicode="}" horiz-adv-x="681" d="M592 702v-73q-68 0 -95.5 -41t-27.5 -125v-400q0 -111 -47 -171t-133 -60h-127v74h102q43 0 62.5 26.5t19.5 108.5v403q0 184 148 220v4q-147 35 -148 219v403q0 82 -19.5 108.5t-62.5 26.5h-102v74h127q86 0 133 -60.5t47 -170.5v-400q0 -84 27.5 -125t95.5 -41z" />
<glyph unicode="~" horiz-adv-x="1228" d="M1047 666l77 -86q-94 -172 -276 -172q-86 0 -244 65q-174 70 -227 70q-59 0 -102.5 -37t-92.5 -107l-78 86q98 172 277 172q86 0 244 -65q174 -70 227 -70q59 0 102.5 37t92.5 107z" />
<glyph unicode="&#xa1;" horiz-adv-x="454" d="M315 -414h-176l37 1024h103zM139 1065h176v-184h-176v184z" />
<glyph unicode="&#xa2;" d="M408 137l272 834q-43 16 -90 16q-336 0 -336 -455q0 -282 154 -395zM770 913l-268 -823q39 -12 88 -12q106 0 177 54t142 167l99 -47q-162 -272 -418 -272q-68 0 -119 14l-78 -240h-110l90 277q-119 63 -180.5 194t-61.5 307q0 268 124 410.5t335 142.5q61 0 121 -16 l71 219h111l-86 -262q119 -76 172 -229l-113 -31q-41 92 -96 147z" />
<glyph unicode="&#xa3;" d="M33 -20v126q123 55 179 175t56 270q0 27 -10 135h-227v98h215q-2 25 -15.5 133.5t-13.5 167.5q0 188 112.5 301t301.5 113q174 0 289.5 -101.5t146.5 -273.5l-119 -28q-29 143 -103.5 218t-215.5 75q-143 0 -216 -83t-73 -227q0 -102 33 -295h299v-98h-287q0 -16 3 -53 t3 -55q0 -182 -74 -345q221 -143 355 -143q127 0 197.5 60.5t111.5 216.5l115 -25q-72 -362 -404 -362q-92 0 -176 26.5t-125 50t-129 82.5q-100 -134 -229 -159z" />
<glyph unicode="&#xa4;" d="M999 1247l78 -78l-110 -110q111 -129 110.5 -319.5t-110.5 -319.5l110 -111l-78 -78l-114 113q-133 -113 -315.5 -113t-315.5 113l-115 -113l-78 78l111 111q-111 129 -111 319.5t111 319.5l-111 110l78 78l115 -112q133 113 315.5 112.5t315.5 -112.5zM569.5 330 q163.5 0 280.5 121.5t117 287.5t-117 288t-280.5 122t-280.5 -122t-117 -288t117 -287.5t280.5 -121.5z" />
<glyph unicode="&#xa5;" d="M989 901v-98h-266l-94 -176v-25h360v-98h-360v-504h-135v504h-361v98h361v25l-91 176h-270v98h221l-297 578h136l364 -731l389 731h135l-307 -578h215z" />
<glyph unicode="&#xa6;" horiz-adv-x="454" d="M172 -20v573h111v-573h-111zM172 926v573h111v-573h-111z" />
<glyph unicode="&#xa7;" horiz-adv-x="1024" d="M817 1298l-82 -51q-80 162 -233 162q-72 0 -115 -41t-43 -123q0 -47 54.5 -111.5t131.5 -133.5l156 -140q78 -72 132 -153.5t54 -153.5q0 -215 -223 -229q113 -131 113 -261q0 -113 -84 -170t-203 -57q-94 0 -178 52.5t-121 138.5l86 55q27 -68 85.5 -112t129.5 -44 q182 0 182 152q0 51 -55 122.5t-133 147.5l-156 154q-78 78 -133 160.5t-55 148.5q0 96 68.5 152.5t171.5 56.5l4 4q-129 94 -129 238q0 104 75.5 170.5t194.5 66.5q209 0 305 -201zM365 954q-49 0 -92.5 -34.5t-43.5 -88.5q0 -82 166 -262t236 -180q63 0 101 40t38 103 q0 47 -76 148.5t-175 187.5t-154 86z" />
<glyph unicode="&#xa8;" horiz-adv-x="454" d="M0 1397h135v-193h-135v193zM319 1397h136v-193h-136v193z" />
<glyph unicode="&#xa9;" horiz-adv-x="1638" d="M819.5 1499q315.5 0 537.5 -223t222 -536.5t-222 -536.5t-537.5 -223t-538 223t-222.5 536.5t222.5 536.5t538 223zM819.5 82q272.5 0 454.5 190.5t182 467t-182 467t-454.5 190.5t-455 -190.5t-182.5 -467t182.5 -467t455 -190.5zM1114 584h111q-35 -147 -137.5 -236.5 t-245.5 -89.5q-207 0 -334 137t-127 346q0 211 123 345.5t332 134.5q154 0 262 -84t127 -234h-111q-20 94 -94 154.5t-182 60.5q-156 0 -245 -106.5t-89 -268.5q0 -156 94 -269.5t244 -113.5q106 0 180 64t92 160z" />
<glyph unicode="&#xaa;" horiz-adv-x="614" d="M121 1317l-66 41q86 141 267 141q117 0 170 -46t53 -150v-320q0 -66 12 -131h-90l-10 78q-104 -90 -240 -90q-84 0 -138 45t-54 121q0 61 28.5 106t82.5 71.5t99.5 41t115 30t91.5 21.5v51q0 90 -131 90q-116 0 -190 -100zM442 1016v172q-16 -6 -65 -17.5t-86 -22.5 t-78 -29.5t-63.5 -47.5t-22.5 -63q0 -37 27.5 -61.5t74.5 -24.5q57 0 118.5 26.5t94.5 67.5z" />
<glyph unicode="&#xab;" horiz-adv-x="1024" d="M856 848l-256 -311l256 -320h-135l-250 320l250 311h135zM551 848l-254 -311l254 -320h-135l-248 320l248 311h135z" />
<glyph unicode="&#xac;" horiz-adv-x="1228" d="M1036 272v410h-954v111h1065v-521h-111z" />
<glyph unicode="&#xad;" horiz-adv-x="681" d="M596 477h-510v111h510v-111z" />
<glyph unicode="&#xae;" horiz-adv-x="1638" d="M659 688v-401h-122v903h346q293 0 293 -250q0 -111 -59.5 -172t-149.5 -80l252 -401h-140l-245 401h-175zM659 791h142h12q47 0 71.5 1t62.5 8t56.5 22.5t34 46t15.5 73.5q0 145 -197 145h-197v-296zM819.5 1499q315.5 0 537.5 -223t222 -536.5t-222 -536.5t-537.5 -223 t-538 223t-222.5 536.5t222.5 536.5t538 223zM819.5 82q272.5 0 454.5 190.5t182 467t-182 467t-454.5 190.5t-455 -190.5t-182.5 -467t182.5 -467t455 -190.5z" />
<glyph unicode="&#xaf;" horiz-adv-x="454" d="M-76 1264v90h606v-90h-606z" />
<glyph unicode="&#xb0;" horiz-adv-x="819" d="M409.5 1413q-90.5 0 -147.5 -60.5t-57 -152.5t57 -152.5t147.5 -60.5t147.5 60.5t57 152.5t-57 152.5t-147.5 60.5zM410 1499q125 0 212 -87t87 -212t-87 -212t-212 -87t-212 87t-87 212t87 212t212 87z" />
<glyph unicode="&#xb1;" horiz-adv-x="1228" d="M559 686v379h111v-379h477v-111h-477v-378h-111v378h-477v111h477zM82 0v111h1065v-111h-1065z" />
<glyph unicode="&#xb2;" horiz-adv-x="681" d="M141 1231l-94 14q23 119 108 186.5t212 67.5t202.5 -70.5t75.5 -195.5q0 -49 -14.5 -88t-49 -75t-61 -57.5t-81.5 -59.5l-79 -56q-174 -131 -200 -166q-18 -23 -21 -43h504v-90h-610v68q0 61 47 122.5t205 169.5q154 102 204 160t50 123q0 76 -46.5 122t-121.5 46 q-189 0 -230 -178z" />
<glyph unicode="&#xb3;" horiz-adv-x="681" d="M4 762l84 49q43 -78 96.5 -106.5t147.5 -28.5q106 0 162.5 45t56.5 125q0 178 -258 178h-88v90h71q244 0 244 160q0 61 -50 98t-124 37q-82 0 -128 -19.5t-93 -82.5l-74 47q104 145 287 145q117 0 203 -56.5t86 -160.5q0 -82 -28 -129t-107 -80q166 -57 165 -225 q0 -133 -89 -197.5t-240 -64.5q-242 0 -324 176z" />
<glyph unicode="&#xb4;" horiz-adv-x="454" d="M326 1466h157l-280 -282h-105z" />
<glyph unicode="&#xb5;" d="M848 1065h123v-1065h-123v168q-94 -98 -175 -143t-190 -45q-123 0 -192 49v-406h-123v1442h123v-715q0 -137 49 -204.5t168 -67.5q23 0 41 2t39.5 10t35 12t35.5 20l34 22q11 7 37 30l35 31l41 37q32 29 42 39v784z" />
<glyph unicode="&#xb6;" horiz-adv-x="1024" d="M457 -164v852q-178 0 -301 115t-123 274q0 193 119.5 297.5t336.5 104.5h539v-90h-151v-1553h-103v1553h-215v-1553h-102z" />
<glyph unicode="&#xb7;" horiz-adv-x="569" d="M285 635q41 0 71.5 -30t30.5 -73t-30.5 -72.5t-71.5 -29.5t-72 29.5t-31 72.5t31 73t72 30z" />
<glyph unicode="&#xb8;" horiz-adv-x="454" d="M0 -385l29 74q88 -33 121 -33q135 0 135 84q0 41 -28 62.5t-64 21.5q-49 0 -91 -19l-30 27l123 168h77l-88 -102l4 -4q25 12 64 12q74 0 117 -46t43 -126q0 -76 -69 -118t-146 -42q-117 0 -197 41z" />
<glyph unicode="&#xb9;" horiz-adv-x="681" d="M563 598h-413v90h149v709l-168 -41v76l191 67h84v-811h157v-90z" />
<glyph unicode="&#xba;" horiz-adv-x="614" d="M135 1169q0 -121 39 -178t133 -57t132 57.5t38 177.5q0 119 -39 177.5t-131 58.5q-94 0 -133 -58.5t-39 -177.5zM307 1499q150 0 217.5 -92t67.5 -237.5t-67.5 -237.5t-217.5 -92q-152 0 -219.5 92t-67.5 237.5t67.5 237.5t219.5 92z" />
<glyph unicode="&#xbb;" horiz-adv-x="1024" d="M168 217l256 311l-256 320h135l250 -320l-250 -311h-135zM473 217l254 311l-254 320h135l248 -320l-248 -311h-135z" />
<glyph unicode="&#xbc;" horiz-adv-x="1708" d="M1370 766l-309 -463h317v463h-8zM946 213v98l402 578h137v-586h145v-90h-145v-213h-107v213h-432zM612 598h-413v90h149v709l-168 -41v76l191 67h84v-811h157v-90zM371 -20l909 1519h117l-905 -1519h-121z" />
<glyph unicode="&#xbd;" horiz-adv-x="1708" d="M612 598h-413v90h149v709l-168 -41v76l191 67h84v-811h157v-90zM1116 633l-94 14q23 119 107.5 186.5t211.5 67.5t203 -70.5t76 -195.5q0 -49 -14.5 -88t-49 -75t-61.5 -57.5t-81 -59.5l-79 -56q-174 -131 -200 -166q-18 -23 -21 -43h504v-90h-610v68q0 61 47 122.5 t205 169.5q154 102 203.5 160t49.5 123q0 76 -46 122t-121 46q-189 0 -230 -178zM346 -20l909 1519h117l-905 -1519h-121z" />
<glyph unicode="&#xbe;" horiz-adv-x="1708" d="M1370 766l-309 -463h317v463h-8zM946 213v98l402 578h137v-586h145v-90h-145v-213h-107v213h-432zM61 762l84 49q43 -78 96.5 -106.5t147.5 -28.5q106 0 162.5 45t56.5 125q0 178 -258 178h-88v90h72q244 0 244 160q0 61 -50.5 98t-124.5 37q-82 0 -128 -19.5t-93 -82.5 l-73 47q104 145 286 145q117 0 203 -56.5t86 -160.5q0 -82 -27.5 -129t-107.5 -80q166 -57 166 -225q0 -133 -89 -197.5t-241 -64.5q-242 0 -324 176zM403 -20l910 1519h117l-906 -1519h-121z" />
<glyph unicode="&#xbf;" horiz-adv-x="796" d="M635 -131l102 -51q-92 -252 -338 -252q-141 0 -239.5 88t-98.5 246q0 76 36 143.5t87 119.5l103 103q51 51 87 115.5t36 134.5v98h110v-147q0 -57 -33.5 -116.5t-80.5 -111.5l-95 -107q-47 -54 -80.5 -121.5t-33.5 -137.5q0 -92 57 -144.5t147 -52.5q158 0 234 193z M383 1065h176v-184h-176v184z" />
<glyph unicode="&#xc0;" horiz-adv-x="1251" d="M381 594h493l-245 774h-4zM51 0l473 1479h207l467 -1479h-143l-150 483h-559l-151 -483h-144zM365 1825h157l228 -283h-105z" />
<glyph unicode="&#xc1;" horiz-adv-x="1251" d="M381 594h493l-245 774h-4zM51 0l473 1479h207l467 -1479h-143l-150 483h-559l-151 -483h-144zM719 1825h158l-281 -283h-104z" />
<glyph unicode="&#xc2;" horiz-adv-x="1251" d="M381 594h493l-245 774h-4zM51 0l473 1479h207l467 -1479h-143l-150 483h-559l-151 -483h-144zM690 1825l234 -283h-136l-167 207l-168 -207h-136l234 283h139z" />
<glyph unicode="&#xc3;" horiz-adv-x="1251" d="M381 594h493l-245 774h-4zM51 0l473 1479h207l467 -1479h-143l-150 483h-559l-151 -483h-144zM377 1565h-78q6 76 56.5 137t123.5 61q53 0 152 -45q102 -45 141 -45t62.5 30t29.5 71h78q-35 -199 -182 -199q-41 0 -148 47q-102 45 -139 45q-80 0 -96 -102z" />
<glyph unicode="&#xc4;" horiz-adv-x="1251" d="M381 594h493l-245 774h-4zM51 0l473 1479h207l467 -1479h-143l-150 483h-559l-151 -483h-144zM393 1755h135v-192h-135v192zM713 1755h135v-192h-135v192z" />
<glyph unicode="&#xc5;" horiz-adv-x="1251" d="M381 594h493l-245 774h-4zM51 0l473 1479h207l467 -1479h-143l-150 483h-559l-151 -483h-144zM621 1944q84 0 144 -59.5t60 -145.5t-60 -145.5t-144 -59.5t-144.5 59.5t-60.5 145.5t60.5 145.5t144.5 59.5zM620.5 1874q-55.5 0 -95.5 -39t-40 -96.5t40 -96t95.5 -38.5 t95.5 38.5t40 96t-40 96.5t-95.5 39z" />
<glyph unicode="&#xc6;" horiz-adv-x="1933" d="M512 594h469v770h-35zM37 0l823 1479h952v-111h-696v-545h498v-110h-498v-602h735v-111h-870v483h-535l-258 -483h-151z" />
<glyph unicode="&#xc7;" horiz-adv-x="1251" d="M1141 1071l-125 -27q-100 344 -361 345q-209 0 -315.5 -180.5t-106.5 -469.5q0 -291 109 -470t328 -179q164 0 246.5 96.5t125.5 264.5l127 -23q-45 -213 -163.5 -330.5t-337.5 -117.5l-70 -82l4 -4q25 12 64 12q74 0 116.5 -46t42.5 -126q0 -76 -68.5 -118t-146.5 -42 q-117 0 -196 41l28 74q88 -33 121 -33q135 0 135 84q0 41 -27.5 62.5t-64.5 21.5q-49 0 -90 -19l-31 27l111 152q-236 29 -367 231.5t-131 523.5q0 346 151.5 553t418.5 207q188 0 305 -116.5t168 -311.5z" />
<glyph unicode="&#xc8;" d="M1087 0h-882v1479h844v-111h-709v-545h510v-110h-510v-602h747v-111zM375 1825h157l228 -283h-105z" />
<glyph unicode="&#xc9;" d="M1087 0h-882v1479h844v-111h-709v-545h510v-110h-510v-602h747v-111zM729 1825h158l-281 -283h-104z" />
<glyph unicode="&#xca;" d="M1087 0h-882v1479h844v-111h-709v-545h510v-110h-510v-602h747v-111zM700 1825l234 -283h-135l-168 207l-168 -207h-135l233 283h139z" />
<glyph unicode="&#xcb;" d="M1087 0h-882v1479h844v-111h-709v-545h510v-110h-510v-602h747v-111zM403 1755h136v-192h-136v192zM723 1755h135v-192h-135v192z" />
<glyph unicode="&#xcc;" horiz-adv-x="569" d="M217 0v1479h135v-1479h-135zM14 1825h158l227 -283h-104z" />
<glyph unicode="&#xcd;" horiz-adv-x="569" d="M217 0v1479h135v-1479h-135zM369 1825h157l-280 -283h-105z" />
<glyph unicode="&#xce;" horiz-adv-x="569" d="M217 0v1479h135v-1479h-135zM340 1825l233 -283h-135l-168 207l-168 -207h-135l234 283h139z" />
<glyph unicode="&#xcf;" horiz-adv-x="569" d="M217 0v1479h135v-1479h-135zM43 1755h135v-192h-135v192zM362 1755h136v-192h-136v192z" />
<glyph unicode="&#xd0;" horiz-adv-x="1366" d="M340 823h401v-110h-401v-602h287q244 0 373.5 163.5t129.5 464.5t-130 465t-373 164h-287v-545zM20 823h185v656h418q324 0 483.5 -209t159.5 -530.5t-160 -530.5t-483 -209h-418v713h-185v110z" />
<glyph unicode="&#xd1;" horiz-adv-x="1478" d="M205 0v1479h227l703 -1233h4v1233h135v-1479h-139l-791 1368h-4v-1368h-135zM496 1565h-78q6 76 56 137t124 61q53 0 152 -45q102 -45 141 -45t62.5 30t29.5 71h78q-35 -199 -182 -199q-41 0 -148 47q-102 45 -139 45q-80 0 -96 -102z" />
<glyph unicode="&#xd2;" horiz-adv-x="1366" d="M682 1499q272 0 428 -212t156 -548t-156 -547.5t-428 -211.5t-428 211.5t-156 547.5t156 548t428 212zM682 90q207 0 327.5 171t120.5 478.5t-120.5 478.5t-327.5 171t-328 -171t-121 -478.5t121 -478.5t328 -171zM428 1825h158l227 -283h-104z" />
<glyph unicode="&#xd3;" horiz-adv-x="1366" d="M682 1499q272 0 428 -212t156 -548t-156 -547.5t-428 -211.5t-428 211.5t-156 547.5t156 548t428 212zM682 90q207 0 327.5 171t120.5 478.5t-120.5 478.5t-327.5 171t-328 -171t-121 -478.5t121 -478.5t328 -171zM782 1825h158l-281 -283h-104z" />
<glyph unicode="&#xd4;" horiz-adv-x="1366" d="M682 1499q272 0 428 -212t156 -548t-156 -547.5t-428 -211.5t-428 211.5t-156 547.5t156 548t428 212zM682 90q207 0 327.5 171t120.5 478.5t-120.5 478.5t-327.5 171t-328 -171t-121 -478.5t121 -478.5t328 -171zM754 1825l233 -283h-135l-168 207l-168 -207h-135 l233 283h140z" />
<glyph unicode="&#xd5;" horiz-adv-x="1366" d="M682 1499q272 0 428 -212t156 -548t-156 -547.5t-428 -211.5t-428 211.5t-156 547.5t156 548t428 212zM682 90q207 0 327.5 171t120.5 478.5t-120.5 478.5t-327.5 171t-328 -171t-121 -478.5t121 -478.5t328 -171zM440 1565h-78q6 76 56.5 137t124.5 61q53 0 151 -45 q102 -45 141 -45t63 30t30 71h78q-35 -199 -183 -199q-41 0 -147 47q-102 45 -139 45q-81 0 -97 -102z" />
<glyph unicode="&#xd6;" horiz-adv-x="1366" d="M682 1499q272 0 428 -212t156 -548t-156 -547.5t-428 -211.5t-428 211.5t-156 547.5t156 548t428 212zM682 90q207 0 327.5 171t120.5 478.5t-120.5 478.5t-327.5 171t-328 -171t-121 -478.5t121 -478.5t328 -171zM457 1755h135v-192h-135v192zM776 1755h135v-192h-135 v192z" />
<glyph unicode="&#xd7;" horiz-adv-x="1228" d="M1147 987l-455 -455l455 -454l-78 -78l-455 455l-454 -455l-78 78l455 454l-455 455l78 78l454 -455l455 455z" />
<glyph unicode="&#xd8;" horiz-adv-x="1366" d="M1030 1182l-624 -979q106 -113 276 -113q207 0 327.5 171t120.5 478q0 283 -100 443zM334 295l627 979q-109 115 -279 115q-207 0 -328 -171t-121 -479q1 -278 101 -444zM1282 1577l-180 -281q164 -205 164 -557q0 -336 -156 -547.5t-428 -211.5q-199 0 -342 120 l-127 -198h-129l178 280q-164 207 -164 557q0 336 156 548t428 212q203 0 344 -123l127 201h129z" />
<glyph unicode="&#xd9;" horiz-adv-x="1478" d="M205 1479h135v-1008q0 -207 98.5 -294t301 -87t301 87t98.5 294v1008h135v-996q0 -504 -534.5 -503.5t-534.5 503.5v996zM473 1825h158l227 -283h-104z" />
<glyph unicode="&#xda;" horiz-adv-x="1478" d="M205 1479h135v-1008q0 -207 98.5 -294t301 -87t301 87t98.5 294v1008h135v-996q0 -504 -534.5 -503.5t-534.5 503.5v996zM827 1825h158l-280 -283h-105z" />
<glyph unicode="&#xdb;" horiz-adv-x="1478" d="M205 1479h135v-1008q0 -207 98.5 -294t301 -87t301 87t98.5 294v1008h135v-996q0 -504 -534.5 -503.5t-534.5 503.5v996zM799 1825l233 -283h-135l-168 207l-168 -207h-135l233 283h140z" />
<glyph unicode="&#xdc;" horiz-adv-x="1478" d="M205 1479h135v-1008q0 -207 98.5 -294t301 -87t301 87t98.5 294v1008h135v-996q0 -504 -534.5 -503.5t-534.5 503.5v996zM502 1755h135v-192h-135v192zM821 1755h135v-192h-135v192z" />
<glyph unicode="&#xdd;" d="M494 0v627l-453 852h152l364 -731l389 731h152l-469 -852v-627h-135zM668 1825h157l-280 -283h-105z" />
<glyph unicode="&#xde;" horiz-adv-x="1251" d="M340 348v-348h-135v1479h135v-308h311q256 0 378 -108.5t122 -303t-122 -303t-378 -108.5h-311zM340 1061v-602h311q365 0 365 301t-365 301h-311z" />
<glyph unicode="&#xdf;" horiz-adv-x="1024" d="M279 0h-123v1092q0 178 92 282.5t268 104.5q156 0 254 -103.5t98 -261.5q0 -102 -48 -182t-140 -125q137 -43 209 -146.5t72 -248.5q0 -201 -91.5 -316.5t-259.5 -115.5q-109 0 -188 47l43 92q78 -41 151 -41q104 0 163 85t59 234q0 180 -92.5 260t-280.5 80v99 q139 4 209.5 70.5t70.5 211.5q0 125 -62 193.5t-185 68.5q-119 0 -169 -80.5t-50 -201.5v-1098z" />
<glyph unicode="&#xe0;" horiz-adv-x="1024" d="M868 0h-118l-17 129q-102 -80 -186 -114.5t-201 -34.5q-127 0 -210 74.5t-83 203.5q0 49 10.5 89t23.5 73t46 61.5l57.5 48t79 42l90 36t111.5 31.5l122 30q46 11 142 31v74q0 111 -55 162t-188 51q-186 0 -310 -192l-82 49q129 242 396 241q182 0 269 -79.5t87 -253.5 v-557q0 -99 16 -195zM729 254v348q-178 -39 -291.5 -78t-169 -83t-74 -84t-18.5 -97q0 -86 52.5 -134t138.5 -48t184 47t178 129zM256 1466h158l227 -282h-104z" />
<glyph unicode="&#xe1;" horiz-adv-x="1024" d="M868 0h-118l-17 129q-102 -80 -186 -114.5t-201 -34.5q-127 0 -210 74.5t-83 203.5q0 49 10.5 89t23.5 73t46 61.5l57.5 48t79 42l90 36t111.5 31.5l122 30q46 11 142 31v74q0 111 -55 162t-188 51q-186 0 -310 -192l-82 49q129 242 396 241q182 0 269 -79.5t87 -253.5 v-557q0 -99 16 -195zM729 254v348q-178 -39 -291.5 -78t-169 -83t-74 -84t-18.5 -97q0 -86 52.5 -134t138.5 -48t184 47t178 129zM610 1466h158l-281 -282h-104z" />
<glyph unicode="&#xe2;" horiz-adv-x="1024" d="M868 0h-118l-17 129q-102 -80 -186 -114.5t-201 -34.5q-127 0 -210 74.5t-83 203.5q0 49 10.5 89t23.5 73t46 61.5l57.5 48t79 42l90 36t111.5 31.5l122 30q46 11 142 31v74q0 111 -55 162t-188 51q-186 0 -310 -192l-82 49q129 242 396 241q182 0 269 -79.5t87 -253.5 v-557q0 -99 16 -195zM729 254v348q-178 -39 -291.5 -78t-169 -83t-74 -84t-18.5 -97q0 -86 52.5 -134t138.5 -48t184 47t178 129zM582 1466l233 -282h-135l-168 207l-168 -207h-135l233 282h140z" />
<glyph unicode="&#xe3;" horiz-adv-x="1024" d="M868 0h-118l-17 129q-102 -80 -186 -114.5t-201 -34.5q-127 0 -210 74.5t-83 203.5q0 49 10.5 89t23.5 73t46 61.5l57.5 48t79 42l90 36t111.5 31.5l122 30q46 11 142 31v74q0 111 -55 162t-188 51q-186 0 -310 -192l-82 49q129 242 396 241q182 0 269 -79.5t87 -253.5 v-557q0 -99 16 -195zM729 254v348q-178 -39 -291.5 -78t-169 -83t-74 -84t-18.5 -97q0 -86 52.5 -134t138.5 -48t184 47t178 129zM268 1206h-78q6 76 56.5 137.5t124.5 61.5q53 0 151 -45q102 -45 141 -45t63 29.5t30 70.5h78q-35 -199 -183 -198q-41 0 -147 47 q-102 45 -139 45q-81 -1 -97 -103z" />
<glyph unicode="&#xe4;" horiz-adv-x="1024" d="M868 0h-118l-17 129q-102 -80 -186 -114.5t-201 -34.5q-127 0 -210 74.5t-83 203.5q0 49 10.5 89t23.5 73t46 61.5l57.5 48t79 42l90 36t111.5 31.5l122 30q46 11 142 31v74q0 111 -55 162t-188 51q-186 0 -310 -192l-82 49q129 242 396 241q182 0 269 -79.5t87 -253.5 v-557q0 -99 16 -195zM729 254v348q-178 -39 -291.5 -78t-169 -83t-74 -84t-18.5 -97q0 -86 52.5 -134t138.5 -48t184 47t178 129zM285 1397h135v-193h-135v193zM604 1397h135v-193h-135v193z" />
<glyph unicode="&#xe5;" horiz-adv-x="1024" d="M868 0h-118l-17 129q-102 -80 -186 -114.5t-201 -34.5q-127 0 -210 74.5t-83 203.5q0 49 10.5 89t23.5 73t46 61.5l57.5 48t79 42l90 36t111.5 31.5l122 30q46 11 142 31v74q0 111 -55 162t-188 51q-186 0 -310 -192l-82 49q129 242 396 241q182 0 269 -79.5t87 -253.5 v-557q0 -99 16 -195zM729 254v348q-178 -39 -291.5 -78t-169 -83t-74 -84t-18.5 -97q0 -86 52.5 -134t138.5 -48t184 47t178 129zM512 1585q84 0 144.5 -59.5t60.5 -145.5t-60.5 -145t-144.5 -59t-144.5 59t-60.5 145t60.5 145.5t144.5 59.5zM512 1516q-55 0 -95 -39 t-40 -96.5t40 -96.5t95 -39t95 39t40 96.5t-40 96.5t-95 39z" />
<glyph unicode="&#xe6;" horiz-adv-x="1593" d="M692 254v348q-164 -39 -269.5 -78t-157.5 -83t-70.5 -85t-18.5 -96q0 -86 52.5 -134t138.5 -48q88 0 181 48t144 128zM1507 528h-692q0 -199 70.5 -324.5t222.5 -125.5q102 0 166.5 44t144.5 171l101 -53q-88 -143 -180.5 -201.5t-241.5 -58.5q-207 0 -340 180 q-145 -180 -412 -180q-127 0 -210 74.5t-83 203.5q0 84 28 146.5t77 104.5t129 74.5t171 57.5l214 55q14 2 20 4v74q0 90 -55 151.5t-170 61.5q-205 0 -281 -196l-90 53q100 242 363 241q242 0 323 -174q121 174 324 174q207 0 304 -148.5t97 -408.5zM815 627h569 q-41 360 -282 360q-131 0 -204 -100t-83 -260z" />
<glyph unicode="&#xe7;" horiz-adv-x="1024" d="M922 797l-113 -31q-100 221 -277 221q-336 0 -335 -455q0 -207 89 -330.5t246 -123.5q106 0 177 54t143 167l98 -47q-160 -270 -411 -272l-70 -82l4 -4q25 12 64 12q74 0 116.5 -46t42.5 -126q0 -76 -68.5 -118t-146.5 -42q-117 0 -196 41l28 74q88 -33 121 -33 q135 0 135 84q0 41 -27.5 62.5t-64.5 21.5q-49 0 -90 -19l-31 27l111 152q-188 23 -290.5 172t-102.5 376q0 268 124 410.5t334 142.5q286 1 390 -288z" />
<glyph unicode="&#xe8;" horiz-adv-x="1024" d="M938 528h-741q0 -197 85 -323.5t257 -126.5q102 0 166.5 44t144.5 171l100 -53q-88 -143 -180 -201.5t-242 -58.5q-215 0 -334.5 139t-119.5 413q0 250 118.5 401.5t319.5 151.5q211 0 318.5 -150.5t107.5 -406.5zM197 627h618q-41 358 -307 360q-78 0 -139.5 -36 t-97 -91t-55 -115.5t-19.5 -117.5zM256 1466h158l227 -282h-104z" />
<glyph unicode="&#xe9;" horiz-adv-x="1024" d="M938 528h-741q0 -197 85 -323.5t257 -126.5q102 0 166.5 44t144.5 171l100 -53q-88 -143 -180 -201.5t-242 -58.5q-215 0 -334.5 139t-119.5 413q0 250 118.5 401.5t319.5 151.5q211 0 318.5 -150.5t107.5 -406.5zM197 627h618q-41 358 -307 360q-78 0 -139.5 -36 t-97 -91t-55 -115.5t-19.5 -117.5zM610 1466h158l-281 -282h-104z" />
<glyph unicode="&#xea;" horiz-adv-x="1024" d="M938 528h-741q0 -197 85 -323.5t257 -126.5q102 0 166.5 44t144.5 171l100 -53q-88 -143 -180 -201.5t-242 -58.5q-215 0 -334.5 139t-119.5 413q0 250 118.5 401.5t319.5 151.5q211 0 318.5 -150.5t107.5 -406.5zM197 627h618q-41 358 -307 360q-78 0 -139.5 -36 t-97 -91t-55 -115.5t-19.5 -117.5zM582 1466l233 -282h-135l-168 207l-168 -207h-135l233 282h140z" />
<glyph unicode="&#xeb;" horiz-adv-x="1024" d="M938 528h-741q0 -197 85 -323.5t257 -126.5q102 0 166.5 44t144.5 171l100 -53q-88 -143 -180 -201.5t-242 -58.5q-215 0 -334.5 139t-119.5 413q0 250 118.5 401.5t319.5 151.5q211 0 318.5 -150.5t107.5 -406.5zM197 627h618q-41 358 -307 360q-78 0 -139.5 -36 t-97 -91t-55 -115.5t-19.5 -117.5zM285 1397h135v-193h-135v193zM604 1397h135v-193h-135v193z" />
<glyph unicode="&#xec;" horiz-adv-x="454" d="M289 1065v-1065h-123v1065h123zM-29 1466h158l227 -282h-104z" />
<glyph unicode="&#xed;" horiz-adv-x="454" d="M289 1065v-1065h-123v1065h123zM326 1466h157l-280 -282h-105z" />
<glyph unicode="&#xee;" horiz-adv-x="454" d="M289 1065v-1065h-123v1065h123zM297 1466l233 -282h-135l-168 207l-168 -207h-135l234 282h139z" />
<glyph unicode="&#xef;" horiz-adv-x="454" d="M289 1065v-1065h-123v1065h123zM0 1397h135v-193h-135v193zM319 1397h136v-193h-136v193z" />
<glyph unicode="&#xf0;" horiz-adv-x="1024" d="M512 987q-315 0 -315 -454.5t315 -454.5t315 454.5t-315 454.5zM356 1425l109 54q84 -55 143 -109l209 109l57 -82l-190 -101q266 -287 266 -764q0 -242 -103.5 -397t-334.5 -155t-334.5 155.5t-103.5 397t103.5 397t334.5 155.5q119 0 203 -45l4 4q-57 106 -139 199 l-209 -108l-58 82l191 100q-68 61 -148 108z" />
<glyph unicode="&#xf1;" d="M291 0h-123v1065h123v-168q94 98 175 143t189 45q315 0 316 -358v-727h-123v715q0 137 -49 204.5t-168 67.5q-23 0 -41.5 -2t-40 -10l-34.5 -12.5t-36 -19.5l-34 -22q-11 -7 -36 -30l-35 -31l-41 -37q-32 -29 -42 -39v-784zM311 1206h-78q6 76 56.5 137.5t124.5 61.5 q53 0 151 -45q102 -45 141 -45t63 29.5t30 70.5h78q-35 -199 -183 -198q-41 0 -147 47q-102 45 -139 45q-81 -1 -97 -103z" />
<glyph unicode="&#xf2;" horiz-adv-x="1024" d="M512 987q-315 0 -315 -454.5t315 -454.5t315 454.5t-315 454.5zM512 1085q231 0 334.5 -155.5t103.5 -397t-103.5 -397t-334.5 -155.5t-334.5 155.5t-103.5 397t103.5 397t334.5 155.5zM246 1466h157l228 -282h-105z" />
<glyph unicode="&#xf3;" horiz-adv-x="1024" d="M512 987q-315 0 -315 -454.5t315 -454.5t315 454.5t-315 454.5zM512 1085q231 0 334.5 -155.5t103.5 -397t-103.5 -397t-334.5 -155.5t-334.5 155.5t-103.5 397t103.5 397t334.5 155.5zM600 1466h158l-281 -282h-104z" />
<glyph unicode="&#xf4;" horiz-adv-x="1024" d="M512 987q-315 0 -315 -454.5t315 -454.5t315 454.5t-315 454.5zM512 1085q231 0 334.5 -155.5t103.5 -397t-103.5 -397t-334.5 -155.5t-334.5 155.5t-103.5 397t103.5 397t334.5 155.5zM571 1466l234 -282h-135l-168 207l-168 -207h-135l233 282h139z" />
<glyph unicode="&#xf5;" horiz-adv-x="1024" d="M512 987q-315 0 -315 -454.5t315 -454.5t315 454.5t-315 454.5zM512 1085q231 0 334.5 -155.5t103.5 -397t-103.5 -397t-334.5 -155.5t-334.5 155.5t-103.5 397t103.5 397t334.5 155.5zM258 1206h-78q6 76 56.5 137.5t123.5 61.5q53 0 152 -45q102 -45 141 -45t62.5 29.5 t29.5 70.5h78q-35 -199 -182 -198q-41 0 -147 47q-102 45 -140 45q-80 -1 -96 -103z" />
<glyph unicode="&#xf6;" horiz-adv-x="1024" d="M512 987q-315 0 -315 -454.5t315 -454.5t315 454.5t-315 454.5zM512 1085q231 0 334.5 -155.5t103.5 -397t-103.5 -397t-334.5 -155.5t-334.5 155.5t-103.5 397t103.5 397t334.5 155.5zM274 1397h136v-193h-136v193zM594 1397h135v-193h-135v193z" />
<glyph unicode="&#xf7;" horiz-adv-x="1228" d="M1147 477h-1065v111h1065v-111zM614.5 1094q47.5 0 82 -35t34.5 -82t-34.5 -82t-82 -35t-82 35t-34.5 82t34.5 82t82 35zM614.5 205q47.5 0 82 -35t34.5 -82t-34.5 -82t-82 -35t-82 35t-34.5 82t34.5 82t82 35z" />
<glyph unicode="&#xf8;" horiz-adv-x="1024" d="M262 217l436 709q-74 61 -186 61q-315 0 -315 -455q-1 -204 65 -315zM764 846l-436 -709q72 -59 184 -59q315 0 315 454q0 208 -63 314zM999 1229l-170 -277q121 -141 121 -420q0 -242 -103.5 -397t-334.5 -155q-145 0 -240 67l-129 -211h-114l168 275q-123 143 -123 421 q0 242 103.5 397.5t334.5 155.5q145 0 242 -67l129 211h116z" />
<glyph unicode="&#xf9;" d="M848 1065h123v-1065h-123v168q-94 -98 -175 -143t-190 -45q-315 0 -315 358v727h123v-715q0 -137 49 -204.5t168 -67.5q23 0 41 2t39.5 10t35 12t35.5 20l34 22q11 7 37 30l35 31l41 37q32 29 42 39v784zM313 1466h158l227 -282h-104z" />
<glyph unicode="&#xfa;" d="M848 1065h123v-1065h-123v168q-94 -98 -175 -143t-190 -45q-315 0 -315 358v727h123v-715q0 -137 49 -204.5t168 -67.5q23 0 41 2t39.5 10t35 12t35.5 20l34 22q11 7 37 30l35 31l41 37q32 29 42 39v784zM668 1466h157l-280 -282h-105z" />
<glyph unicode="&#xfb;" d="M848 1065h123v-1065h-123v168q-94 -98 -175 -143t-190 -45q-315 0 -315 358v727h123v-715q0 -137 49 -204.5t168 -67.5q23 0 41 2t39.5 10t35 12t35.5 20l34 22q11 7 37 30l35 31l41 37q32 29 42 39v784zM639 1466l233 -282h-135l-168 207l-168 -207h-135l234 282h139z " />
<glyph unicode="&#xfc;" d="M848 1065h123v-1065h-123v168q-94 -98 -175 -143t-190 -45q-315 0 -315 358v727h123v-715q0 -137 49 -204.5t168 -67.5q23 0 41 2t39.5 10t35 12t35.5 20l34 22q11 7 37 30l35 31l41 37q32 29 42 39v784zM342 1397h135v-193h-135v193zM662 1397h135v-193h-135v193z" />
<glyph unicode="&#xfd;" horiz-adv-x="909" d="M160 1065l293 -866h4l297 866h131l-398 -1141q-57 -164 -128.5 -232.5t-211.5 -68.5q-72 0 -114 12v101q2 0 48 -7.5t75 -7.5q72 0 135 71t104 224l-370 1049h135zM553 1466h158l-281 -282h-104z" />
<glyph unicode="&#xfe;" d="M188 -377v1856h123v-578h4q127 184 322 184q199 0 313.5 -163.5t114.5 -395.5q0 -270 -113.5 -408t-306.5 -138q-104 0 -178 36.5t-156 122.5v-516h-123zM311 793v-525q35 -63 126 -126.5t175 -63.5q164 0 247 123t83 348q0 180 -81 309t-230 129q-63 0 -122.5 -29.5 t-95.5 -62t-102 -102.5z" />
<glyph unicode="&#xff;" horiz-adv-x="909" d="M160 1065l293 -866h4l297 866h131l-398 -1141q-57 -164 -128.5 -232.5t-211.5 -68.5q-72 0 -114 12v101q2 0 48 -7.5t75 -7.5q72 0 135 71t104 224l-370 1049h135zM227 1397h135v-193h-135v193zM547 1397h135v-193h-135v193z" />
<glyph unicode="&#x152;" horiz-adv-x="2048" d="M1966 0h-827q-94 0 -203 -10q-164 -10 -178 -10q-340 0 -500 202.5t-160 556.5q0 328 173 544t487 216q84 0 196 -10q168 -10 176 -10h797v-111h-698v-545h500v-110h-500v-602h737v-111zM1094 295v889q0 205 -291 205q-281 0 -425.5 -174.5t-144.5 -475.5 q0 -319 137.5 -484t432.5 -165q291 0 291 205z" />
<glyph unicode="&#x153;" horiz-adv-x="1705" d="M197 532.5q0 -454.5 307 -454.5q147 0 221 117.5t74 337t-74 337t-221 117.5q-307 0 -307 -454.5zM1620 528h-698q0 -201 70.5 -325.5t228.5 -124.5q102 0 166.5 44t144.5 171l100 -53q-88 -143 -180 -201.5t-242 -58.5q-246 0 -358 233q-102 -233 -348 -233 q-225 0 -327.5 155.5t-102.5 397t102.5 397t327.5 155.5q254 0 352 -231q39 96 127 163.5t225 67.5q205 0 308.5 -149.5t103.5 -407.5zM922 627h575q-41 360 -291 360q-261 0 -284 -360z" />
<glyph unicode="&#x178;" d="M494 0v627l-453 852h152l364 -731l389 731h152l-469 -852v-627h-135zM342 1755h135v-192h-135v192zM662 1755h135v-192h-135v192z" />
<glyph unicode="&#x2c6;" horiz-adv-x="454" d="M297 1466l233 -282h-135l-168 207l-168 -207h-135l234 282h139z" />
<glyph unicode="&#x2dc;" horiz-adv-x="454" d="M-16 1206h-78q6 76 56 137.5t124 61.5q53 0 152 -45q102 -45 141 -45t62.5 29.5t29.5 70.5h78q-35 -199 -182 -198q-41 0 -148 47q-102 45 -139 45q-80 -1 -96 -103z" />
<glyph unicode="&#x2000;" horiz-adv-x="970" />
<glyph unicode="&#x2001;" horiz-adv-x="1943" />
<glyph unicode="&#x2002;" horiz-adv-x="970" />
<glyph unicode="&#x2003;" horiz-adv-x="1943" />
<glyph unicode="&#x2004;" horiz-adv-x="647" />
<glyph unicode="&#x2005;" horiz-adv-x="485" />
<glyph unicode="&#x2006;" horiz-adv-x="323" />
<glyph unicode="&#x2007;" horiz-adv-x="323" />
<glyph unicode="&#x2008;" horiz-adv-x="241" />
<glyph unicode="&#x2009;" horiz-adv-x="387" />
<glyph unicode="&#x200a;" horiz-adv-x="106" />
<glyph unicode="&#x2010;" horiz-adv-x="681" d="M596 477h-510v111h510v-111z" />
<glyph unicode="&#x2011;" horiz-adv-x="681" d="M596 477h-510v111h510v-111z" />
<glyph unicode="&#x2012;" horiz-adv-x="681" d="M596 477h-510v111h510v-111z" />
<glyph unicode="&#x2013;" horiz-adv-x="1024" d="M1024 487h-1024v91h1024v-91z" />
<glyph unicode="&#x2014;" horiz-adv-x="2048" d="M2048 578v-91h-2048v91h2048z" />
<glyph unicode="&#x2018;" horiz-adv-x="454" d="M299 1008h-176v184l129 307h80l-119 -307h86v-184z" />
<glyph unicode="&#x2019;" horiz-adv-x="454" d="M156 1479h176v-185l-129 -307h-80l119 307h-86v185z" />
<glyph unicode="&#x201a;" horiz-adv-x="454" d="M156 184h176v-184l-129 -307h-80l119 307h-86v184z" />
<glyph unicode="&#x201c;" horiz-adv-x="909" d="M375 1008h-176v184l129 307h80l-119 -307h86v-184zM717 1008h-176v184l129 307h80l-119 -307h86v-184z" />
<glyph unicode="&#x201d;" horiz-adv-x="909" d="M535 1479h176v-185l-129 -307h-80l119 307h-86v185zM193 1479h176v-185l-129 -307h-80l119 307h-86v185z" />
<glyph unicode="&#x201e;" horiz-adv-x="909" d="M535 184h176v-184l-129 -307h-80l119 307h-86v184zM193 184h176v-184l-129 -307h-80l119 307h-86v184z" />
<glyph unicode="&#x2022;" horiz-adv-x="1024" d="M141 739.5q0 153.5 107.5 261t261.5 107.5t262.5 -107.5t108.5 -261t-108.5 -262t-262.5 -108.5t-261.5 108.5t-107.5 262z" />
<glyph unicode="&#x2026;" horiz-adv-x="2048" d="M430 0h-176v184h176v-184zM1112 0h-176v184h176v-184zM1794 0h-176v184h176v-184z" />
<glyph unicode="&#x202f;" horiz-adv-x="387" />
<glyph unicode="&#x2039;" horiz-adv-x="681" d="M514 848l-254 -311l254 -320h-135l-248 320l248 311h135z" />
<glyph unicode="&#x203a;" horiz-adv-x="681" d="M168 217l254 311l-254 320h135l248 -320l-248 -311h-135z" />
<glyph unicode="&#x205f;" horiz-adv-x="485" />
<glyph unicode="&#x20ac;" d="M1090 1266l-50 -150q-53 115 -153.5 194t-218.5 79q-170 0 -265.5 -146.5t-103.5 -341.5h668l-33 -98h-639q-2 -25 -2 -76q0 -43 4 -125h567l-33 -98h-522q23 -174 118 -294t249 -120q225 0 364 221v-157q-133 -174 -366 -174q-150 0 -260.5 78.5t-164.5 191t-75 254.5 h-141l33 98h96q-4 78 -4 121q0 53 2 80h-127l35 98h98q20 262 151.5 430t354.5 168q131 0 241.5 -59t176.5 -174z" />
<glyph unicode="&#x2122;" horiz-adv-x="2027" d="M766 1479v-90h-272v-754h-103v754h-280v90h655zM1092 1479l272 -672l264 672h174v-844h-102v754h-4l-305 -754h-62l-305 754h-4v-754h-102v844h174z" />
<glyph unicode="&#xe000;" horiz-adv-x="1065" d="M0 1065h1065v-1065h-1065v1065z" />
<glyph unicode="&#xfb01;" horiz-adv-x="1024" d="M537 967h-218v-967h-122v967h-177v98h177v152q0 141 61 211.5t195 70.5q43 0 133 -16v-103q-66 20 -121 21q-74 0 -110 -40t-36 -130v-166h218v-98zM858 1065v-1065h-123v1065h123zM858 1298h-123v181h123v-181z" />
<glyph unicode="&#xfb02;" horiz-adv-x="1024" d="M537 967h-218v-967h-122v967h-177v98h177v152q0 141 61 211.5t195 70.5q43 0 133 -16v-103q-66 20 -121 21q-74 0 -110 -40t-36 -130v-166h218v-98zM735 0v1479h123v-1479h-123z" />
<glyph unicode="&#xfb03;" horiz-adv-x="1593" d="M1428 1065v-1065h-123v1065h123zM1428 1298h-123v181h123v-181zM1106 967h-218v-967h-122v967h-177v98h177v152q0 141 61 211.5t195 70.5q43 0 133 -16v-103q-66 20 -121 21q-74 0 -110 -40t-36 -130v-166h218v-98zM537 967h-218v-967h-122v967h-177v98h177v152 q0 141 61 211.5t195 70.5q43 0 133 -16v-103q-66 20 -121 21q-74 0 -110 -40t-36 -130v-166h218v-98z" />
<glyph unicode="&#xfb04;" horiz-adv-x="1593" d="M1305 0v1479h123v-1479h-123zM1106 967h-218v-967h-122v967h-177v98h177v152q0 141 61 211.5t195 70.5q43 0 133 -16v-103q-66 20 -121 21q-74 0 -110 -40t-36 -130v-166h218v-98zM537 967h-218v-967h-122v967h-177v98h177v152q0 141 61 211.5t195 70.5q43 0 133 -16 v-103q-66 20 -121 21q-74 0 -110 -40t-36 -130v-166h218v-98z" />
</font>
</defs>
</svg>
