<?xml version="1.0" standalone="no"?>
<!DOCTYPE svg PUBLIC "-//W3C//DTD SVG 1.1//EN" "http://www.w3.org/Graphics/SVG/1.1/DTD/svg11.dtd" >
<svg xmlns="http://www.w3.org/2000/svg">
<metadata>
This is a custom SVG webfont generated by Font Squirrel.
Copyright   :  1989 1990 2002 Adobe Systems Incorporated All rights reserved  1981 2002 Heidelberger Druckmaschinen AG All rights reserved
Designer    : Jackson Burke
Foundry URL : httpwwwadobecomtype
</metadata>
<defs>
<font id="webfontURerQi41" horiz-adv-x="1251" >
<font-face units-per-em="2048" ascent="1479" descent="-569" />
<missing-glyph horiz-adv-x="624" />
<glyph unicode=" "  horiz-adv-x="624" />
<glyph unicode="&#x09;" horiz-adv-x="624" />
<glyph unicode="&#xa0;" horiz-adv-x="624" />
<glyph unicode="!" horiz-adv-x="681" d="M819 1479l-270 -979h-197l164 979h303zM481 0h-282l63 291h283z" />
<glyph unicode="&#x22;" horiz-adv-x="681" d="M608 922l123 557h230l-123 -557h-230zM254 922l123 557h229l-123 -557h-229z" />
<glyph unicode="#" d="M1202 616l-41 -184h-190l-154 -432h-192l151 432h-196l-154 -432h-193l152 432h-164l41 184h191l88 246h-164l41 185h188l154 432h192l-151 -432h196l154 432h192l-151 -432h164l-41 -185h-189l-88 -246h164zM932 862h-197l-88 -246h197z" />
<glyph unicode="$" d="M823 604l-88 -399q94 0 169 43t95 143q35 156 -176 213zM739 905l82 369q-213 -14 -252 -195q-14 -68 25 -104.5t145 -69.5zM584 205l98 444q-180 43 -281.5 146.5t-64.5 265.5q43 197 194.5 305.5t335.5 112.5l33 147h152l-33 -147q221 -6 375 -203l-195 -158 q-55 70 -104.5 107t-120.5 49l-90 -410q213 -68 301 -175t47 -292q-43 -190 -190.5 -288.5t-350.5 -108.5l-55 -246h-152l56 246q-287 31 -400 244l211 151q35 -84 90.5 -127t143.5 -63z" />
<glyph unicode="%" horiz-adv-x="1820" d="M766 1479q154 0 237.5 -108.5t49 -260.5t-165.5 -260.5t-284.5 -108.5t-237.5 108.5t-49.5 260.5t165.5 260.5t285 108.5zM721 1278q-68 0 -128.5 -50t-76.5 -118q-14 -68 25 -118t106.5 -50t129 50t75.5 118q16 66 -22.5 117t-108.5 51zM1546.5 737 q153.5 0 237.5 -108.5t49 -260t-166 -260t-284.5 -108.5t-237.5 108.5t-49.5 260t166 260t285 108.5zM1501.5 537q-67.5 0 -129 -50.5t-76.5 -117.5q-16 -66 23 -117t108 -51q68 0 128.5 50t76.5 118q14 68 -24.5 118t-106 50zM399 -20l1186 1519h174l-1186 -1519h-174z" />
<glyph unicode="&#x26;" horiz-adv-x="1366" d="M700 1174q-27 -121 25 -240q201 127 229 246q14 66 -9 108.5t-85 42.5q-47 0 -95.5 -42.5t-64.5 -114.5zM1208 741l213 -61q-143 -238 -262 -363q88 -98 187 -100l-52 -237q-109 0 -171 28.5t-162 126.5q-186 -156 -410 -155q-217 0 -321.5 108.5t-57.5 321.5 q29 127 112 218t220 171q-45 96 -55.5 167.5t10.5 188.5q35 156 160.5 250t289.5 94q147 0 229.5 -95t51.5 -235q-14 -68 -50 -127t-98.5 -114.5t-103.5 -84.5l-125 -87q90 -176 195 -293q116 128 200 278zM442 422q-18 -82 33 -143.5t137 -61.5q117 0 215 82 q-139 131 -223 317q-53 -37 -76.5 -56t-49.5 -56t-36 -82z" />
<glyph unicode="'" horiz-adv-x="454" d="M317 922l123 557h230l-123 -557h-230z" />
<glyph unicode="(" horiz-adv-x="681" d="M713 1499h248q-383 -387 -482 -835q-102 -451 111 -836h-248q-47 113 -74.5 200t-43 188t-9.5 211t35 237q55 244 160.5 425t302.5 410z" />
<glyph unicode=")" horiz-adv-x="681" d="M262 -172h-248q381 381 484 836q100 457 -113 835h248q47 -113 74.5 -200t44 -188t10.5 -210.5t-35 -236.5q-55 -244 -161.5 -426.5t-303.5 -409.5z" />
<glyph unicode="*" horiz-adv-x="1024" d="M721 1171l10 11l2 297h203l-119 -299l8 -11l295 152l21 -184l-310 -47l170 -218l-176 -118l-77 272l-15 -2l-190 -268l-129 108l264 215l-2 13l-291 36l94 183z" />
<glyph unicode="+" horiz-adv-x="1228" d="M868 643h422l-49 -221h-422l-94 -422h-221l94 422h-422l49 221h422l92 422h222z" />
<glyph unicode="," horiz-adv-x="624" d="M121 -307l172 307h-123l63 291h283l-63 -291l-199 -307h-133z" />
<glyph unicode="-" horiz-adv-x="681" d="M686 422h-502l49 221h502z" />
<glyph unicode="." horiz-adv-x="624" d="M453 0h-283l63 291h283z" />
<glyph unicode="/" horiz-adv-x="569" d="M958 1499l-796 -1519h-223l796 1519h223z" />
<glyph unicode="0" d="M250 739q37 164 96.5 298t144 239.5t203.5 164t262 58.5q188 0 291 -102.5t113 -271.5t-33 -386q-37 -164 -96.5 -298t-144.5 -239.5t-203.5 -163.5t-261.5 -58q-188 0 -291 102t-113 271t33 386zM516 739.5q-121 -538.5 154 -538.5q270 0 391 538.5t-154 538.5 q-270 0 -391 -538.5z" />
<glyph unicode="1" d="M1022 0h-723l45 205h229l228 1020h-262l36 172q229 10 345 102h206l-286 -1294h227z" />
<glyph unicode="2" d="M1110 0h-995l53 244q27 63 125 147t222 168l246 170q122 86 213 177t107 167q20 96 -25.5 150.5t-148.5 54.5q-207 0 -317 -234l-225 52q59 172 229 287.5t367 115.5q205 0 318.5 -113.5t68.5 -312.5q-18 -88 -64.5 -166t-102 -137t-143.5 -129t-167 -123l-198 -136 l-212 -153h700z" />
<glyph unicode="3" d="M547 674l49 221q188 0 302 43t140 164q18 80 -31 128t-143 48q-141 0 -315 -148l-139 160q244 209 495 209q213 0 329 -100.5t75 -280.5q-49 -223 -295 -319q123 -41 172 -138.5t18 -236.5q-49 -217 -228 -330.5t-394 -113.5q-164 0 -290 74.5t-169 211.5l239 121 q70 -186 271 -186q104 0 193 60.5t112 162.5q14 70 -5.5 119t-56 73.5t-102 39t-111.5 16.5t-116 2z" />
<glyph unicode="4" d="M375 545h461l145 659h-4zM125 340l57 260l826 879h288l-206 -934h208l-45 -205h-209l-75 -340h-254l76 340h-666z" />
<glyph unicode="5" d="M334 692l229 787h799l-51 -230h-598l-95 -336q100 86 295 86q193 0 285 -150.5t49 -340.5q-55 -248 -227 -388t-434 -140q-170 0 -276.5 73.5t-141.5 202.5l246 115q16 -76 80.5 -121t144.5 -47q135 -4 222 79t120 226q25 117 -26.5 193.5t-166.5 76.5q-154 0 -251 -127z " />
<glyph unicode="6" d="M987 457q29 125 -21.5 196.5t-172.5 71.5q-178 0 -304 -168q-39 -176 25 -266t182 -90q106 0 187 70.5t104 185.5zM1409 1389l-164 -213q-94 102 -227 102q-150 0 -286 -131t-181 -320q162 119 356 119q197 0 296.5 -134t53.5 -345q-53 -227 -227 -357t-403 -130 q-240 0 -347.5 172t-35.5 499q86 391 305 619.5t518 228.5q188 1 342 -110z" />
<glyph unicode="7" d="M395 1249l51 230h1014l-35 -154l-901 -1325h-293l875 1249h-711z" />
<glyph unicode="8" d="M1368 1130q-27 -123 -104.5 -201.5t-212.5 -142.5q268 -127 206 -405q-39 -178 -219 -289.5t-417.5 -111.5t-368.5 111.5t-92 289.5q61 276 387 405q-104 63 -148.5 142.5t-17.5 201.5q39 170 194.5 269.5t381 99.5t338 -100.5t73.5 -268.5zM665.5 184 q137.5 0 222.5 58.5t107 156.5q20 90 -79 179.5t-162.5 89.5t-182 -84t-141.5 -185q-23 -98 37.5 -156.5t198 -58.5zM909 1294q-223 0 -262 -168q-20 -92 45.5 -158.5t132.5 -66.5q61 0 160.5 75t116.5 150q18 78 -27 123t-166 45z" />
<glyph unicode="9" d="M567 1022q-29 -125 21.5 -196.5t173.5 -71.5q178 0 303 168q39 176 -24.5 266t-182.5 90q-106 0 -187 -70.5t-104 -185.5zM145 90l164 213q94 -102 228 -102q150 0 285.5 131t181.5 319q-162 -119 -357 -119q-197 0 -295 134.5t-53 345.5q51 227 225 357t404 130 q240 0 347 -172t36 -500q-86 -391 -305.5 -619t-518.5 -228q-188 -1 -342 110z" />
<glyph unicode=":" horiz-adv-x="624" d="M590 614h-283l64 291h282zM453 0h-283l63 291h283z" />
<glyph unicode=";" horiz-adv-x="624" d="M121 -307l172 307h-123l63 291h283l-63 -291l-199 -307h-133zM590 614h-283l64 291h282z" />
<glyph unicode="&#x3c;" horiz-adv-x="1228" d="M1194 211l-51 -227l-965 454l43 189l1165 454l-51 -227l-831 -322z" />
<glyph unicode="=" horiz-adv-x="1228" d="M1339 868l-49 -221h-1065l49 221h1065zM1239 418l-49 -221h-1065l49 221h1065z" />
<glyph unicode="&#x3e;" horiz-adv-x="1228" d="M78 -16l51 227l834 321l-693 322l52 227l964 -454l-43 -189z" />
<glyph unicode="?" horiz-adv-x="909" d="M629 498h-226l25 112q29 125 201 310l88 95q25 28 58.5 78t41.5 91q10 45 -21.5 77.5t-82.5 32.5q-68 0 -126.5 -54t-82.5 -126l-221 66q72 154 199.5 236.5t291.5 82.5q158 0 246 -87t53 -241q-14 -63 -52 -123.5t-72 -97.5t-93 -92l-96 -91q-29 -28 -66 -84t-49 -110z M551 0h-283l64 291h282z" />
<glyph unicode="@" horiz-adv-x="1638" d="M893 510q94 0 173 74.5t99 171.5q16 74 -17.5 121t-103.5 47q-92 0 -167.5 -71t-98.5 -171q-16 -76 13.5 -124t101.5 -48zM1278 1008l45 102h180l-211 -500q-27 -68 -28 -73q-10 -45 18 -45q76 0 158 89t116 242q53 240 -63.5 372t-351.5 132q-248 0 -436.5 -167 t-243.5 -423q-59 -266 66.5 -425.5t383.5 -159.5q227 0 426 143h185q-287 -315 -664 -315q-209 0 -363.5 97t-220 271t-18.5 389q72 322 342 542t586 220q178 0 318 -74.5t209 -218t28 -325.5q-29 -127 -92.5 -232.5t-138 -169t-156.5 -107.5t-144.5 -61.5t-103.5 -17.5 q-45 0 -70.5 27.5t-15.5 76.5l-4 2q-115 -106 -221 -106q-129 0 -203 107.5t-43 250.5q43 193 191.5 338.5t328.5 145.5q158 0 211 -127z" />
<glyph unicode="A" d="M895 1196l-315 -643h344l-25 643h-4zM27 0l753 1481h353l92 -1481h-281l-10 319h-467l-160 -319h-280z" />
<glyph unicode="B" horiz-adv-x="1366" d="M160 0l327 1479h549q231 0 341 -86q87 -68 87 -202q0 -35 -6 -75q-55 -248 -301 -336q135 -59 172 -142q18 -41 18.5 -103.5t-18.5 -145.5q-41 -180 -196.5 -284.5t-427.5 -104.5h-545zM588 659l-94 -430h282q236 0 283 215q8 36 8 66q0 149 -197 149h-282zM719 1249 l-80 -360h283q98 0 161.5 50t81.5 130q6 24 6 46q0 49 -29 84q-42 50 -141 50h-282z" />
<glyph unicode="C" d="M1417 1110l-268 -61q-25 213 -221 213q-143 0 -254 -133.5t-166 -389.5q-33 -145 -34 -249q0 -273 228 -273q98 0 173 46t165 173l248 -69q-219 -387 -637 -387q-283 0 -394 198q-65 116 -65 287q0 123 33 274q80 362 280 561t482 199q416 0 430 -389z" />
<glyph unicode="D" horiz-adv-x="1366" d="M160 0l327 1479h490q307 0 444 -182q86 -113 86 -303q0 -114 -30 -255q-86 -377 -303.5 -558t-524.5 -181h-489zM717 1241l-221 -1003h188q117 0 207 39.5t148.5 113.5t94 157t60.5 191q25 110 25 196q0 306 -314 306h-188z" />
<glyph unicode="E" d="M1174 0h-1002l328 1479h979l-54 -238h-696l-78 -352h506l-53 -238h-506l-90 -413h719z" />
<glyph unicode="F" horiz-adv-x="1138" d="M442 0h-282l327 1479h943l-54 -238h-659l-78 -352h494l-54 -238h-493z" />
<glyph unicode="G" horiz-adv-x="1366" d="M1462 1122l-276 -69q-27 113 -84.5 161t-165.5 48q-154 0 -264.5 -142.5t-167.5 -394.5q-25 -115 -25 -207q0 -95 27 -165q53 -136 199 -136q137 0 239.5 82t134.5 211h-280l53 238h553l-166 -748h-205l33 152q-109 -96 -205 -134t-217 -38q-289 0 -393 203 q-61 119 -61 282q0 115 30 252q33 152 93.5 284t153.5 247.5t232.5 183t309.5 67.5q211 0 323.5 -102.5t128.5 -274.5z" />
<glyph unicode="H" horiz-adv-x="1478" d="M455 0h-283l328 1479h282l-131 -590h570l131 590h282l-327 -1479h-283l141 635h-569z" />
<glyph unicode="I" horiz-adv-x="681" d="M481 0h-282l327 1479h283z" />
<glyph unicode="J" horiz-adv-x="909" d="M29 178l227 146q23 -59 51.5 -83t77.5 -24q117 0 158 176l239 1086h283l-240 -1080q-94 -420 -491 -419q-217 -1 -305 198z" />
<glyph unicode="K" horiz-adv-x="1366" d="M442 0h-282l327 1479h283l-145 -658l639 658h325l-542 -555l282 -924h-313l-211 702l-264 -258z" />
<glyph unicode="L" horiz-adv-x="1138" d="M1085 0h-925l327 1479h283l-274 -1241h643z" />
<glyph unicode="M" horiz-adv-x="1705" d="M412 0h-246l328 1479h397l55 -1033h4l516 1033h402l-328 -1479h-246l258 1163h-4l-590 -1163h-215l-69 1163h-4z" />
<glyph unicode="N" horiz-adv-x="1478" d="M432 0h-266l328 1479h294l359 -1008h4l223 1008h266l-327 -1479h-273l-370 1053h-4z" />
<glyph unicode="O" horiz-adv-x="1366" d="M1184 739q29 133 29 232q0 290 -250 291q-340 0 -455 -523q-32 -136 -32 -237q0 -285 253 -285q340 0 455 522zM1466 739q-80 -365 -283.5 -562t-504.5 -197t-417 197q-68 117 -68 292q0 121 32 270q80 365 284 562.5t505 197.5t417 -197q68 -117 68 -293 q0 -121 -33 -270z" />
<glyph unicode="P" d="M422 0h-283l328 1479h541q248 0 361 -109q78 -75 78 -204q0 -58 -15 -128q-49 -223 -210 -331.5t-409 -108.5h-258zM698 1249l-92 -422h225q152 0 223.5 53.5t94.5 157.5q8 35 8 64q0 58 -33 94q-49 53 -200 53h-226z" />
<glyph unicode="Q" horiz-adv-x="1366" d="M770 395l55 252q102 -10 162 -56t100 -132q57 104 97 280q29 133 29 232q0 290 -250 291q-340 0 -455 -523q-32 -136 -32 -237q0 -285 253 -285q106 0 189 49q-50 109 -148 129zM1370 127l-53 -238q-135 0 -185.5 29t-123.5 135q-147 -74 -330 -73q-301 0 -417 197 q-68 117 -68 292q0 121 32 270q80 365 284 562.5t505 197.5t417 -197q68 -117 68 -293q0 -121 -33 -270q-76 -344 -268 -544q68 -66 172 -68z" />
<glyph unicode="R" horiz-adv-x="1366" d="M442 0h-282l327 1479h590q240 0 329 -121q61 -83 61 -201q0 -54 -13 -117q-31 -139 -123 -241.5t-233 -139.5l180 -659h-313l-146 602h-244zM719 1249l-92 -418h209q160 0 235.5 50.5t99.5 158.5q7 33 8 61q0 148 -202 148h-258z" />
<glyph unicode="S" d="M1374 1165l-276 -80q-12 90 -68.5 141.5t-152.5 51.5q-211 0 -246 -164q-3 -14 -3 -26q0 -53 54 -95q68 -51 170 -92t202.5 -92t157.5 -146q38 -63 39 -144q0 -40 -10 -85q-49 -225 -209 -339.5t-409 -114.5q-184 0 -316.5 95t-159.5 255l256 102q31 -113 92.5 -172 t178.5 -59q248 0 293 196q3 16 3 32q0 49 -34 89q-45 53 -122 86t-166 76t-163.5 89t-112.5 128q-24 51 -24 112q0 36 8 76q43 190 206 302t364 112q180 0 298.5 -87t149.5 -247z" />
<glyph unicode="T" horiz-adv-x="1138" d="M369 1481h1056l-51 -238h-387l-276 -1243h-283l277 1243h-388z" />
<glyph unicode="U" horiz-adv-x="1478" d="M1145 541l207 938h282l-204 -926q-35 -156 -106 -270.5t-166 -179t-199.5 -94t-223.5 -29.5t-210 28.5t-159.5 96t-84.5 177.5q-6 38 -6 82q0 83 20 189l205 926h282l-207 -938q-17 -76 -16 -133q0 -75 29 -117q51 -74 198.5 -74t233.5 74t125 250z" />
<glyph unicode="V" horiz-adv-x="1138" d="M412 0l-64 1479h279l20 -1090h4l516 1090h279l-719 -1479h-315z" />
<glyph unicode="W" horiz-adv-x="1705" d="M350 0l19 1479h264l-35 -998h4l432 998h291l-27 -998h5l423 998h265l-635 -1479h-287l18 1053h-4l-446 -1053h-287z" />
<glyph unicode="X" horiz-adv-x="1138" d="M584 758l-215 721h307l121 -457l321 457h307l-534 -721l231 -758h-307l-135 502l-356 -502h-308z" />
<glyph unicode="Y" horiz-adv-x="1138" d="M643 1479l125 -586l383 586h295l-604 -889l-131 -590h-283l131 590l-211 889h295z" />
<glyph unicode="Z" horiz-adv-x="1138" d="M1139 238l-54 -238h-1052l53 240l911 1001h-643l54 238h999l-49 -226l-940 -1015h721z" />
<glyph unicode="[" horiz-adv-x="681" d="M555 -152h-481l360 1631h477l-26 -123h-256l-307 -1385h260z" />
<glyph unicode="\" horiz-adv-x="569" d="M399 -20l-125 1519h224l125 -1519h-224z" />
<glyph unicode="]" horiz-adv-x="681" d="M543 -152h-482l27 123h260l307 1385h-256l27 123h477z" />
<glyph unicode="^" horiz-adv-x="1228" d="M524 711h-223l539 768h204l199 -768h-225l-127 538z" />
<glyph unicode="_" horiz-adv-x="1024" d="M967 -256h-1024l22 102h1024z" />
<glyph unicode="`" horiz-adv-x="569" d="M274 1499h316l127 -299h-209z" />
<glyph unicode="a" horiz-adv-x="1024" d="M922 0h-248l4 92q-193 -113 -356 -112q-137 0 -195 82q-40 58 -40 133q0 32 7 67q41 180 212 280.5t493 137.5l18 90q4 17 4 32q0 37 -25 61q-36 34 -106 34q-139 0 -262 -131l-137 125q70 84 197 140q124 54 235 55q4 0 8 -1q219 -4 294 -99q44 -56 44 -159 q0 -74 -22 -172l-111 -501q-17 -69 -17 -120q1 -18 3 -34zM709 281l51 229q-90 -16 -136 -27.5t-115 -36t-104.5 -62.5t-48.5 -91q-5 -21 -5 -38q0 -33 18 -54q27 -33 82 -33q98 0 258 113z" />
<glyph unicode="b" horiz-adv-x="1138" d="M131 0l328 1479h254l-113 -512h4q47 49 132 83.5t151 34.5q195 0 275 -156q52 -101 52 -224q0 -69 -16 -144q-57 -258 -203.5 -419.5t-351.5 -161.5q-150 0 -260 135l-53 -115h-199zM561 791l-115 -512q8 -6 31 -31t35 -34t42 -19.5t69 -10.5q115 0 195.5 90.5 t119.5 257.5q17 78 17 140q0 70 -22 119q-42 90 -157 90q-98 0 -215 -90z" />
<glyph unicode="c" horiz-adv-x="1024" d="M1110 801l-229 -82q-18 80 -54 121t-120 41q-209 0 -285 -349q-22 -98 -23 -167q0 -57 16 -96q34 -85 146 -85q133 0 262 170l170 -108q-109 -141 -223 -205q-111 -62 -253 -62q-5 0 -9 1q-215 0 -306 149q-56 92 -56 223q0 82 22 180q55 254 212 403.5t372 149.5 q152 0 248 -75.5t110 -208.5z" />
<glyph unicode="d" horiz-adv-x="1138" d="M1335 1479l-327 -1479h-215l12 115q-166 -135 -318 -135q-205 0 -279 161q-42 92 -42 214q0 94 24 206q45 211 196 367.5t345 156.5q66 0 136.5 -34.5t97.5 -83.5h4l112 512h254zM815 279l115 512q-78 90 -178 90q-115 0 -196 -90.5t-118 -258.5q-19 -81 -18 -143 q0 -68 21 -115q42 -90 157 -90q39 0 74 10.5t50 19.5t50 34z" />
<glyph unicode="e" horiz-adv-x="1024" d="M451 664h409q7 37 7 68q0 63 -27 104q-41 61 -133.5 61t-160.5 -61t-95 -172zM1055 492h-643q-14 -66 -14 -119q0 -71 26 -114q45 -75 141 -75q82 0 138.5 31t127.5 96l158 -114q-188 -217 -493 -217q-207 0 -296 149q-54 91 -55 221q0 83 23 182q55 254 212 403.5 t372 149.5h5q196 0 280 -142q56 -96 57 -217q0 -62 -15 -130z" />
<glyph unicode="f" horiz-adv-x="681" d="M831 860h-215l-190 -860h-254l190 860h-147l45 205h146l28 131q37 168 123 235.5t246 67.5h168l-45 -205h-70q-80 0 -117 -26.5t-51 -87.5l-26 -115h215z" />
<glyph unicode="g" horiz-adv-x="1024" d="M442 20q-92 0 -144 -38.5t-62 -83.5q-3 -13 -3 -24q0 -45 46 -68q57 -28 213 -27q109 0 173 40t72 79q6 29 -15.5 54t-93 46.5t-186.5 21.5zM819 721q5 21 5 41q0 48 -28 84q-40 51 -112 51q-80 0 -143.5 -50t-79.5 -126q-5 -21 -5 -40q0 -48 29 -85q41 -51 121 -51 q72 0 134.5 51t78.5 125zM1239 1085l-37 -172q-125 0 -170 -24q26 -51 26 -112q0 -36 -9 -77q-35 -156 -159 -250t-319 -94q-100 0 -152 -12t-63 -53q-1 -6 -1 -11q0 -31 41 -47q48 -18 126 -18t166 -11t162 -31.5t112 -83.5q24 -39 23 -93q0 -32 -8 -70 q-27 -127 -176.5 -221t-386.5 -94q-221 0 -334 65q-91 53 -91 144q0 21 5 45q23 94 92.5 145t144.5 51v5q-6 4 -38.5 22t-48 32.5t-28.5 45.5q-8 17 -8 38q0 16 5 34q14 68 84.5 124t124.5 70q-104 104 -104 220q0 31 7 63q35 152 170 261t332 109q70 0 137.5 -25.5 t104.5 -68.5q91 95 250 95q10 -1 20 -1z" />
<glyph unicode="h" horiz-adv-x="1138" d="M385 0h-254l328 1479h254l-117 -529q190 135 336 135q156 0 215 -94q37 -58 37 -144q0 -54 -15 -118l-161 -729h-254l153 692q11 52 11.5 89t-11.5 58q-23 42 -90 42q-139 0 -262 -113z" />
<glyph unicode="i" horiz-adv-x="569" d="M647 1065l-235 -1065h-254l235 1065h254zM692 1262h-254l51 237h254z" />
<glyph unicode="j" horiz-adv-x="569" d="M-76 -373l45 207q80 -6 82 -6q47 0 77 28.5t48 102.5l244 1106h254l-254 -1147q-35 -162 -122 -234.5t-245 -72.5q-70 0 -129 16zM719 1262h-254l51 237h254z" />
<glyph unicode="k" horiz-adv-x="1024" d="M385 0h-254l328 1479h254l-183 -826h9l403 412h291l-402 -397l189 -668h-270l-129 477l-164 -149z" />
<glyph unicode="l" horiz-adv-x="569" d="M412 0h-254l327 1479h254z" />
<glyph unicode="m" horiz-adv-x="1705" d="M385 0h-254l236 1065h231l-25 -115q94 72 170 103.5t179 31.5q86 0 148.5 -40.5t80.5 -114.5q188 156 399 155q102 0 166 -73q40 -47 40 -133q0 -50 -13 -113l-170 -766h-254l164 743q6 26 6 47q0 86 -103 91q-88 0 -237 -115l-170 -766h-254l164 743q6 26 6 47 q0 86 -102 91q-88 0 -238 -115z" />
<glyph unicode="n" horiz-adv-x="1138" d="M385 0h-254l236 1065h233l-25 -115q223 135 357 135q156 0 215 -94q37 -58 37 -144q0 -54 -15 -118l-161 -729h-254l153 692q11 52 11.5 89t-11.5 58q-23 42 -90 42q-139 0 -262 -113z" />
<glyph unicode="o" horiz-adv-x="1024" d="M840 532q20 93 20 161q0 187 -153 188q-209 0 -285 -349q-21 -95 -21 -163q0 -185 152 -185q209 0 287 348zM168 532q55 254 212 403.5t372 149.5t306 -149q57 -93 57 -227q0 -81 -21 -177q-57 -254 -214 -403t-372 -149t-306 149q-56 92 -56 223q0 82 22 180z" />
<glyph unicode="p" horiz-adv-x="1138" d="M45 -389l322 1454h243l-20 -98q145 119 297 118q205 0 279 -160q43 -92 43 -218q0 -93 -23 -203q-47 -211 -197.5 -367.5t-345.5 -156.5q-66 0 -136.5 34.5t-94.5 83.5h-4l-109 -487h-254zM559 786l-113 -512q78 -90 177 -90q115 0 195.5 90.5t119.5 257.5q17 78 17 140 q0 70 -22 119q-42 90 -157 90q-39 0 -72.5 -10.5t-51 -20.5t-49.5 -33z" />
<glyph unicode="q" horiz-adv-x="1138" d="M1243 1065l-321 -1454h-254l108 487h-4q-49 -49 -134 -83.5t-151 -34.5q-131 0 -215 77.5t-101 194.5q-7 48 -7 100q0 73 14 152q55 258 201.5 419.5t351.5 161.5q150 0 260 -135l53 115h199zM815 274l113 512l-29 30q-25 26 -36 34t-41.5 19.5t-69.5 11.5 q-115 0 -196 -90.5t-118 -258.5q-19 -81 -18 -143q0 -68 21 -115q42 -90 157 -90q100 0 217 90z" />
<glyph unicode="r" horiz-adv-x="681" d="M369 0h-254l235 1065h234l-39 -182h4q137 197 342 202l-60 -268q-10 2 -43 2q-84 0 -176 -70.5t-100 -101.5z" />
<glyph unicode="s" horiz-adv-x="909" d="M1014 924l-191 -140q-80 113 -174 113q-141 0 -166 -104q-2 -9 -2 -17q0 -38 39 -66q47 -34 119 -59.5t142.5 -60.5t109.5 -109q24 -45 24 -103q0 -37 -10 -79q-35 -160 -159.5 -239.5t-301.5 -79.5q-258 0 -356 215l199 127q78 -154 213 -154q68 0 117 34t61 87 q2 9 2 17q0 38 -39 67q-47 35 -118.5 61.5t-142.5 61t-110 106.5q-25 45 -24 103q0 33 8 71q33 143 153.5 226t266.5 83q111 0 201 -40.5t139 -120.5z" />
<glyph unicode="t" horiz-adv-x="681" d="M260 1065h148l77 352h254l-77 -352h208l-45 -205h-209l-133 -602q-8 -41 9.5 -57.5t66.5 -16.5q23 0 121 21l-45 -209q-143 -16 -205 -16q-218 0 -218 169q0 34 9 76l141 635h-147z" />
<glyph unicode="u" horiz-adv-x="1138" d="M989 1065h254l-235 -1065h-234l25 115q-223 -135 -357 -135q-156 0 -215 94q-37 58 -36 144q0 54 14 118l162 729h254l-154 -692q-11 -52 -11 -89t11 -58q23 -42 90 -42q139 0 262 113z" />
<glyph unicode="v" horiz-adv-x="909" d="M317 0l-61 1065h254l16 -721h4l340 721h254l-540 -1065h-267z" />
<glyph unicode="w" horiz-adv-x="1366" d="M295 0l-39 1065h242l-2 -664h4l301 664h235v-664h4l299 664h242l-510 -1065h-229l-11 664h-4l-303 -664h-229z" />
<glyph unicode="x" horiz-adv-x="909" d="M8 0l436 553l-188 512h281l84 -295l217 295h274l-412 -512l201 -553h-270l-105 332l-245 -332h-273z" />
<glyph unicode="y" horiz-adv-x="909" d="M-63 -381l45 209q37 -8 104 -8q125 0 188 84q57 86 68 125q4 29 3 41t-4 42.5t-3 43.5l-84 909h256l31 -655h4l327 655h254l-571 -1067q-135 -227 -237.5 -307t-260.5 -80q-63 0 -120 8z" />
<glyph unicode="z" horiz-adv-x="909" d="M270 860l45 205h789l-39 -180l-664 -680h517l-46 -205h-835l41 180l663 680h-471z" />
<glyph unicode="{" horiz-adv-x="681" d="M150 602l26 123q63 0 111.5 37t62.5 96l88 397q27 121 112 182.5t204 61.5h145l-27 -123h-100q-41 0 -69.5 -29.5t-38.5 -72.5l-86 -389q-23 -100 -70 -149.5t-135 -69.5v-4q80 -20 104.5 -69.5t1.5 -150.5l-86 -389q-10 -43 6.5 -72.5t57.5 -29.5h100l-29 -123h-145 q-119 0 -176 61.5t-31 182.5l88 397q14 59 -18.5 96t-95.5 37z" />
<glyph unicode="|" horiz-adv-x="962" d="M551 1720h190v-2293h-190v2293z" />
<glyph unicode="}" horiz-adv-x="681" d="M825 725l-26 -123q-61 0 -109.5 -36t-62.5 -97l-88 -397q-27 -121 -113 -182.5t-205 -61.5h-145l28 123h101q41 0 69.5 29.5t38.5 72.5l86 389q23 100 70 149.5t135 70.5v4q-80 20 -104.5 69t-1.5 150l86 389q10 43 -6.5 72.5t-57.5 29.5h-100l26 123h146 q119 0 177 -61.5t32 -182.5l-88 -397q-14 -61 17.5 -97t94.5 -36z" />
<glyph unicode="~" horiz-adv-x="1228" d="M1174 717l30 -185q-53 -57 -87 -87.5t-94 -60.5t-126 -30q-33 0 -65.5 10.5t-51 19.5t-54.5 31.5t-50 30.5q-86 49 -172 50q-115 0 -211 -148l-31 184q125 176 293 177q82 0 220 -70t186 -70q39 0 79.5 24.5t65.5 50.5z" />
<glyph unicode="&#xa1;" horiz-adv-x="681" d="M109 -369l270 979h196l-163 -979h-303zM446 1110h283l-63 -291h-283z" />
<glyph unicode="&#xa2;" d="M530 258l357 614q-23 8 -62 9q-109 0 -188.5 -87t-116.5 -262q-41 -186 10 -274zM969 807l-355 -612q23 -10 66 -11q133 0 262 170l170 -108q-109 -141 -223.5 -205t-261.5 -61q-68 0 -127 16l-150 -252h-119l172 297q-94 63 -124.5 190t8.5 301q55 254 211.5 403.5 t371.5 149.5q72 0 134 -16l124 217h119l-151 -262q115 -72 133 -223l-230 -82q-12 47 -30 88z" />
<glyph unicode="&#xa3;" d="M944 643h-237q-53 -233 -134 -340q123 -86 224 -86q51 0 87 17.5t60.5 59.5t34.5 67.5t29 84.5h245q-45 -203 -161.5 -334.5t-284.5 -131.5q-137 0 -216 28.5t-173 97.5q-143 -133 -316 -126l56 253q106 8 168.5 93.5t87.5 197.5q12 63 18 119h-194l41 193h165 q8 147 31 256q45 199 182.5 303t358.5 104q203 0 294 -117.5t46 -318.5h-246q12 106 -21.5 160.5t-136.5 54.5q-168 0 -217 -213q-20 -94 -16 -229h266z" />
<glyph unicode="&#xa4;" d="M1411 1143l-131 -107q66 -137 29 -296.5t-160 -297.5l82 -106l-156 -131l-90 104q-154 -90 -311 -90q-162 0 -275 90l-135 -104l-98 131l131 106q-66 137 -29 297t160 297l-82 107l156 131l90 -105q154 90 311 91q162 0 275 -91l135 105zM501.5 739q-28.5 -131 33 -217 t186.5 -86t225.5 86t129 217t-33 217t-186.5 86t-225.5 -86t-129 -217z" />
<glyph unicode="&#xa5;" d="M834 414l-93 -414h-233l92 414h-369l43 192h361l-39 139h-291l43 193h195l-158 541h254l172 -635l457 635h254l-396 -541h193l-43 -193h-289l-102 -139h360l-43 -192h-368z" />
<glyph unicode="&#xa6;" horiz-adv-x="960" d="M551 1548h188v-803h-188v803zM551 401h188v-800h-188v800z" />
<glyph unicode="&#xa7;" horiz-adv-x="1024" d="M1126 1335l-165 -112q-66 109 -144 108q-41 0 -75.5 -24.5t-43.5 -61.5q-10 -45 28 -106.5t97.5 -126t116.5 -135t90 -154.5t17 -160q-18 -80 -86 -146.5t-187 -86.5q80 -111 51 -240q-29 -123 -129 -192.5t-225 -69.5q-176 0 -289 174l164 109q51 -115 146 -115 q121 0 143 102q10 51 -27 119t-97 136l-119 140q-58 71 -93 151.5t-20 150.5q20 98 99 164.5t177 72.5q-72 117 -45 230q25 109 115 173t211 64q109 0 170 -35t120 -129zM475 815q-10 -45 96 -190q113 -156 172 -156q39 0 69 22.5t40 59.5q4 23 -9.5 55.5t-29.5 56.5l-63 89 q-102 145 -168 145q-35 0 -67 -23.5t-40 -58.5z" />
<glyph unicode="&#xa8;" horiz-adv-x="569" d="M291 1458h246l-54 -237h-245zM680 1458h246l-54 -237h-245z" />
<glyph unicode="&#xa9;" horiz-adv-x="1638" d="M815 -20q-154 0 -284 51t-217 149.5t-119.5 239.5t6.5 319q78 344 353 552t597 208q154 0 284 -51t217 -149.5t119.5 -239.5t-6.5 -320q-78 -344 -353 -551.5t-597 -207.5zM1564.5 739.5q59.5 266.5 -71.5 439.5t-375 173q-246 0 -451.5 -172t-265 -440.5t70.5 -440.5 t376 -172q244 0 450.5 173t266 439.5zM1171 625h185q-57 -152 -179 -237t-259 -85q-190 0 -281.5 126t-48.5 316q43 195 186.5 319t335.5 124q141 0 221 -81t72 -230h-176q2 68 -42 99.5t-116 31.5q-98 0 -168 -70t-96 -188q-25 -115 16 -191t135 -76q168 1 215 142z" />
<glyph unicode="&#xaa;" horiz-adv-x="614" d="M776 848h-172l2 57q-109 -70 -223 -69q-88 0 -126 49t-21 121q25 109 132 168t308 81l10 48q8 33 -11.5 49t-64.5 16q-98 0 -166 -61l-88 75q43 51 126 85t157 32q143 -4 191.5 -60.5t17.5 -197.5l-66 -301q-14 -55 -6 -92zM623 1016l30 137q-51 -8 -79.5 -15.5 t-67.5 -21.5t-60.5 -36.5t-29.5 -55.5q-14 -57 55 -57q99 0 152 49z" />
<glyph unicode="&#xab;" horiz-adv-x="1138" d="M240 526l319 334h229l-325 -334l180 -321h-229zM657 526l320 334h229l-325 -334l180 -321h-230z" />
<glyph unicode="&#xac;" horiz-adv-x="1228" d="M969 197l100 450h-844l49 221h1065l-149 -671h-221z" />
<glyph unicode="&#xad;" horiz-adv-x="681" d="M686 422h-502l49 221h502z" />
<glyph unicode="&#xae;" horiz-adv-x="1638" d="M840 674l-78 -350h-180l184 833h313q172 0 244 -57.5t41 -194.5q-47 -209 -279 -221l138 -360h-183l-116 350h-84zM915 1018l-45 -205h158q135 0 160 111q12 53 -20.5 73.5t-102.5 20.5h-150zM815 -20q-154 0 -284 51t-217 149.5t-119.5 239.5t6.5 319q78 344 353 552 t597 208q154 0 284 -51t217 -149.5t119.5 -239.5t-6.5 -320q-78 -344 -353 -551.5t-597 -207.5zM1564.5 739.5q59.5 266.5 -71.5 439.5t-375 173q-246 0 -451.5 -172t-265 -440.5t70.5 -440.5t376 -172q244 0 450.5 173t266 439.5z" />
<glyph unicode="&#xaf;" horiz-adv-x="569" d="M920 1266h-709l33 151h708z" />
<glyph unicode="&#xb0;" horiz-adv-x="819" d="M612 913q-123 0 -188.5 85t-38.5 208t130 208t226 85t189.5 -85t40.5 -208q-29 -123 -132.5 -208t-226.5 -85zM516 1206q-16 -68 19.5 -119t103.5 -51t126 51.5t75 118.5q14 68 -22 119t-103.5 51t-126 -51t-72.5 -119z" />
<glyph unicode="&#xb1;" horiz-adv-x="1228" d="M680 795l59 270h222l-60 -270h422l-49 -222h-422l-59 -272h-222l60 272h-422l49 222h422zM82 0l49 221h1065l-49 -221h-1065z" />
<glyph unicode="&#xb2;" horiz-adv-x="749" d="M821 598h-647l33 147q20 45 110.5 113t186.5 126t181 127t95 120q29 121 -108 121q-135 0 -205 -138l-145 31q41 111 148.5 182.5t236.5 71.5q133 0 208.5 -68.5t49.5 -187.5q-14 -61 -48 -113.5t-93.5 -100.5t-113.5 -85l-145 -95q-90 -58 -153 -104h442z" />
<glyph unicode="&#xb3;" horiz-adv-x="749" d="M469 1004l29 135q246 0 270 112q10 43 -18.5 71t-87.5 30q-98 -2 -203 -88l-94 98q160 137 335 137q137 0 208 -59.5t46 -167.5q-31 -137 -186 -191v-4q164 -47 125 -223q-29 -129 -144.5 -198.5t-254.5 -69.5q-106 0 -187.5 48t-109.5 138l153 72q51 -111 178 -111 q66 0 120 36t69 97q8 39 -5.5 65.5t-36 40t-63.5 21.5t-69.5 9.5t-73.5 1.5z" />
<glyph unicode="&#xb4;" horiz-adv-x="569" d="M643 1499h315l-364 -299h-209z" />
<glyph unicode="&#xb5;" horiz-adv-x="1138" d="M989 1065h254l-235 -1065h-234l25 115q-223 -135 -357 -135q-25 0 -61 4l-82 -373h-254l322 1454h254l-154 -692q-23 -104 -0.5 -146.5t90.5 -42.5q139 0 262 113z" />
<glyph unicode="&#xb6;" horiz-adv-x="1269" d="M420 -139l198 895q-182 0 -273 96t-54 258q84 369 512 369h725l-39 -172h-150l-319 -1446h-209l319 1446h-182l-319 -1446h-209z" />
<glyph unicode="&#xb7;" horiz-adv-x="624" d="M586 532q-14 -66 -71.5 -110.5t-123.5 -44.5q-63 0 -98 45t-19 110q14 63 67.5 109.5t117.5 46.5q66 0 103.5 -46.5t23.5 -109.5z" />
<glyph unicode="&#xb8;" horiz-adv-x="569" d="M-49 -416l55 86q88 -33 154 -32q55 0 84.5 18t40.5 68q8 37 -12.5 50t-61.5 13q-27 0 -88 -12l-33 41l162 184h108l-116 -129q45 10 75 10q76 0 119 -40t27 -115q-20 -94 -111.5 -144.5t-191.5 -50.5q-90 0 -211 53z" />
<glyph unicode="&#xb9;" horiz-adv-x="749" d="M756 598h-469l28 135h138l131 590h-158l27 115q147 6 221 61h137l-170 -766h143z" />
<glyph unicode="&#xba;" horiz-adv-x="614" d="M688 1167q45 201 -78 201q-125 0 -170 -201q-41 -201 82 -200q125 -1 166 200zM264 1167.5q35 153.5 134.5 242.5t240.5 89q139 0 199.5 -89t25.5 -242.5t-134 -242.5t-238 -89q-141 0 -202 89t-26 242.5z" />
<glyph unicode="&#xbb;" horiz-adv-x="1138" d="M1135 539l-320 -334h-229l325 334l-180 321h230zM717 539l-320 -334h-229l326 334l-181 321h230z" />
<glyph unicode="&#xbc;" horiz-adv-x="1875" d="M1577 340l80 360h-4l-336 -360h260zM1130 205l39 172l506 512h211l-121 -549h129l-30 -135h-129l-45 -205h-189l45 205h-416zM428 -20l1182 1519h180l-1180 -1519h-182zM776 598h-469l29 135h137l131 590h-158l27 115q147 6 221 61h137l-169 -766h143z" />
<glyph unicode="&#xbd;" horiz-adv-x="1875" d="M395 -20l1182 1519h180l-1179 -1519h-183zM776 598h-469l29 135h137l131 590h-158l27 115q147 6 221 61h137l-169 -766h143zM1737 0h-647l32 147q20 45 110.5 113t187 126t181.5 127t97 120q25 121 -109 121q-137 0 -205 -138l-147 31q41 111 149.5 182.5t237.5 71.5 q133 0 208 -67.5t48 -188.5q-14 -61 -48 -113.5t-92.5 -100.5t-113.5 -85l-145 -95q-90 -58 -154 -104h442z" />
<glyph unicode="&#xbe;" horiz-adv-x="1875" d="M502 1004l28 135q246 0 271 112q10 43 -18.5 71t-88.5 30q-98 -2 -202 -88l-95 98q160 137 336 137q137 0 208 -59.5t46 -167.5q-31 -137 -186 -191v-4q164 -47 125 -223q-29 -129 -144.5 -198.5t-255.5 -69.5q-106 0 -187 48t-110 138l154 72q51 -111 178 -111 q66 0 120 36t69 97q8 39 -5.5 65.5t-36 40t-63.5 21.5t-69.5 9.5t-73.5 1.5zM457 -20l1181 1519h181l-1180 -1519h-182zM1130 205l39 172l506 512h211l-121 -549h129l-30 -135h-129l-45 -205h-189l45 205h-416zM1577 340l80 360h-4l-336 -360h260z" />
<glyph unicode="&#xbf;" horiz-adv-x="909" d="M526 612h226l-25 -112q-29 -127 -199 -310q-6 -6 -25.5 -27.5t-25.5 -27.5t-23 -25l-25 -28l-21 -26l-21 -26l-16 -25q-10 -15 -16 -28l-10 -25q-5 -13 -7 -26q-10 -45 21.5 -77.5t82.5 -32.5q68 0 126.5 54t84.5 126l219 -66q-72 -152 -199.5 -235.5t-291.5 -83.5 q-158 0 -246 87t-53 241q14 63 52 123.5t72 97.5t93 92l96 91q29 28 66 84t49 110zM604 1110h283l-64 -291h-282z" />
<glyph unicode="&#xc0;" d="M895 1196l-315 -643h344l-25 643h-4zM27 0l753 1481h353l92 -1481h-281l-10 319h-467l-160 -319h-280zM696 1860h316l127 -299h-209z" />
<glyph unicode="&#xc1;" d="M895 1196l-315 -643h344l-25 643h-4zM27 0l753 1481h353l92 -1481h-281l-10 319h-467l-160 -319h-280zM1065 1860h315l-364 -299h-209z" />
<glyph unicode="&#xc2;" d="M895 1196l-315 -643h344l-25 643h-4zM27 0l753 1481h353l92 -1481h-281l-10 319h-467l-160 -319h-280zM909 1860h254l170 -299h-231l-92 168l-168 -168h-230z" />
<glyph unicode="&#xc3;" d="M895 1196l-315 -643h344l-25 643h-4zM27 0l753 1481h353l92 -1481h-281l-10 319h-467l-160 -319h-280zM1276 1839h133q-109 -250 -283 -250q-53 0 -149 36t-135 36q-66 0 -113 -84h-127q37 104 113 177t176 73q61 0 152.5 -38t117.5 -38q35 0 67 25.5t48 62.5z" />
<glyph unicode="&#xc4;" d="M895 1196l-315 -643h344l-25 643h-4zM27 0l753 1481h353l92 -1481h-281l-10 319h-467l-160 -319h-280zM713 1819h245l-53 -238h-246zM1102 1819h246l-54 -238h-245z" />
<glyph unicode="&#xc5;" d="M895 1196l-315 -643h344l-25 643h-4zM27 0l753 1481h353l92 -1481h-281l-10 319h-467l-160 -319h-280zM800.5 1780q20.5 92 99.5 156.5t171 64.5t142.5 -64.5t29.5 -156.5q-23 -92 -100.5 -156.5t-169.5 -64.5t-142.5 64.5t-30 156.5zM911 1780q-10 -45 14.5 -78 t71.5 -33q45 0 85 32t50.5 79t-15 78.5t-70.5 31.5q-47 0 -87.5 -32.5t-48.5 -77.5z" />
<glyph unicode="&#xc6;" horiz-adv-x="1933" d="M315 0h-301l1071 1479h1076l-54 -238h-620l-78 -352h430l-53 -238h-430l-90 -413h643l-54 -238h-925l76 346h-451zM725 584h334l153 690h-4z" />
<glyph unicode="&#xc7;" d="M1417 1110l-268 -61q-25 213 -221 213q-143 0 -253 -133.5t-167 -389.5q-117 -522 194 -522q98 0 173 46t165 173l248 -69q-203 -360 -583 -385l-101 -111q45 10 76 10q76 0 119 -40t26 -115q-20 -94 -111 -144.5t-192 -50.5q-90 0 -211 53l56 86q88 -33 153 -32 q55 0 85 18t40 68q8 37 -12.5 50t-61.5 13q-27 0 -88 -12l-32 41l145 166q-252 20 -349 216.5t-22 540.5q80 362 280 561t482 199q416 0 430 -389z" />
<glyph unicode="&#xc8;" d="M1174 0h-1002l328 1479h979l-54 -238h-696l-78 -352h506l-53 -238h-506l-90 -413h719zM735 1860h316l127 -299h-209z" />
<glyph unicode="&#xc9;" d="M1174 0h-1002l328 1479h979l-54 -238h-696l-78 -352h506l-53 -238h-506l-90 -413h719zM1104 1860h315l-364 -299h-209z" />
<glyph unicode="&#xca;" d="M1174 0h-1002l328 1479h979l-54 -238h-696l-78 -352h506l-53 -238h-506l-90 -413h719zM948 1860h254l170 -299h-231l-92 168l-168 -168h-230z" />
<glyph unicode="&#xcb;" d="M1174 0h-1002l328 1479h979l-54 -238h-696l-78 -352h506l-53 -238h-506l-90 -413h719zM752 1819h245l-53 -238h-246zM1141 1819h245l-53 -238h-246z" />
<glyph unicode="&#xcc;" horiz-adv-x="681" d="M481 0h-282l327 1479h283zM406 1860h315l127 -299h-209z" />
<glyph unicode="&#xcd;" horiz-adv-x="681" d="M481 0h-282l327 1479h283zM774 1860h316l-365 -299h-209z" />
<glyph unicode="&#xce;" horiz-adv-x="681" d="M481 0h-282l327 1479h283zM618 1860h254l170 -299h-231l-92 168l-168 -168h-229z" />
<glyph unicode="&#xcf;" horiz-adv-x="681" d="M481 0h-282l327 1479h283zM422 1819h246l-54 -238h-245zM811 1819h246l-53 -238h-246z" />
<glyph unicode="&#xd0;" horiz-adv-x="1366" d="M160 0l141 635h-137l55 254h137l131 590h490q307 0 444.5 -181.5t55.5 -558.5q-86 -377 -303.5 -558t-524.5 -181h-489zM717 1241l-78 -352h305l-55 -254h-305l-88 -397h188q117 0 207 39.5t148.5 113.5t94 157t60.5 191q113 502 -289 502h-188z" />
<glyph unicode="&#xd1;" horiz-adv-x="1478" d="M432 0h-266l328 1479h294l359 -1008h4l223 1008h266l-327 -1479h-273l-370 1053h-4zM1389 1839h133q-109 -250 -283 -250q-53 0 -149.5 36t-135.5 36q-66 0 -112 -84h-127q37 104 112.5 177t176.5 73q61 0 152 -38t118 -38q35 0 67 25.5t48 62.5z" />
<glyph unicode="&#xd2;" horiz-adv-x="1366" d="M1183.5 739.5q114.5 522.5 -220.5 522.5q-340 0 -455 -523q-121 -522 221 -522q340 0 454.5 522.5zM1466 739.5q-80 -364.5 -283.5 -562t-504.5 -197.5t-417 197.5t-36 562t284 562t505 197.5t416.5 -197.5t35.5 -562zM754 1860h315l127 -299h-209z" />
<glyph unicode="&#xd3;" horiz-adv-x="1366" d="M1183.5 739.5q114.5 522.5 -220.5 522.5q-340 0 -455 -523q-121 -522 221 -522q340 0 454.5 522.5zM1466 739.5q-80 -364.5 -283.5 -562t-504.5 -197.5t-417 197.5t-36 562t284 562t505 197.5t416.5 -197.5t35.5 -562zM1122 1860h316l-365 -299h-209z" />
<glyph unicode="&#xd4;" horiz-adv-x="1366" d="M1183.5 739.5q114.5 522.5 -220.5 522.5q-340 0 -455 -523q-121 -522 221 -522q340 0 454.5 522.5zM1466 739.5q-80 -364.5 -283.5 -562t-504.5 -197.5t-417 197.5t-36 562t284 562t505 197.5t416.5 -197.5t35.5 -562zM967 1860h254l170 -299h-232l-92 168l-168 -168 h-229z" />
<glyph unicode="&#xd5;" horiz-adv-x="1366" d="M1183.5 739.5q114.5 522.5 -220.5 522.5q-340 0 -455 -523q-121 -522 221 -522q340 0 454.5 522.5zM1466 739.5q-80 -364.5 -283.5 -562t-504.5 -197.5t-417 197.5t-36 562t284 562t505 197.5t416.5 -197.5t35.5 -562zM1333 1839h133q-109 -250 -282 -250 q-53 0 -149.5 36t-135.5 36q-66 0 -113 -84h-127q37 104 113 177t176 73q61 0 152.5 -38t118.5 -38q35 0 66.5 25.5t47.5 62.5z" />
<glyph unicode="&#xd6;" horiz-adv-x="1366" d="M1183.5 739.5q114.5 522.5 -220.5 522.5q-340 0 -455 -523q-121 -522 221 -522q340 0 454.5 522.5zM1466 739.5q-80 -364.5 -283.5 -562t-504.5 -197.5t-417 197.5t-36 562t284 562t505 197.5t416.5 -197.5t35.5 -562zM770 1819h246l-53 -238h-246zM1159 1819h246 l-53 -238h-246z" />
<glyph unicode="&#xd7;" horiz-adv-x="1228" d="M698 377l-458 -377l-123 160l458 375l-292 374l192 156l293 -373l457 373l123 -156l-457 -374l291 -375l-193 -160z" />
<glyph unicode="&#xd8;" horiz-adv-x="1366" d="M1210 1022l-661 -743q66 -61 180 -62q340 0 455 522q38 179 26 283zM477 463l660 741q-59 57 -174 58q-340 0 -455 -523q-39 -176 -31 -276zM1690 1561l-248 -279q102 -195 24 -543q-80 -365 -283.5 -562t-504.5 -197q-203 0 -318 88l-180 -203h-233l301 338 q-100 195 -23 536q80 365 284 562.5t505 197.5q195 0 311 -86l129 148h236z" />
<glyph unicode="&#xd9;" horiz-adv-x="1478" d="M1145 541l207 938h282l-204 -926q-35 -156 -106 -270.5t-166 -179t-199.5 -94t-223.5 -29.5t-210 28.5t-159.5 96t-85 177t14.5 271.5l205 926h282l-207 -938q-39 -176 12.5 -250t199 -74t233.5 74t125 250zM803 1860h315l127 -299h-209z" />
<glyph unicode="&#xda;" horiz-adv-x="1478" d="M1145 541l207 938h282l-204 -926q-35 -156 -106 -270.5t-166 -179t-199.5 -94t-223.5 -29.5t-210 28.5t-159.5 96t-85 177t14.5 271.5l205 926h282l-207 -938q-39 -176 12.5 -250t199 -74t233.5 74t125 250zM1171 1860h316l-365 -299h-209z" />
<glyph unicode="&#xdb;" horiz-adv-x="1478" d="M1145 541l207 938h282l-204 -926q-35 -156 -106 -270.5t-166 -179t-199.5 -94t-223.5 -29.5t-210 28.5t-159.5 96t-85 177t14.5 271.5l205 926h282l-207 -938q-39 -176 12.5 -250t199 -74t233.5 74t125 250zM1016 1860h254l170 -299h-232l-92 168l-168 -168h-229z" />
<glyph unicode="&#xdc;" horiz-adv-x="1478" d="M1145 541l207 938h282l-204 -926q-35 -156 -106 -270.5t-166 -179t-199.5 -94t-223.5 -29.5t-210 28.5t-159.5 96t-85 177t14.5 271.5l205 926h282l-207 -938q-39 -176 12.5 -250t199 -74t233.5 74t125 250zM819 1819h246l-53 -238h-246zM1208 1819h246l-53 -238h-246z " />
<glyph unicode="&#xdd;" horiz-adv-x="1138" d="M643 1479l125 -586l383 586h295l-604 -889l-131 -590h-283l131 590l-211 889h295zM1008 1860h315l-365 -299h-208z" />
<glyph unicode="&#xde;" d="M422 0h-283l328 1479h283l-60 -273h258q248 0 360.5 -108.5t63.5 -331.5t-211 -331.5t-409 -108.5h-258zM639 977l-94 -422h225q152 0 224.5 53.5t95 157.5t-25.5 157.5t-200 53.5h-225z" />
<glyph unicode="&#xdf;" horiz-adv-x="1024" d="M362 0h-253l249 1126q35 158 155 255.5t306 97.5q199 0 279 -95.5t43 -265.5q-25 -115 -75 -187.5t-148 -115.5v-4q106 -33 150 -134.5t5 -270.5q-51 -231 -168 -328.5t-293 -97.5q-35 0 -84 14t-71 35l102 180q39 -25 86 -25q125 0 176 234q61 270 -125 270h-53l47 205 h33q123 0 162 182q45 199 -107 199q-131 0 -168 -156z" />
<glyph unicode="&#xe0;" horiz-adv-x="1024" d="M922 0h-248l4 92q-193 -113 -356 -112q-137 0 -194.5 82.5t-33.5 199.5q41 180 212 280.5t493 137.5l18 90q14 59 -21.5 93t-105.5 34q-139 0 -262 -131l-137 125q70 84 197.5 140t242.5 54q219 -4 294 -99t22 -331l-111 -501q-22 -95 -14 -154zM709 281l51 229 q-90 -16 -136 -27.5t-115 -36t-104.5 -62.5t-48.5 -91q-14 -59 12.5 -92t82.5 -33q98 0 258 113zM502 1499h315l127 -299h-209z" />
<glyph unicode="&#xe1;" horiz-adv-x="1024" d="M922 0h-248l4 92q-193 -113 -356 -112q-137 0 -194.5 82.5t-33.5 199.5q41 180 212 280.5t493 137.5l18 90q14 59 -21.5 93t-105.5 34q-139 0 -262 -131l-137 125q70 84 197.5 140t242.5 54q219 -4 294 -99t22 -331l-111 -501q-22 -95 -14 -154zM709 281l51 229 q-90 -16 -136 -27.5t-115 -36t-104.5 -62.5t-48.5 -91q-14 -59 12.5 -92t82.5 -33q98 0 258 113zM870 1499h316l-365 -299h-209z" />
<glyph unicode="&#xe2;" horiz-adv-x="1024" d="M922 0h-248l4 92q-193 -113 -356 -112q-137 0 -194.5 82.5t-33.5 199.5q41 180 212 280.5t493 137.5l18 90q14 59 -21.5 93t-105.5 34q-139 0 -262 -131l-137 125q70 84 197.5 140t242.5 54q219 -4 294 -99t22 -331l-111 -501q-22 -95 -14 -154zM709 281l51 229 q-90 -16 -136 -27.5t-115 -36t-104.5 -62.5t-48.5 -91q-14 -59 12.5 -92t82.5 -33q98 0 258 113zM715 1499h254l170 -299h-232l-92 168l-168 -168h-229z" />
<glyph unicode="&#xe3;" horiz-adv-x="1024" d="M922 0h-248l4 92q-193 -113 -356 -112q-137 0 -194.5 82.5t-33.5 199.5q41 180 212 280.5t493 137.5l18 90q14 59 -21.5 93t-105.5 34q-139 0 -262 -131l-137 125q70 84 197.5 140t242.5 54q219 -4 294 -99t22 -331l-111 -501q-22 -95 -14 -154zM709 281l51 229 q-90 -16 -136 -27.5t-115 -36t-104.5 -62.5t-48.5 -91q-14 -59 12.5 -92t82.5 -33q98 0 258 113zM1081 1479h133q-109 -250 -282 -250q-53 0 -149.5 35.5t-135.5 35.5q-66 0 -112 -83h-127q37 104 112.5 176.5t175.5 72.5q61 0 152.5 -37.5t118.5 -37.5q35 0 66.5 25.5 t47.5 62.5z" />
<glyph unicode="&#xe4;" horiz-adv-x="1024" d="M922 0h-248l4 92q-193 -113 -356 -112q-137 0 -194.5 82.5t-33.5 199.5q41 180 212 280.5t493 137.5l18 90q14 59 -21.5 93t-105.5 34q-139 0 -262 -131l-137 125q70 84 197.5 140t242.5 54q219 -4 294 -99t22 -331l-111 -501q-22 -95 -14 -154zM709 281l51 229 q-90 -16 -136 -27.5t-115 -36t-104.5 -62.5t-48.5 -91q-14 -59 12.5 -92t82.5 -33q98 0 258 113zM518 1458h246l-53 -237h-246zM907 1458h246l-53 -237h-246z" />
<glyph unicode="&#xe5;" horiz-adv-x="1024" d="M922 0h-248l4 92q-193 -113 -356 -112q-137 0 -194.5 82.5t-33.5 199.5q41 180 212 280.5t493 137.5l18 90q14 59 -21.5 93t-105.5 34q-139 0 -262 -131l-137 125q70 84 197.5 140t242.5 54q219 -4 294 -99t22 -331l-111 -501q-22 -95 -14 -154zM709 281l51 229 q-90 -16 -136 -27.5t-115 -36t-104.5 -62.5t-48.5 -91q-14 -59 12.5 -92t82.5 -33q98 0 258 113zM606.5 1419q20.5 92 99 156.5t171 64.5t142.5 -64.5t30 -156.5q-23 -92 -101 -156.5t-170 -64.5t-142 64.5t-29.5 156.5zM717 1419q-10 -45 14.5 -77.5t71.5 -32.5 q45 0 85 31.5t50 78.5t-15.5 79t-70.5 32q-47 0 -87 -33t-48 -78z" />
<glyph unicode="&#xe6;" horiz-adv-x="1593" d="M717 281l51 229q-92 -16 -141 -27.5t-118 -36t-104.5 -62.5t-48.5 -91q-14 -59 12.5 -92t82.5 -33q86 0 266 113zM1036 664h414q20 111 -20.5 172t-133.5 61q-96 0 -164.5 -61t-95.5 -172zM1645 492h-648l-22 -107q-20 -90 29 -145.5t147 -55.5q84 0 141.5 31t128.5 96 l158 -114q-188 -217 -494 -217q-227 0 -297 165q-162 -100 -265 -132.5t-201 -32.5q-137 0 -194.5 82.5t-33.5 199.5q41 180 213 280.5t500 137.5l18 90q14 59 -25.5 93t-109.5 34q-139 0 -262 -131l-137 125q70 84 197.5 140t242.5 54q221 -6 285 -114q133 115 313 114 q209 2 297 -141t43 -348z" />
<glyph unicode="&#xe7;" horiz-adv-x="1024" d="M1110 801l-229 -82q-18 80 -54 121t-120 41q-209 0 -285 -349q-41 -178 -7 -263t146 -85q133 0 262 170l170 -108q-186 -244 -422 -264l-100 -111q45 10 76 10q76 0 119 -40t26 -115q-20 -94 -111.5 -144.5t-191.5 -50.5q-90 0 -211 53l55 86q88 -33 154 -32q55 0 85 18 t40 68q8 37 -12.5 50t-61.5 13q-27 0 -88 -12l-33 41l146 166q-193 16 -270.5 163.5t-24.5 386.5q55 254 212 403.5t372 149.5q152 0 248 -75.5t110 -208.5z" />
<glyph unicode="&#xe8;" horiz-adv-x="1024" d="M451 664h409q20 111 -20.5 172t-133 61t-160.5 -61t-95 -172zM1055 492h-643q-33 -158 12 -233t141 -75q82 0 138.5 31t127.5 96l158 -114q-188 -217 -493 -217q-207 0 -296 149.5t-32 402.5q55 254 212 403.5t372 149.5q201 2 285.5 -142t41.5 -347zM502 1499h315 l127 -299h-209z" />
<glyph unicode="&#xe9;" horiz-adv-x="1024" d="M451 664h409q20 111 -20.5 172t-133 61t-160.5 -61t-95 -172zM1055 492h-643q-33 -158 12 -233t141 -75q82 0 138.5 31t127.5 96l158 -114q-188 -217 -493 -217q-207 0 -296 149.5t-32 402.5q55 254 212 403.5t372 149.5q201 2 285.5 -142t41.5 -347zM870 1499h316 l-365 -299h-209z" />
<glyph unicode="&#xea;" horiz-adv-x="1024" d="M451 664h409q20 111 -20.5 172t-133 61t-160.5 -61t-95 -172zM1055 492h-643q-33 -158 12 -233t141 -75q82 0 138.5 31t127.5 96l158 -114q-188 -217 -493 -217q-207 0 -296 149.5t-32 402.5q55 254 212 403.5t372 149.5q201 2 285.5 -142t41.5 -347zM715 1499h254 l170 -299h-232l-92 168l-168 -168h-229z" />
<glyph unicode="&#xeb;" horiz-adv-x="1024" d="M451 664h409q20 111 -20.5 172t-133 61t-160.5 -61t-95 -172zM1055 492h-643q-33 -158 12 -233t141 -75q82 0 138.5 31t127.5 96l158 -114q-188 -217 -493 -217q-207 0 -296 149.5t-32 402.5q55 254 212 403.5t372 149.5q201 2 285.5 -142t41.5 -347zM518 1458h246 l-53 -237h-246zM907 1458h246l-53 -237h-246z" />
<glyph unicode="&#xec;" horiz-adv-x="569" d="M647 1065l-235 -1065h-254l235 1065h254zM279 1499h315l127 -299h-209z" />
<glyph unicode="&#xed;" horiz-adv-x="569" d="M647 1065l-235 -1065h-254l235 1065h254zM647 1499h316l-365 -299h-209z" />
<glyph unicode="&#xee;" horiz-adv-x="569" d="M647 1065l-235 -1065h-254l235 1065h254zM492 1499h253l170 -299h-231l-92 168l-168 -168h-229z" />
<glyph unicode="&#xef;" horiz-adv-x="569" d="M647 1065l-235 -1065h-254l235 1065h254zM295 1458h246l-54 -237h-245zM684 1458h246l-53 -237h-246z" />
<glyph unicode="&#xf0;" horiz-adv-x="1024" d="M553 184q209 0 278.5 315.5t-139.5 315.5t-278.5 -315.5t139.5 -315.5zM596 1409l235 70q43 -37 93 -99l227 99l45 -131l-201 -88q84 -162 108.5 -365t-18.5 -395q-51 -233 -207.5 -376.5t-369.5 -143.5t-306 144t-42 376q51 233 207.5 376.5t369.5 143.5q43 0 84 -10 q-14 78 -51 151l-231 -100l-45 131l206 90q-34 53 -104 127z" />
<glyph unicode="&#xf1;" horiz-adv-x="1138" d="M385 0h-254l236 1065h233l-25 -115q223 135 357 135q156 0 215 -94t22 -262l-161 -729h-254l153 692q23 104 0.5 146.5t-90.5 42.5q-139 0 -262 -113zM1128 1479h134q-109 -250 -283 -250q-53 0 -149.5 35.5t-135.5 35.5q-66 0 -112 -83h-127q37 104 112.5 176.5 t175.5 72.5q61 0 152.5 -37.5t118.5 -37.5q35 0 66.5 25.5t47.5 62.5z" />
<glyph unicode="&#xf2;" horiz-adv-x="1024" d="M840 532q76 348 -133 348.5t-285 -348.5q-78 -348 131 -348t287 348zM168 532q55 254 212 403.5t372 149.5t306 -149.5t36 -403.5q-57 -254 -214 -403t-372 -149t-306 149t-34 403zM496 1499h315l127 -299h-209z" />
<glyph unicode="&#xf3;" horiz-adv-x="1024" d="M840 532q76 348 -133 348.5t-285 -348.5q-78 -348 131 -348t287 348zM168 532q55 254 212 403.5t372 149.5t306 -149.5t36 -403.5q-57 -254 -214 -403t-372 -149t-306 149t-34 403zM864 1499h316l-365 -299h-209z" />
<glyph unicode="&#xf4;" horiz-adv-x="1024" d="M840 532q76 348 -133 348.5t-285 -348.5q-78 -348 131 -348t287 348zM168 532q55 254 212 403.5t372 149.5t306 -149.5t36 -403.5q-57 -254 -214 -403t-372 -149t-306 149t-34 403zM709 1499h254l170 -299h-232l-92 168l-168 -168h-229z" />
<glyph unicode="&#xf5;" horiz-adv-x="1024" d="M840 532q76 348 -133 348.5t-285 -348.5q-78 -348 131 -348t287 348zM168 532q55 254 212 403.5t372 149.5t306 -149.5t36 -403.5q-57 -254 -214 -403t-372 -149t-306 149t-34 403zM1075 1479h133q-109 -250 -282 -250q-53 0 -149.5 35.5t-135.5 35.5q-66 0 -113 -83 h-127q37 104 113 176.5t176 72.5q61 0 152.5 -37.5t118.5 -37.5q35 0 66.5 25.5t47.5 62.5z" />
<glyph unicode="&#xf6;" horiz-adv-x="1024" d="M840 532q76 348 -133 348.5t-285 -348.5q-78 -348 131 -348t287 348zM168 532q55 254 212 403.5t372 149.5t306 -149.5t36 -403.5q-57 -254 -214 -403t-372 -149t-306 149t-34 403zM512 1458h246l-53 -237h-246zM901 1458h246l-53 -237h-246z" />
<glyph unicode="&#xf7;" horiz-adv-x="1228" d="M1241 422h-1065l49 221h1065zM1001 920q-16 -70 -83.5 -125.5t-141.5 -55.5q-70 0 -111.5 56.5t-25.5 124.5q14 68 80.5 125t136.5 57q74 0 116.5 -56t28.5 -126zM829 143q-16 -70 -83.5 -125t-141.5 -55q-70 0 -111.5 56.5t-25.5 123.5q14 68 80.5 125.5t136.5 57.5 q74 0 116.5 -56.5t28.5 -126.5z" />
<glyph unicode="&#xf8;" horiz-adv-x="1024" d="M860 700l-385 -499q33 -16 78 -17q209 0 287 348q20 94 20 168zM332 14l-170 -219h-187l242 314q-113 150 -49 423q55 254 212 403.5t372 149.5q113 0 188 -41l162 209h186l-235 -305q100 -152 41 -416q-57 -254 -214 -403t-372 -149q-100 -1 -176 34zM399 346l398 512 q-39 23 -90 23q-209 0 -285 -349q-25 -114 -23 -186z" />
<glyph unicode="&#xf9;" horiz-adv-x="1138" d="M989 1065h254l-235 -1065h-234l25 115q-223 -135 -357 -135q-156 0 -215 94t-22 262l162 729h254l-154 -692q-23 -104 -0.5 -146.5t90.5 -42.5q139 0 262 113zM559 1499h315l127 -299h-208z" />
<glyph unicode="&#xfa;" horiz-adv-x="1138" d="M989 1065h254l-235 -1065h-234l25 115q-223 -135 -357 -135q-156 0 -215 94t-22 262l162 729h254l-154 -692q-23 -104 -0.5 -146.5t90.5 -42.5q139 0 262 113zM928 1499h315l-364 -299h-209z" />
<glyph unicode="&#xfb;" horiz-adv-x="1138" d="M989 1065h254l-235 -1065h-234l25 115q-223 -135 -357 -135q-156 0 -215 94t-22 262l162 729h254l-154 -692q-23 -104 -0.5 -146.5t90.5 -42.5q139 0 262 113zM772 1499h254l170 -299h-231l-93 168l-167 -168h-230z" />
<glyph unicode="&#xfc;" horiz-adv-x="1138" d="M989 1065h254l-235 -1065h-234l25 115q-223 -135 -357 -135q-156 0 -215 94t-22 262l162 729h254l-154 -692q-23 -104 -0.5 -146.5t90.5 -42.5q139 0 262 113zM575 1458h246l-53 -237h-246zM965 1458h245l-53 -237h-246z" />
<glyph unicode="&#xfd;" horiz-adv-x="909" d="M-63 -381l45 209q37 -8 104 -8q125 0 188 84q57 86 68 125q4 29 3 41t-4 42.5t-3 43.5l-84 909h256l31 -655h4l327 655h254l-571 -1067q-135 -227 -237.5 -307t-260.5 -80q-63 0 -120 8zM813 1499h315l-364 -299h-209z" />
<glyph unicode="&#xfe;" horiz-adv-x="1138" d="M45 -389l414 1868h243l-112 -512q145 119 297 118q205 0 279.5 -160.5t19.5 -420.5q-47 -211 -197.5 -367.5t-345.5 -156.5q-66 0 -136.5 34.5t-94.5 83.5h-4l-109 -487h-254zM559 786l-113 -512q78 -90 177 -90q115 0 195.5 90.5t119.5 257.5q37 168 -5 258.5t-157 90.5 q-39 0 -72.5 -10.5t-51 -20.5t-49.5 -33z" />
<glyph unicode="&#xff;" horiz-adv-x="909" d="M-63 -381l45 209q37 -8 104 -8q125 0 188 84q57 86 68 125q4 29 3 41t-4 42.5t-3 43.5l-84 909h256l31 -655h4l327 655h254l-571 -1067q-135 -227 -237.5 -307t-260.5 -80q-63 0 -120 8zM461 1458h246l-54 -237h-245zM850 1458h246l-54 -237h-245z" />
<glyph unicode="&#x152;" horiz-adv-x="1933" d="M1061 545l86 389q41 193 -6 260.5t-205 67.5q-78 0 -139.5 -20.5t-125 -74t-113.5 -161t-85 -267.5q-29 -129 -32 -224t14.5 -151.5t56.5 -90t84 -45t106 -11.5q158 0 238 69t121 259zM1862 889l-54 -238h-442l-90 -413h661l-53 -238h-825q-78 0 -180 -10 q-154 -10 -183 -10q-350 0 -470 190t-36 569q84 381 288 570.5t554 189.5q59 0 148 -10q139 -10 172 -10h825l-53 -238h-627l-78 -352h443z" />
<glyph unicode="&#x153;" horiz-adv-x="1593" d="M397 532q-78 -348 123 -348t279 348q76 348 -125 348t-277 -348zM1061 664h389q20 109 -18.5 171t-124.5 62t-152.5 -62t-93.5 -171zM1645 492h-623q-33 -164 5 -236t153 -72q66 0 119 31t122 96l158 -114q-188 -217 -461 -217q-201 0 -282 141q-139 -141 -365 -141 q-207 0 -296 149.5t-32 402.5q55 254 210 403.5t362 149.5q221 0 301 -137q137 137 330 137q199 2 282.5 -142t40.5 -347z" />
<glyph unicode="&#x178;" horiz-adv-x="1138" d="M643 1479l125 -586l383 586h295l-604 -889l-131 -590h-283l131 590l-211 889h295zM655 1819h246l-53 -238h-246zM1044 1819h246l-53 -238h-246z" />
<glyph unicode="&#x2c6;" horiz-adv-x="569" d="M487 1499h254l170 -299h-231l-92 168l-168 -168h-230z" />
<glyph unicode="&#x2dc;" horiz-adv-x="569" d="M854 1479h133q-109 -250 -282 -250q-53 0 -149.5 35.5t-135.5 35.5q-66 0 -113 -83h-127q37 104 113 176.5t176 72.5q61 0 152.5 -37.5t117.5 -37.5q35 0 67 25.5t48 62.5z" />
<glyph unicode="&#x2000;" horiz-adv-x="999" />
<glyph unicode="&#x2001;" horiz-adv-x="2000" />
<glyph unicode="&#x2002;" horiz-adv-x="999" />
<glyph unicode="&#x2003;" horiz-adv-x="2000" />
<glyph unicode="&#x2004;" horiz-adv-x="665" />
<glyph unicode="&#x2005;" horiz-adv-x="499" />
<glyph unicode="&#x2006;" horiz-adv-x="331" />
<glyph unicode="&#x2007;" horiz-adv-x="331" />
<glyph unicode="&#x2008;" horiz-adv-x="249" />
<glyph unicode="&#x2009;" horiz-adv-x="399" />
<glyph unicode="&#x200a;" horiz-adv-x="110" />
<glyph unicode="&#x2010;" horiz-adv-x="681" d="M686 422h-502l49 221h502z" />
<glyph unicode="&#x2011;" horiz-adv-x="681" d="M686 422h-502l49 221h502z" />
<glyph unicode="&#x2012;" horiz-adv-x="681" d="M686 422h-502l49 221h502z" />
<glyph unicode="&#x2013;" horiz-adv-x="1024" d="M1122 446h-1024l39 172h1024z" />
<glyph unicode="&#x2014;" horiz-adv-x="2048" d="M2146 446h-2048l39 172h2048z" />
<glyph unicode="&#x2018;" horiz-adv-x="569" d="M739 1499l-172 -307h123l-63 -291h-283l64 291l198 307h133z" />
<glyph unicode="&#x2019;" horiz-adv-x="569" d="M356 881l174 307h-122l63 291h283l-64 -291l-201 -307h-133z" />
<glyph unicode="&#x201a;" horiz-adv-x="569" d="M94 -307l172 307h-123l64 291h282l-63 -291l-199 -307h-133z" />
<glyph unicode="&#x201c;" horiz-adv-x="909" d="M1139 1499l-172 -307h123l-64 -291h-283l64 291l199 307h133zM682 1499l-172 -307h123l-64 -291h-282l63 291l199 307h133z" />
<glyph unicode="&#x201d;" horiz-adv-x="909" d="M297 881l174 307h-123l64 291h282l-63 -291l-201 -307h-133zM754 881l174 307h-123l63 291h283l-64 -291l-200 -307h-133z" />
<glyph unicode="&#x201e;" horiz-adv-x="909" d="M35 -307l172 307h-123l63 291h283l-63 -291l-199 -307h-133zM492 -307l172 307h-123l63 291h283l-64 -291l-198 -307h-133z" />
<glyph unicode="&#x2022;" horiz-adv-x="1024" d="M305 739q33 154 165 261.5t285.5 107.5t237.5 -107.5t51.5 -261t-166 -262t-287 -108.5t-237.5 108t-49 262z" />
<glyph unicode="&#x2026;" horiz-adv-x="2048" d="M1851 0h-290l63 291h291zM1169 0h-290l63 291h291zM487 0h-290l63 291h291z" />
<glyph unicode="&#x202f;" horiz-adv-x="399" />
<glyph unicode="&#x2039;" horiz-adv-x="681" d="M201 526l319 334h230l-326 -334l180 -321h-229z" />
<glyph unicode="&#x203a;" horiz-adv-x="681" d="M543 860l172 -334l-318 -321h-229l324 321l-179 334h230z" />
<glyph unicode="&#x205f;" horiz-adv-x="499" />
<glyph unicode="&#x20ac;" d="M262 651h103l18 88l12 52h-153l92 192h123q102 250 280 383t410 133q236 0 350 -133l-125 -252q-59 82 -123.5 119t-163.5 37q-225 0 -360 -287h582l-95 -192h-553l-32 -140h514l-92 -192h-437q10 -250 262 -250q184 0 318 96l-57 -256q-150 -70 -316 -69 q-244 0 -355.5 128t-113.5 351h-182z" />
<glyph unicode="&#x2122;" horiz-adv-x="2048" d="M1544 1479l74 -529h4l305 529h305l-186 -844h-205l127 575l-8 4l-332 -579h-158l-77 577h-9l-127 -577h-204l186 844h305zM1071 1479l-39 -172h-248l-147 -672h-205l148 672h-246l39 172h698z" />
<glyph unicode="&#xe000;" horiz-adv-x="1065" d="M0 1065h1065v-1065h-1065v1065z" />
<glyph unicode="&#xfb01;" horiz-adv-x="1138" d="M1243 1065l-235 -1065h-254l235 1065h254zM1288 1262h-254l51 237h254zM831 860h-215l-190 -860h-254l190 860h-147l45 205h146l28 131q37 168 123 235.5t246 67.5h168l-45 -205h-70q-80 0 -117 -26.5t-51 -87.5l-26 -115h215z" />
<glyph unicode="&#xfb02;" horiz-adv-x="1138" d="M1008 0h-254l327 1479h254zM831 860h-215l-190 -860h-254l190 860h-147l45 205h146l28 131q37 168 123 235.5t246 67.5h168l-45 -205h-70q-80 0 -117 -26.5t-51 -87.5l-26 -115h215z" />
<glyph unicode="&#xfb03;" horiz-adv-x="1933" d="M2011 1065l-235 -1065h-254l235 1065h254zM2056 1262h-254l51 237h254zM1513 860h-215l-190 -860h-254l190 860h-147l45 205h146l28 131q37 168 123 235.5t246 67.5h168l-45 -205h-70q-80 0 -117 -26.5t-51 -87.5l-26 -115h215zM831 860h-215l-190 -860h-254l190 860 h-147l45 205h146l28 131q37 168 123 235.5t246 67.5h168l-45 -205h-70q-80 0 -117 -26.5t-51 -87.5l-26 -115h215z" />
<glyph unicode="&#xfb04;" horiz-adv-x="1933" d="M1776 0h-254l327 1479h254zM1513 860h-215l-190 -860h-254l190 860h-147l45 205h146l28 131q37 168 123 235.5t246 67.5h168l-45 -205h-70q-80 0 -117 -26.5t-51 -87.5l-26 -115h215zM831 860h-215l-190 -860h-254l190 860h-147l45 205h146l28 131q37 168 123 235.5 t246 67.5h168l-45 -205h-70q-80 0 -117 -26.5t-51 -87.5l-26 -115h215z" />
</font>
</defs>
</svg>
