<?xml version="1.0" standalone="no"?>
<!DOCTYPE svg PUBLIC "-//W3C//DTD SVG 1.1//EN" "http://www.w3.org/Graphics/SVG/1.1/DTD/svg11.dtd" >
<svg xmlns="http://www.w3.org/2000/svg">
<metadata>
This is a custom SVG webfont generated by Font Squirrel.
Copyright   :  1989 2002 Adobe Systems Incorporated All rights reserved  1981 2002 Heidelberger Druckmaschinen AG All rights reserved
Designer    : Jackson Burke
Foundry URL : httpwwwadobecomtype
</metadata>
<defs>
<font id="webfontKo4Lts4i" horiz-adv-x="909" >
<font-face units-per-em="2048" ascent="1479" descent="-569" />
<missing-glyph horiz-adv-x="454" />
<glyph unicode=" "  horiz-adv-x="454" />
<glyph unicode="&#x09;" horiz-adv-x="454" />
<glyph unicode="&#xa0;" horiz-adv-x="454" />
<glyph unicode="!" horiz-adv-x="681" d="M383 438l199 1041h172l-265 -1041h-106zM297 193h172l-43 -193h-172z" />
<glyph unicode="&#x22;" horiz-adv-x="681" d="M358 954l117 525h127l-117 -525h-127zM618 954l117 525h127l-117 -525h-127z" />
<glyph unicode="#" d="M952 580l-26 -115h-172l-154 -465h-121l154 465h-203l-154 -465h-120l155 465h-172l27 115h184l107 319h-170l26 115h181l155 465h119l-154 -465h203l154 465h121l-156 -465h162l-27 -115h-172l-106 -319h159zM778 899h-203l-106 -319h205z" />
<glyph unicode="$" d="M641 655l-119 -532q88 8 153.5 72.5t88.5 164.5q20 88 -13.5 156.5t-109.5 138.5zM594 905l100 451q-74 -14 -129 -71.5t-73 -135.5q-27 -129 102 -244zM168 406h147q-45 -238 105 -283l133 602l-47 38q-18 15 -45 39.5t-43.5 44t-34.5 45.5t-27.5 51.5t-16.5 55t-6 63.5 t9 71q31 139 136.5 234t242.5 112l43 196h102l-43 -196q141 -20 197.5 -127t26.5 -267h-148q16 94 -7.5 170t-94.5 101l-117 -522l51 -42l49 -41q33 -28 48 -49l39 -51q24 -31 33 -59.5t17.5 -64t7.5 -75.5t-12 -85q-35 -156 -148.5 -254.5t-268.5 -112.5l-54 -238h-102 l53 238q-145 23 -203.5 131.5t-21.5 274.5z" />
<glyph unicode="%" horiz-adv-x="1593" d="M858 319.5q29 131.5 141.5 225.5t247.5 94t207 -93t43 -227q-29 -131 -142.5 -225t-248.5 -94t-206 94t-42 225.5zM981 319q-18 -80 25 -138t127 -58t153.5 58.5t87.5 137.5q16 80 -26.5 138.5t-126.5 58.5t-154 -58.5t-86 -138.5zM350 1159q29 131 142.5 225.5t249 94.5 t206 -94.5t42 -225.5t-141.5 -225t-248 -94t-207 93t-43 226zM473 1159q-16 -80 27 -138t127 -58t153.5 58t85.5 138q18 80 -24.5 138.5t-126.5 58.5t-154 -58.5t-88 -138.5zM1466 1499h119l-1184 -1519h-118z" />
<glyph unicode="&#x26;" horiz-adv-x="1138" d="M332 369q-27 -117 22 -185.5t168 -68.5q59 0 124 35.5t112 87.5q-123 195 -201 448q-80 -68 -144.5 -152.5t-80.5 -164.5zM655 1198q-6 -23 -9 -45.5t-3 -46.5v-39q0 -14 3 -42t4 -35t7.5 -38.5t6.5 -36.5q104 94 162.5 170t78.5 168q12 53 -12.5 94.5t-65.5 41.5 q-131 -1 -172 -191zM1004 717l141 -8q-74 -250 -201 -439q53 -84 146 -159l-111 -111q-86 45 -154 139q-166 -160 -348 -159q-174 0 -254 101t-41 275q12 51 36 102.5t46.5 86.5t65.5 81t63.5 65.5t71.5 63.5t59 52q-55 221 -20 379q35 152 125 232.5t202 80.5 q121 0 181.5 -75.5t36.5 -182.5q-16 -74 -49 -135.5t-90.5 -121.5t-97.5 -93l-122 -98q63 -233 174 -408q68 115 140 332z" />
<glyph unicode="'" horiz-adv-x="454" d="M375 954l117 525h126l-116 -525h-127z" />
<glyph unicode="(" horiz-adv-x="569" d="M451 -164l-111 -61q-86 209 -102.5 409.5t38.5 452.5q55 246 161 449.5t284 412.5l86 -61q-307 -393 -395 -801q-90 -412 39 -801z" />
<glyph unicode=")" horiz-adv-x="569" d="M401 1438l111 61q86 -209 102.5 -409.5t-39.5 -452.5q-55 -246 -160.5 -449.5t-283.5 -412.5l-86 61q307 393 395 801q90 412 -39 801z" />
<glyph unicode="*" d="M850 1479l-113 -324l328 143l10 -135l-330 -65l183 -230l-140 -90l-98 283l-225 -283l-98 90l284 230l-301 65l72 135l262 -143l31 324h135z" />
<glyph unicode="+" horiz-adv-x="1228" d="M680 600l102 465h136l-103 -465h465l-31 -135h-465l-102 -465h-135l102 465h-465l31 135h465z" />
<glyph unicode="," horiz-adv-x="454" d="M184 193h172l-45 -205l-188 -295h-62l162 307h-82z" />
<glyph unicode="-" horiz-adv-x="681" d="M694 465h-504l31 135h504z" />
<glyph unicode="." horiz-adv-x="454" d="M184 193h172l-43 -193h-172z" />
<glyph unicode="/" horiz-adv-x="569" d="M111 -20h-136l811 1519h136z" />
<glyph unicode="0" d="M827 739q53 238 60.5 380.5t-25.5 199.5t-102 57q-106 0 -189.5 -143t-160.5 -494q-53 -238 -60.5 -380t25.5 -199.5t102 -57.5q106 0 189 143.5t161 493.5zM975 739q-88 -397 -215 -578t-309.5 -181t-229.5 179t41 580q88 397 215 578.5t309.5 181.5t229.5 -179.5 t-41 -580.5z" />
<glyph unicode="1" d="M717 0h-500l27 123h180l264 1188l-188 -17l20 90q145 35 258 115h99l-306 -1376h172z" />
<glyph unicode="2" d="M795 0h-697l27 123q76 143 205 294.5t237.5 254t203.5 230.5t122 241q25 113 -12 173t-115 60q-199 0 -285 -311h-135q119 434 442 434q150 0 218.5 -98t27.5 -279q-27 -127 -109.5 -241.5t-179 -200.5t-236.5 -237.5t-249 -319.5h561z" />
<glyph unicode="3" d="M516 1167l-131 17q45 139 140.5 227t230.5 88t211.5 -93t38.5 -267q-33 -150 -107 -241t-162 -107l-2 -5q201 -72 135 -368q-47 -215 -177 -326.5t-279 -111.5q-145 0 -215 105t-35 267h135q-35 -250 158 -250q80 0 156.5 83t109.5 227q39 178 -24.5 245.5t-243.5 67.5 l28 123q172 0 255 58.5t118 223.5q55 246 -117 246q-88 0 -144 -60.5t-79 -148.5z" />
<glyph unicode="4" d="M815 1343l-524 -884h334l194 884h-4zM782 1479h215l-225 -1020h154l-29 -123h-154l-73 -336h-148l74 336h-473l16 70z" />
<glyph unicode="5" d="M188 332l138 12q-23 -242 135 -242q98 0 182 100.5t125 286.5q80 362 -123 363q-61 0 -123.5 -41t-93.5 -102l-111 20l215 750h521l-39 -123h-389l-129 -451q100 70 213 70q135 0 196.5 -125t9.5 -356q-53 -244 -185 -379t-288 -135q-152 0 -215.5 99t-38.5 253z" />
<glyph unicode="6" d="M1038 1212l-137 -8q14 172 -121 172q-213 0 -348 -592q131 113 252 113q137 0 202.5 -109.5t14.5 -345.5q-47 -215 -160.5 -338.5t-259.5 -123.5q-133 0 -198.5 58t-80 208.5t49.5 412.5q188 840 559 840q135 0 185 -74t42 -213zM397 647l-30 -139q-45 -225 -14.5 -315.5 t132.5 -90.5q193 0 269 342q74 330 -111 330q-123 0 -246 -127z" />
<glyph unicode="7" d="M424 1356l27 123h663l-16 -78l-742 -1401h-155l731 1356h-508z" />
<glyph unicode="8" d="M754 367q25 109 -14.5 186.5t-127.5 155.5q-123 -78 -195.5 -156t-97.5 -186q-23 -102 15.5 -183.5t143 -81.5t179 81.5t97.5 183.5zM901 1184q16 78 -18.5 135t-122.5 57q-90 0 -150.5 -57t-77.5 -135q-47 -215 113 -328q209 113 256 328zM901 373q-37 -166 -161 -279.5 t-289.5 -113.5t-240.5 113.5t-38 279.5q55 246 330 413q-86 84 -117 170t-4 211q33 143 149.5 237.5t256 94.5t215 -94t42.5 -238q-27 -123 -95 -210t-193 -171q200 -169 145 -413z" />
<glyph unicode="9" d="M199 266l137 8q-14 -172 121 -172q213 0 348 592q-131 -113 -252 -112q-137 0 -202.5 109.5t-14.5 344.5q47 215 160.5 339t259.5 124q133 0 198.5 -58.5t80 -209t-49.5 -412.5q-188 -840 -559 -839q-135 0 -185 73.5t-42 212.5zM840 831l30 140q45 225 14.5 315 t-132.5 90q-193 0 -269 -342q-74 -330 111 -329q123 -1 246 126z" />
<glyph unicode=":" horiz-adv-x="454" d="M184 193h172l-43 -193h-172zM307 750h172l-43 -193h-172z" />
<glyph unicode=";" horiz-adv-x="454" d="M184 193h172l-45 -205l-188 -295h-62l162 307h-82zM307 750h172l-43 -193h-172z" />
<glyph unicode="&#x3c;" horiz-adv-x="1228" d="M1180 147l-31 -141l-961 475l23 103l1171 475l-32 -141l-949 -386z" />
<glyph unicode="=" horiz-adv-x="1228" d="M233 684l31 135h1065l-31 -135h-1065zM137 246l29 135h1065l-29 -135h-1065z" />
<glyph unicode="&#x3e;" horiz-adv-x="1228" d="M84 6l31 141l950 385l-780 386l32 141l959 -475l-23 -103z" />
<glyph unicode="?" horiz-adv-x="796" d="M479 438h-114l24 103q23 106 83 200.5t119.5 152.5t118 146t81.5 185q16 74 -11.5 112.5t-74.5 38.5q-61 0 -111.5 -53t-73.5 -123l-117 25q37 121 126 197.5t208 76.5q111 0 170.5 -71.5t30.5 -202.5q-20 -94 -67.5 -175t-101.5 -138l-109 -111q-54 -55 -99 -127 t-63 -154zM270 193h172l-43 -193h-172z" />
<glyph unicode="@" horiz-adv-x="1638" d="M807 418q125 0 254 148.5t160 285.5q16 74 -22 133t-101 59q-133 0 -259 -141t-159 -287q-20 -88 15.5 -143t111.5 -55zM1321 1016l74 127h129l-305 -578q-31 -59 -45 -110q-10 -51 34 -52q109 0 239 147.5t165 311.5q51 236 -83 379t-368 143q-266 0 -487 -188 t-281 -453q-61 -276 82 -462.5t410 -186.5q145 0 296.5 65.5t262.5 178.5h129q-137 -166 -328.5 -262t-388.5 -96q-324 0 -497 222t-101 541q70 313 341 534.5t585 221.5q287 0 450.5 -179t102.5 -448q-53 -246 -250 -417.5t-357 -171.5q-55 0 -83.5 34.5t-20.5 100.5l-4 -2 q-150 -133 -279 -133t-191.5 93t-31.5 226q49 221 224.5 397.5t381.5 176.5q160 0 195 -160z" />
<glyph unicode="A" d="M756 1368l-340 -795h332l12 795h-4zM672 1479h221l-2 -1479h-160l8 438h-377l-184 -438h-160z" />
<glyph unicode="B" horiz-adv-x="1024" d="M135 0l328 1479h393q164 0 235 -100q46 -65 46 -159q0 -49 -13 -106q-27 -117 -102.5 -206t-196.5 -122v-4q189 -53 189 -250q0 -55 -15 -122q-88 -410 -565 -410h-299zM453 709l-127 -574h159q295 0 355 275q12 57 12 103q0 75 -33 121q-53 75 -207 75h-159zM592 1343 l-111 -499h90q176 0 268.5 61.5t125.5 208.5q9 44 9 79q0 64 -32 98q-49 52 -190 52h-160z" />
<glyph unicode="C" horiz-adv-x="1024" d="M1130 1032h-159q8 62 8 112q0 220 -154 220q-141 0 -236 -142.5t-171 -482.5q-51 -229 -53 -366q0 -6 -1 -12q0 -128 44 -186q45 -60 139 -60q117 0 196.5 88t126.5 289h160q-57 -246 -190 -379t-322 -133q-137 0 -212 72.5t-93 241.5q-4 38 -4 81q0 150 49 364 q90 403 238.5 581.5t357.5 178.5q166 0 238 -117q49 -80 49 -215q-1 -62 -11 -135z" />
<glyph unicode="D" horiz-adv-x="1024" d="M592 1343l-266 -1208h86q94 0 161.5 23.5t133 88t115.5 185.5t91 307.5t44 307.5q0 10 1 18q0 107 -33 167q-36 65 -94.5 88t-152.5 23h-86zM135 0l328 1479h274q121 0 201 -36t130 -121q49 -83 49 -222q0 -143 -44 -361q-90 -406 -253 -572.5t-410 -166.5h-275z" />
<glyph unicode="E" d="M463 1479h676l-31 -136h-516l-111 -503h381l-31 -135h-380l-125 -570h540l-30 -135h-701z" />
<glyph unicode="F" horiz-adv-x="796" d="M135 0l328 1479h635l-31 -136h-475l-111 -503h357l-31 -135h-356l-156 -705h-160z" />
<glyph unicode="G" horiz-adv-x="1024" d="M1137 1024h-160q11 69 11 124q0 216 -167 216q-137 0 -232 -142.5t-171 -482.5q-52 -246 -52 -387q0 -59 9 -99q31 -138 168 -138q231 0 284 233l45 209h-200l30 135h361l-154 -692h-102l4 111q-127 -131 -297 -131q-135 0 -210 72.5t-92 241.5q-4 36 -4 78q0 151 50 367 q90 403 238.5 581.5t353.5 178.5q129 0 202.5 -70.5t85.5 -176.5q5 -50 5 -105q0 -59 -6 -123z" />
<glyph unicode="H" horiz-adv-x="1024" d="M463 1479h160l-142 -639h434l142 639h160l-328 -1479h-160l156 705h-434l-156 -705h-160z" />
<glyph unicode="I" horiz-adv-x="454" d="M475 1479h160l-328 -1479h-160z" />
<glyph unicode="J" horiz-adv-x="569" d="M602 1479h160l-246 -1110q-49 -223 -149.5 -306t-300.5 -83q-23 0 -80 12l43 139q43 -16 88 -16q98 0 151.5 48t79.5 169z" />
<glyph unicode="K" d="M442 1479h160l-168 -754h4l582 754h172l-401 -516l127 -963h-173l-98 799h-4l-268 -344l-101 -455h-159z" />
<glyph unicode="L" horiz-adv-x="796" d="M463 1479h160l-297 -1344h479l-31 -135h-639z" />
<glyph unicode="M" horiz-adv-x="1251" d="M442 1479h254l11 -1119h4l499 1119h254l-327 -1479h-148l301 1356h-4l-608 -1356h-105l-6 1356h-4l-301 -1356h-147z" />
<glyph unicode="N" horiz-adv-x="1024" d="M442 1479h250l139 -1090h5l241 1090h160l-328 -1479h-172l-174 1286h-4l-285 -1286h-159z" />
<glyph unicode="O" horiz-adv-x="1024" d="M934 739q51 213 51 346q0 21 -1 39q-9 139 -50 189.5t-119 50.5q-121 0 -220 -137t-177 -488q-51 -213 -52 -345q0 -21 2 -40q9 -139 50 -189t119 -50q121 0 220 137t177 487zM1094 739q-170 -760 -586 -759q-299 0 -299 384q0 156 49 375q170 760 586 760 q299 0 299 -385q0 -156 -49 -375z" />
<glyph unicode="P" d="M115 0l327 1479h349q178 0 261 -111q56 -74 55 -181q0 -53 -13 -114q-39 -184 -172.5 -294.5t-311.5 -110.5h-188l-148 -668h-159zM571 1343l-118 -540h168q254 0 313 270q11 51 11 93q0 178 -206 177h-168z" />
<glyph unicode="Q" horiz-adv-x="1024" d="M608 287l29 131q90 -27 145 -121q88 150 152 442q51 213 51 346q0 21 -1 39q-9 139 -50 189.5t-119 50.5q-121 0 -220 -137t-177 -488q-51 -213 -52 -345q0 -21 2 -40q9 -139 50 -189t119 -50q88 0 159 65q-35 68 -88 107zM977 25l-31 -140q-82 4 -129 47t-76 121 q-106 -74 -233 -73q-299 0 -299 384q0 156 49 375q170 760 586 760q299 0 299 -385q0 -156 -49 -375q-90 -399 -244 -585q47 -123 127 -129z" />
<glyph unicode="R" horiz-adv-x="1024" d="M592 1343l-113 -512h139q166 0 249 63.5t112 192.5q10 44 10 81q0 70 -37 112q-55 63 -221 63h-139zM135 0l328 1479h356q182 0 272 -102q62 -71 62 -179q0 -48 -12 -102q-29 -129 -110 -225.5t-210 -137.5l88 -733h-168l-82 700l-210 -8l-154 -692h-160z" />
<glyph unicode="S" d="M1055 1098h-148q6 41 6 75q0 191 -174 191q-92 0 -159.5 -54.5t-85.5 -140.5q-6 -29 -7 -55q0 -36 12 -70q19 -57 62 -98t96 -87l107 -88q53 -42 93 -103.5t55 -133.5q7 -31 7 -69q0 -49 -12 -109q-41 -178 -160.5 -277t-302.5 -99q-172 0 -246 114q-49 75 -50 183 q0 56 14 120h147q-10 -49 -10 -91q0 -70 29 -117q45 -75 161 -74q102 0 175 63.5t100 179.5q6 29 6 56q0 37 -11 72q-19 60 -61.5 103.5t-96.5 90.5l-107 90q-53 43 -93.5 101.5t-56.5 123.5q-8 31 -8 68q0 42 10 92q35 156 153.5 250t278.5 94q162 0 236 -105 q51 -73 51 -187q0 -50 -10 -109z" />
<glyph unicode="T" horiz-adv-x="796" d="M342 1479h766l-31 -136h-303l-297 -1343h-160l297 1343h-303z" />
<glyph unicode="U" horiz-adv-x="1024" d="M463 1479h160l-240 -1086q-15 -64 -15 -113q0 -165 169 -165q215 0 280 278l240 1086h160l-242 -1090q-43 -188 -160 -298.5t-307.5 -110.5t-259.5 110q-43 68 -43 167q0 61 16 132z" />
<glyph unicode="V" d="M360 1479h160v-1172h4l520 1172h160l-676 -1479h-147z" />
<glyph unicode="W" horiz-adv-x="1251" d="M340 1479h147l-79 -1155h4l477 1155h131l-27 -1155h4l420 1155h148l-566 -1479h-135l25 1161h-4l-492 -1161h-135z" />
<glyph unicode="X" d="M369 1479h172l108 -525l326 525h172l-445 -693l179 -786h-172l-134 618l-374 -618h-172l493 786z" />
<glyph unicode="Y" d="M360 1479h172l111 -648l389 648h172l-528 -852l-139 -627h-160l139 627z" />
<glyph unicode="Z" d="M467 1479h680l-25 -111l-821 -1233h549l-31 -135h-729l25 115l805 1228h-484z" />
<glyph unicode="[" horiz-adv-x="569" d="M78 -205l373 1684h376l-18 -82h-242l-336 -1520h242l-18 -82h-377z" />
<glyph unicode="\" horiz-adv-x="569" d="M586 -20h-135l-140 1519h135z" />
<glyph unicode="]" horiz-adv-x="569" d="M774 1479l-373 -1684h-376l18 82h242l336 1520h-242l18 82h377z" />
<glyph unicode="^" horiz-adv-x="1228" d="M260 604l625 875h114l236 -875h-148l-184 701l-495 -701h-148z" />
<glyph unicode="_" horiz-adv-x="1024" d="M967 -256h-1024l22 102h1024z" />
<glyph unicode="`" horiz-adv-x="454" d="M504 1184l-195 282h160l137 -282h-102z" />
<glyph unicode="a" d="M430 754l-131 20q53 137 151.5 224t231.5 87q145 0 208 -79q42 -54 42 -136q0 -40 -10 -88l-134 -594q-21 -93 -20 -144q0 -29 6 -44h-153l2 90q-53 -45 -128 -77.5t-124 -32.5q-125 0 -185 74q-41 52 -41 127q0 34 9 73q20 94 85.5 172t154.5 130t178.5 87t181.5 53 l18 76q7 33 7 61q0 46 -19 78q-31 51 -101 52q-78 0 -137 -62.5t-92 -146.5zM647 213l80 360q-88 -25 -167 -59.5t-158.5 -102t-96.5 -145.5q-7 -32 -7 -58q0 -106 122 -106q96 0 227 111z" />
<glyph unicode="b" d="M305 102l-55 -102h-115q45 88 88 287l264 1192h148l-109 -492q119 98 217 98q88 0 142.5 -52t72.5 -175q5 -35 6 -75q0 -104 -34 -251q-66 -289 -179.5 -420.5t-250.5 -131.5q-136 -1 -195 122zM500 868l-148 -663q25 -45 62 -74t71 -29q98 0 171 98.5t126 331.5 q32 159 32 255q0 51 -9 83q-27 92 -125 93q-63 -1 -180 -95z" />
<glyph unicode="c" horiz-adv-x="796" d="M874 750h-143q4 33 4 60q0 153 -125 153q-98 0 -157.5 -88.5t-114.5 -342.5q-40 -196 -40 -292q0 -33 5 -55q18 -83 117 -83q74 0 125 50.5t98 183.5h143q-55 -164 -154.5 -260t-238.5 -96q-168 0 -217 132q-21 58 -21 145q0 113 35 275q63 287 171 420t276 133 q240 0 240 -273q0 -29 -3 -62z" />
<glyph unicode="d" d="M635 0l16 102h-4q-111 -123 -246 -122q-88 0 -142 52t-73 175q-5 34 -5 73q0 105 36 252q63 289 177 421t251 132q98 0 176 -98l109 492h147l-264 -1192q-39 -174 -39 -270v-17h-139zM647 205l148 663q-72 94 -140 95q-98 0 -168.5 -97.5t-121.5 -333.5 q-31 -157 -32 -251q0 -53 10 -86q28 -92 126 -93q35 0 85 29t93 74z" />
<glyph unicode="e" horiz-adv-x="796" d="M358 631h357q24 107 24 178q0 43 -9 74q-24 80 -120 80q-86 0 -147.5 -76t-104.5 -256zM836 508h-504l-13 -59q-26 -117 -25 -191q0 -49 11 -80q29 -76 135 -76q137 0 224 201l135 -16q-45 -127 -156 -217t-250 -90q-168 0 -217 132q-21 58 -21 145q0 113 35 275 q63 287 171 420t276 133q164 0 217 -139q26 -68 26 -158q0 -93 -28 -210z" />
<glyph unicode="f" horiz-adv-x="569" d="M246 942l26 123h164l49 217q25 111 86.5 164t178.5 53q47 0 112 -12l-24 -115q-33 16 -78 17q-104 0 -129 -113l-47 -211h172l-27 -123h-172l-209 -942h-147l209 942h-164z" />
<glyph unicode="g" d="M670 -86q6 29 -7.5 49.5t-50.5 35.5t-63.5 23.5t-83.5 19.5t-76 15q-156 -61 -176 -145q-3 -16 -3 -30q0 -49 38 -80q49 -40 166 -40q219 0 256 152zM442 707q-16 -73 -15 -126q0 -142 112 -143q158 0 215 269q17 75 16 128q0 140 -111 140q-158 0 -217 -268zM1075 1085 l-28 -135q-16 4 -43 4q-45 0 -101 -41q3 -32 3 -64q0 -70 -15 -140q-43 -190 -143.5 -285.5t-229.5 -95.5q-16 0 -48 4t-48 4q-78 -20 -88 -70q-4 -23 4 -38t35.5 -25t48 -15.5t71 -14.5t74.5 -15q133 -29 197 -83q45 -38 45 -109q0 -29 -8 -64q-25 -106 -138.5 -178 t-277.5 -72q-178 0 -258 61q-61 47 -61 121q0 23 6 47q14 70 68.5 126t133.5 87q-47 16 -70 54q-15 25 -16 56q0 16 5 34q12 55 61 93t108 48q-51 43 -65 134q-6 38 -6 73q0 51 12 98q43 188 149.5 294.5t247.5 106.5q57 0 108.5 -25.5t65.5 -72.5q78 98 201 98z" />
<glyph unicode="h" d="M147 0l328 1479h148l-117 -531q59 55 135 96t127 41q186 0 186 -172q0 -47 -14 -106l-178 -807h-148l174 786q10 44 10 77q0 99 -87 100q-96 0 -232 -132l-184 -831h-148z" />
<glyph unicode="i" horiz-adv-x="454" d="M154 0l235 1065h148l-236 -1065h-147zM442 1307l39 172h148l-39 -172h-148z" />
<glyph unicode="j" horiz-adv-x="454" d="M-68 -340l29 123q33 -8 47 -8q102 0 131 131l256 1159h148l-260 -1171q-29 -129 -93.5 -185.5t-177.5 -56.5q-23 0 -80 8zM449 1307l38 172h148l-39 -172h-147z" />
<glyph unicode="k" horiz-adv-x="796" d="M135 0l328 1479h147l-207 -934h5l397 520h151l-272 -340l86 -725h-152l-63 578h-4l-199 -263l-69 -315h-148z" />
<glyph unicode="l" horiz-adv-x="454" d="M154 0l327 1479h148l-328 -1479h-147z" />
<glyph unicode="m" horiz-adv-x="1366" d="M311 0h-147l235 1065h136l-25 -117q145 137 276 137q63 0 109.5 -37.5t52.5 -97.5q152 135 277 135q102 0 144 -65q26 -41 27 -102q0 -36 -10 -78l-186 -840h-147l182 819q9 39 9 67q0 29 -10 45q-19 32 -79 32q-14 0 -28.5 -2.5t-29 -7.5t-24.5 -9t-24.5 -13 t-22.5 -13.5t-23.5 -16.5t-19.5 -16t-20.5 -17.5t-18.5 -15.5l-188 -852h-148l183 819q9 37 8 64q0 31 -12 48q-22 32 -82 32q-90 0 -205 -111z" />
<glyph unicode="n" d="M147 0l236 1065h139l-24 -117q66 57 143.5 97t126.5 40q186 0 186 -172q0 -47 -14 -106l-178 -807h-148l174 786q10 44 10 77q0 99 -87 100q-96 0 -232 -132l-184 -831h-148z" />
<glyph unicode="o" horiz-adv-x="796" d="M338 532q-40 -196 -40 -292q0 -33 5 -55q18 -83 116.5 -83t159 88.5t115.5 341.5q39 193 39 290q0 35 -5 58q-19 83 -117.5 83t-158 -88.5t-114.5 -342.5zM190 532q63 287 171 420t276 133t217 -132q22 -59 22 -148q0 -112 -34 -273q-63 -289 -172 -420.5t-277 -131.5 t-217 132q-21 58 -21 145q-1 112 35 275z" />
<glyph unicode="p" d="M518 1065l-22 -102h4q106 123 243 122q88 0 142.5 -52t72.5 -175q5 -35 6 -75q0 -104 -34 -251q-66 -289 -179.5 -420.5t-250.5 -131.5q-98 0 -176 98l-95 -426h-147l313 1413h123zM498 860l-148 -663q25 -31 38 -45.5t42 -32t59 -17.5q98 0 169 97.5t124 332.5 q30 155 30 249q0 55 -10 89q-28 92 -126 93q-80 -1 -178 -103z" />
<glyph unicode="q" d="M840 963l22 102h123l-313 -1413h-148l94 426q-119 -98 -217 -98q-88 0 -142 52t-73 175q-5 34 -5 73q0 105 36 252q63 289 177 421t251 132t191 -122h4zM645 197l148 663q-23 45 -61 74t-73 29q-98 0 -170.5 -98.5t-123.5 -332.5q-34 -162 -34 -256q0 -50 9 -81 q27 -92 125 -93q67 1 180 95z" />
<glyph unicode="r" horiz-adv-x="569" d="M135 0l236 1065h147l-29 -129h5q84 92 146 120.5t157 28.5l-31 -139q-90 0 -163 -40t-152 -148l-168 -758h-148z" />
<glyph unicode="s" horiz-adv-x="796" d="M868 831l-131 -36q-6 82 -35.5 125t-111.5 43q-51 0 -93 -36t-55 -91q-3 -15 -3 -30q0 -42 27 -79q36 -49 93 -89t113.5 -84t87.5 -116q18 -43 18 -93q0 -34 -8 -71q-29 -127 -130 -210.5t-226 -83.5q-139 0 -204 71.5t-75 210.5l141 29q20 -188 154 -189 q61 0 118.5 48.5t72.5 113.5q4 20 4 40q0 35 -15 66q-23 48 -65 80l-93 70q-50 39 -91.5 77t-61.5 97q-11 33 -11 71q0 30 7 62q23 106 118 182t214 76q241 0 241 -254z" />
<glyph unicode="t" horiz-adv-x="569" d="M225 942l27 123h143l80 356h148l-80 -356h196l-26 -123h-197l-166 -745q-3 -17 -3 -32q0 -74 87 -75q29 0 94 21l-24 -111q-72 -20 -144 -20q-106 0 -143 54q-21 32 -21 85q0 39 11 90l162 733h-144z" />
<glyph unicode="u" d="M997 1065l-235 -1065h-139l26 117q-68 -57 -145.5 -97t-126.5 -40q-185 0 -185 174q0 46 13 104l178 807h147l-174 -786q-10 -44 -9 -78q0 -99 87 -99q96 0 232 131l184 832h147z" />
<glyph unicode="v" horiz-adv-x="796" d="M272 1065h148l10 -918h4l412 918h147l-497 -1065h-197z" />
<glyph unicode="w" horiz-adv-x="1138" d="M272 1065h140l-21 -782h4l344 782h140l4 -782h4l311 782h139l-456 -1065h-123v827h-4l-369 -827h-123z" />
<glyph unicode="x" horiz-adv-x="681" d="M371 553l-133 512h151l94 -373l238 373h151l-342 -512l148 -553h-152l-100 418l-272 -418h-152z" />
<glyph unicode="y" horiz-adv-x="681" d="M240 1065h151l21 -815h4l344 815h151l-475 -1042q-170 -371 -418 -371h-75l28 123h45q176 0 273 233z" />
<glyph unicode="z" horiz-adv-x="681" d="M289 942l26 123h553l-20 -98l-610 -844h421l-26 -123h-586l25 111l594 831h-377z" />
<glyph unicode="{" horiz-adv-x="569" d="M166 596l16 82q63 0 100 38t58 134l100 453q20 96 84 146t152 50h131l-19 -82h-106q-82 0 -104 -106l-107 -482q-20 -88 -76.5 -135t-122.5 -55v-4q61 -8 97.5 -55.5t15.5 -135.5l-106 -481q-25 -106 57 -106h106l-16 -82h-131q-88 0 -129 50t-21 146l101 453 q20 98 1.5 135t-81.5 37z" />
<glyph unicode="|" horiz-adv-x="790" d="M502 1716h121v-2287h-121v2287z" />
<glyph unicode="}" horiz-adv-x="569" d="M686 678l-16 -82q-63 0 -100.5 -38t-57.5 -134l-100 -453q-20 -96 -84 -146t-152 -50h-131l16 82h107q82 0 106 106l107 481q20 88 76.5 135.5t122.5 55.5v4q-61 8 -97.5 55t-15.5 135l106 482q23 106 -59 106h-106l18 82h131q88 0 129 -50t21 -146l-101 -453 q-20 -98 -1.5 -135t81.5 -37z" />
<glyph unicode="~" horiz-adv-x="1228" d="M1178 678l55 -103q-143 -180 -307 -180q-86 0 -221 68q-152 72 -199 72q-55 0 -105.5 -38t-113.5 -110l-56 102q147 180 308 181q86 0 221 -68q12 -6 41 -19l44 -21q15 -7 37.5 -15t41 -12.5t34.5 -4.5q57 0 107 38t113 110z" />
<glyph unicode="&#xa1;" horiz-adv-x="681" d="M535 627l-199 -1041h-172l264 1041h107zM621 872h-172l43 193h172z" />
<glyph unicode="&#xa2;" d="M365 199l348 778q-18 6 -45 6q-98 0 -157.5 -88t-115.5 -342q-59 -270 -30 -354zM780 913l-350 -784q20 -6 47 -6q74 0 126 50t99 183h144q-57 -164 -156.5 -260t-238.5 -96q-49 0 -74 10l-109 -243h-98l125 278q-137 109 -47 508q63 289 171.5 421t276.5 132q37 0 70 -6 l102 231h99l-119 -266q102 -80 84 -295h-144q12 94 -8 143z" />
<glyph unicode="&#xa3;" d="M61 -20l31 139q193 82 256 360q6 31 27 197h-160l27 123h135q0 20 -1 96t3 129t14 104q41 184 145.5 277.5t233.5 93.5q324 0 252 -426h-135q8 88 4 155.5t-37 107.5t-96 40q-82 0 -134.5 -51t-78.5 -174q-12 -55 -16.5 -113.5t-4.5 -131t-2 -107.5h217l-26 -123h-193 l-8 -80q-6 -59 -12 -92q-35 -152 -109 -266q78 -119 174 -119q152 0 211 270h135q-51 -231 -136 -320t-238 -89q-70 0 -131.5 45t-92.5 110q-129 -137 -254 -155z" />
<glyph unicode="&#xa4;" d="M981 379l-104 -86l-74 96q-119 -92 -283 -92t-241 92l-115 -96l-68 86l117 100q-70 88 -33 260q37 168 148 260l-72 101l104 86l74 -96q119 92 283 92t241 -92l115 96l68 -86l-117 -101q70 -88 33 -260q-37 -168 -148 -260zM324 739q-29 -137 32.5 -224t192.5 -87 t233.5 88t130.5 223q31 135 -31.5 223.5t-193.5 88.5t-232 -87.5t-132 -224.5z" />
<glyph unicode="&#xa5;" d="M993 610l-26 -123h-328l-109 -487h-147l109 487h-328l26 123h328l4 17l-33 172h-258l29 123h209l-102 557h147l121 -680l416 680h147l-344 -557h209l-29 -123h-258l-106 -172l-4 -17h327z" />
<glyph unicode="&#xa6;" horiz-adv-x="790" d="M502 1546h121v-801h-121v801zM502 399h121v-798h-121v798z" />
<glyph unicode="&#xa7;" horiz-adv-x="1024" d="M1100 1335l-117 -78q-23 51 -68 91.5t-96 40.5q-131 0 -157 -121q-10 -49 27.5 -116t96.5 -135l119 -141q59 -73 94 -157t19 -160q-23 -102 -100.5 -162.5t-180.5 -60.5q92 -139 66 -260q-23 -106 -114 -177t-197 -71q-199 0 -291 172l114 78q23 -61 75 -100t122 -39 q51 0 97 39.5t59 91.5q12 57 -26 128.5t-98 143.5l-120 146q-59 75 -94 163t-17 170q18 90 102.5 146.5t180.5 56.5q-96 121 -66 258q18 90 100.5 153.5t196.5 63.5q164 0 273 -164zM446 811q-16 -74 97.5 -231.5t199.5 -157.5q45 0 85 37t51 84q18 86 -92.5 240.5 t-192.5 154.5q-57 0 -96.5 -35t-51.5 -92z" />
<glyph unicode="&#xa8;" horiz-adv-x="454" d="M291 1204l47 209h135l-47 -209h-135zM561 1204l47 209h135l-47 -209h-135z" />
<glyph unicode="&#xa9;" horiz-adv-x="1638" d="M817 -20q-317 0 -494.5 220t-105.5 541q72 319 346.5 538.5t589.5 219.5t491.5 -219t104.5 -539q-72 -322 -344.5 -541.5t-587.5 -219.5zM844 102q262 0 480 183.5t278 455.5q59 268 -78.5 451.5t-397.5 183.5q-264 0 -483 -183t-278 -452q-59 -272 78 -455.5t401 -183.5 zM1225 594h131q-66 -147 -189 -236.5t-262 -89.5q-203 0 -298 135.5t-50 337.5q47 207 196.5 338t354.5 131q150 0 237 -83t76 -230h-129q2 84 -54 137t-155 53q-143 0 -243.5 -96t-132.5 -246q-33 -147 27.5 -250.5t197.5 -103.5q100 0 180 56.5t113 146.5z" />
<glyph unicode="&#xaa;" horiz-adv-x="544" d="M444 1300l-92 13q31 82 94.5 134t149.5 52q96 0 137 -48t23 -134l-80 -356q-20 -92 -8 -113h-107l-4 37q-55 -49 -151 -49q-82 0 -121 46t-21 126q16 74 85 132t139.5 87.5t146.5 46.5l8 37q20 98 -63 98q-93 0 -136 -109zM571 991l41 185q-215 -68 -237 -168 q-10 -45 5 -63.5t60 -18.5q78 -1 131 65z" />
<glyph unicode="&#xab;" horiz-adv-x="1024" d="M608 217h-139l-182 315l323 316h140l-332 -316zM903 217h-139l-182 315l323 316h139l-331 -316z" />
<glyph unicode="&#xac;" horiz-adv-x="1228" d="M1067 246l96 438h-930l31 135h1065l-127 -573h-135z" />
<glyph unicode="&#xad;" horiz-adv-x="681" d="M694 465h-504l31 135h504z" />
<glyph unicode="&#xae;" horiz-adv-x="1638" d="M817 680l-88 -389h-135l199 889h337q307 0 250 -252q-25 -111 -98.5 -170.5t-169.5 -73.5l152 -393h-162l-148 389h-137zM901 1065l-59 -270h147q129 0 184.5 26.5t73.5 112.5q16 68 -22.5 99.5t-143.5 31.5h-180zM817 -20q-317 0 -494.5 220t-105.5 541 q72 319 346.5 538.5t589.5 219.5t491.5 -219t104.5 -539q-72 -322 -344.5 -541.5t-587.5 -219.5zM844 102q262 0 480 183.5t278 455.5q59 268 -78.5 451.5t-397.5 183.5q-264 0 -483 -183t-278 -452q-59 -272 78 -455.5t401 -183.5z" />
<glyph unicode="&#xaf;" horiz-adv-x="454" d="M778 1257h-545l23 99h545z" />
<glyph unicode="&#xb0;" horiz-adv-x="819" d="M870 1196q20 86 -22.5 147.5t-126.5 61.5t-153.5 -61.5t-90.5 -147.5q-18 -86 25 -147.5t127 -61.5t153.5 61.5t87.5 147.5zM371 1196q29 125 137 214t233 89t195 -89t41 -214q-27 -125 -135.5 -214t-233.5 -89t-194.5 89t-42.5 214z" />
<glyph unicode="&#xb1;" horiz-adv-x="1228" d="M707 717l75 348h136l-76 -348h465l-31 -135h-465l-78 -349h-135l78 349h-465l31 135h465zM82 0l31 135h1065l-31 -135h-1065z" />
<glyph unicode="&#xb2;" horiz-adv-x="544" d="M633 598h-455l23 102q57 98 166 210l190 202q82 90 98 166q27 115 -63 115q-113 0 -162 -154h-102q74 260 284 260q98 0 144.5 -57.5t23.5 -161.5q-18 -78 -74.5 -157t-120 -137t-141 -137t-120.5 -144h331z" />
<glyph unicode="&#xb3;" horiz-adv-x="544" d="M461 1303h-111q18 88 80 142t158 54q88 0 137 -55t27 -160q-39 -176 -168 -207l-2 -4q129 -45 90 -223q-29 -133 -106 -198.5t-177 -65.5q-106 0 -150 61.5t-22 163.5h111q-18 -119 88 -119q104 0 141 156q18 90 -19.5 128t-140.5 40l23 106q96 -2 145 31t70 125 q27 115 -64 115q-87 0 -110 -90z" />
<glyph unicode="&#xb4;" horiz-adv-x="454" d="M797 1466l-322 -282h-102l264 282h160z" />
<glyph unicode="&#xb5;" d="M997 1065l-235 -1065h-139l26 117q-68 -57 -145.5 -97t-126.5 -40t-84 12l-76 -340h-147l313 1413h147l-174 -786q-39 -176 78 -177q96 0 232 131l184 832h147z" />
<glyph unicode="&#xb6;" horiz-adv-x="1024" d="M401 -172l193 868q-186 0 -277.5 108.5t-54.5 276.5q45 199 191.5 298.5t326.5 99.5h576l-25 -111h-143l-342 -1540h-135l342 1540h-174l-342 -1540h-136z" />
<glyph unicode="&#xb7;" horiz-adv-x="454" d="M246 532q8 41 45 71t78 30t64.5 -30t12.5 -71q-8 -41 -44.5 -70.5t-77.5 -29.5t-64.5 29.5t-13.5 70.5z" />
<glyph unicode="&#xb8;" horiz-adv-x="454" d="M-74 -410l47 91q72 -29 127 -29q61 0 104.5 23.5t51.5 60.5q10 37 -14.5 62.5t-75.5 25.5q-33 0 -90 -21l-23 29l160 168h78l-121 -119l4 -4q25 12 66 12q70 0 107.5 -38.5t21.5 -108.5q-18 -82 -94 -133t-169 -51q-114 -1 -180 32z" />
<glyph unicode="&#xb9;" horiz-adv-x="544" d="M244 598l20 98h94l150 672l-100 -8l16 74q80 16 151 65h89l-179 -803h107l-21 -98h-327z" />
<glyph unicode="&#xba;" horiz-adv-x="477" d="M592 1167q31 143 20.5 190.5t-65.5 47.5q-53 0 -85 -49t-63 -189q-29 -143 -19.5 -190t62.5 -47q55 0 87 49t63 188zM285 1167q39 174 106.5 253t175.5 79q111 0 143.5 -79t-3.5 -253q-39 -172 -108 -251.5t-179 -79.5q-109 0 -141.5 78.5t6.5 252.5z" />
<glyph unicode="&#xbb;" horiz-adv-x="1024" d="M651 848h140l184 -316l-326 -315h-139l334 315zM356 848h140l184 -316l-326 -315h-139l334 315z" />
<glyph unicode="&#xbc;" horiz-adv-x="1363" d="M1227 727l-260 -424h170l94 424h-4zM1227 887h153l-129 -584h103l-25 -106h-102l-43 -197h-115l43 197h-285l21 92zM309 -20h-127l1235 1519h127zM276 598l21 98h94l150 672l-101 -8l17 74q80 16 151 65h88l-178 -803h107l-21 -98h-328z" />
<glyph unicode="&#xbd;" horiz-adv-x="1363" d="M301 -20h-127l1235 1519h127zM276 598l21 98h94l150 672l-101 -8l17 74q80 16 151 65h88l-178 -803h107l-21 -98h-328zM1311 0h-455l23 102q47 80 124.5 167t142 147.5t120 132.5t69.5 131q23 115 -65 115q-113 0 -162 -154h-102q74 260 286 260q96 0 142.5 -57.5 t23.5 -161.5q-18 -78 -74.5 -157t-120 -137t-140 -137t-119.5 -145h331z" />
<glyph unicode="&#xbe;" horiz-adv-x="1363" d="M1227 727l-260 -424h170l94 424h-4zM1227 887h153l-129 -584h103l-25 -106h-102l-43 -197h-115l43 197h-285l21 92zM301 -20h-127l1235 1519h127zM502 1303h-111q18 88 79.5 142t158.5 54q88 0 137 -55t27 -160q-39 -176 -168 -207l-2 -4q129 -45 90 -223 q-29 -133 -106 -198.5t-177 -65.5q-106 0 -150 61.5t-22 163.5h111q-18 -119 88 -119q104 0 141 156q18 90 -19.5 128t-140.5 40l23 106q96 -2 145 31t70 125q27 115 -64 115q-87 0 -110 -90z" />
<glyph unicode="&#xbf;" horiz-adv-x="796" d="M553 627h115l-23 -103q-20 -88 -62 -163.5t-93 -132.5l-98 -111q-48 -55 -89 -126t-59 -151q-16 -74 10.5 -112.5t73.5 -38.5q63 0 113.5 54t70.5 122l119 -25q-39 -121 -128 -197.5t-208 -76.5q-111 0 -169 71.5t-30 202.5q20 94 67.5 175t101.5 138l108 111 q53 55 98 127t64 154zM762 872h-172l43 193h172z" />
<glyph unicode="&#xc0;" d="M756 1368l-340 -795h332l12 795h-4zM672 1479h221l-2 -1479h-160l8 438h-377l-184 -438h-160zM813 1556l-195 283h160l137 -283h-102z" />
<glyph unicode="&#xc1;" d="M756 1368l-340 -795h332l12 795h-4zM672 1479h221l-2 -1479h-160l8 438h-377l-184 -438h-160zM1106 1839l-322 -283h-102l264 283h160z" />
<glyph unicode="&#xc2;" d="M756 1368l-340 -795h332l12 795h-4zM672 1479h221l-2 -1479h-160l8 438h-377l-184 -438h-160zM522 1556l271 283h139l143 -283h-131l-98 209l-193 -209h-131z" />
<glyph unicode="&#xc3;" d="M756 1368l-340 -795h332l12 795h-4zM672 1479h221l-2 -1479h-160l8 438h-377l-184 -438h-160zM590 1577h-74q16 74 74.5 137.5t126.5 63.5q55 0 137 -45q78 -45 113 -45q29 0 49 16t29.5 35.5t21.5 50.5h74q-57 -201 -205 -201q-47 0 -125 45q-82 45 -117 45 q-75 0 -104 -102z" />
<glyph unicode="&#xc4;" d="M756 1368l-340 -795h332l12 795h-4zM672 1479h221l-2 -1479h-160l8 438h-377l-184 -438h-160zM602 1577l45 209h135l-45 -209h-135zM872 1577l46 209h135l-45 -209h-136z" />
<glyph unicode="&#xc5;" d="M672 1479h221l-2 -1479h-160l8 438h-377l-184 -438h-160zM649 1751q16 80 86 137.5t152 57.5t125 -57.5t26 -137.5q-18 -80 -87.5 -137.5t-151.5 -57.5t-125 57.5t-25 137.5zM756 1368l-340 -795h332l12 795h-4zM735 1751q-10 -43 15.5 -76t68.5 -33t83 33t50 76 q8 43 -17.5 76t-68.5 33t-82 -33t-49 -76z" />
<glyph unicode="&#xc6;" horiz-adv-x="1478" d="M940 1479h768l-31 -136h-487l-111 -503h381l-30 -135h-381l-125 -570h512l-31 -135h-672l96 438h-376l-265 -438h-170zM537 573h323l180 816h-4z" />
<glyph unicode="&#xc7;" horiz-adv-x="1024" d="M1130 1032h-159q43 332 -146 332q-141 0 -236 -142.5t-171 -482.5q-51 -229 -53.5 -366t43 -197.5t139.5 -60.5q117 0 196.5 88t126.5 289h160q-53 -233 -176 -364.5t-297 -145.5l-102 -101l4 -4q25 12 65 12q70 0 108 -38.5t21 -108.5q-18 -82 -94 -133t-168 -51 q-115 0 -180 32l47 91q72 -29 127 -29q61 0 104 23.5t52 60.5q10 37 -14.5 62.5t-75.5 25.5q-33 0 -91 -21l-22 29l141 150q-186 14 -243.5 186t22.5 571q90 403 238.5 581.5t357.5 178.5q166 0 237.5 -117t38.5 -350z" />
<glyph unicode="&#xc8;" d="M463 1479h676l-31 -136h-516l-111 -503h381l-31 -135h-380l-125 -570h540l-30 -135h-701zM825 1556l-194 283h160l137 -283h-103z" />
<glyph unicode="&#xc9;" d="M463 1479h676l-31 -136h-516l-111 -503h381l-31 -135h-380l-125 -570h540l-30 -135h-701zM1118 1839l-321 -283h-103l264 283h160z" />
<glyph unicode="&#xca;" d="M463 1479h676l-31 -136h-516l-111 -503h381l-31 -135h-380l-125 -570h540l-30 -135h-701zM535 1556l270 283h139l143 -283h-131l-98 209l-192 -209h-131z" />
<glyph unicode="&#xcb;" d="M463 1479h676l-31 -136h-516l-111 -503h381l-31 -135h-380l-125 -570h540l-30 -135h-701zM614 1577l45 209h136l-45 -209h-136zM885 1577l45 209h135l-45 -209h-135z" />
<glyph unicode="&#xcc;" horiz-adv-x="454" d="M475 1479h160l-328 -1479h-160zM586 1556l-195 283h160l137 -283h-102z" />
<glyph unicode="&#xcd;" horiz-adv-x="454" d="M475 1479h160l-328 -1479h-160zM879 1839l-322 -283h-102l264 283h160z" />
<glyph unicode="&#xce;" horiz-adv-x="454" d="M475 1479h160l-328 -1479h-160zM295 1556l270 283h140l143 -283h-131l-99 209l-192 -209h-131z" />
<glyph unicode="&#xcf;" horiz-adv-x="454" d="M475 1479h160l-328 -1479h-160zM375 1577l45 209h135l-45 -209h-135zM645 1577l45 209h135l-45 -209h-135z" />
<glyph unicode="&#xd0;" horiz-adv-x="1024" d="M481 840h246l-31 -135h-245l-125 -570h86q94 0 161.5 23.5t133 88t115.5 185.5t91 307.5t44.5 307t-32.5 185t-94.5 88t-152.5 23.5h-86zM211 840h111l141 639h274q121 0 201 -36t130 -121t49 -227.5t-44 -355.5q-90 -406 -253 -572.5t-410 -166.5h-275l156 705h-111z " />
<glyph unicode="&#xd1;" horiz-adv-x="1024" d="M442 1479h250l139 -1090h5l241 1090h160l-328 -1479h-172l-174 1286h-4l-285 -1286h-159zM647 1577h-74q16 74 75 137.5t126 63.5q55 0 137 -45q78 -45 113 -45q29 0 49.5 16t29.5 35.5t21 50.5h74q-57 -201 -205 -201q-47 0 -125 45q-82 45 -116 45q-76 0 -105 -102z " />
<glyph unicode="&#xd2;" horiz-adv-x="1024" d="M934 739q59 246 50 385.5t-50 189.5t-119 50q-121 0 -220 -137t-177 -488q-59 -246 -50 -385t50 -189t119 -50q121 0 220 137t177 487zM1094 739.5q-170 -759.5 -586 -759.5q-420 0 -250 759.5t586 759.5q420 0 250 -759.5zM870 1556l-194 283h160l137 -283h-103z" />
<glyph unicode="&#xd3;" horiz-adv-x="1024" d="M934 739q59 246 50 385.5t-50 189.5t-119 50q-121 0 -220 -137t-177 -488q-59 -246 -50 -385t50 -189t119 -50q121 0 220 137t177 487zM1094 739.5q-170 -759.5 -586 -759.5q-420 0 -250 759.5t586 759.5q420 0 250 -759.5zM1163 1839l-321 -283h-103l265 283h159z" />
<glyph unicode="&#xd4;" horiz-adv-x="1024" d="M934 739q59 246 50 385.5t-50 189.5t-119 50q-121 0 -220 -137t-177 -488q-59 -246 -50 -385t50 -189t119 -50q121 0 220 137t177 487zM1094 739.5q-170 -759.5 -586 -759.5q-420 0 -250 759.5t586 759.5q420 0 250 -759.5zM580 1556l270 283h139l144 -283h-132l-98 209 l-192 -209h-131z" />
<glyph unicode="&#xd5;" horiz-adv-x="1024" d="M934 739q59 246 50 385.5t-50 189.5t-119 50q-121 0 -220 -137t-177 -488q-59 -246 -50 -385t50 -189t119 -50q121 0 220 137t177 487zM1094 739.5q-170 -759.5 -586 -759.5q-420 0 -250 759.5t586 759.5q420 0 250 -759.5zM647 1577h-74q16 74 75 137.5t126 63.5 q55 0 137 -45q78 -45 113 -45q29 0 49.5 16t29.5 35.5t21 50.5h74q-57 -201 -205 -201q-47 0 -125 45q-82 45 -116 45q-76 0 -105 -102z" />
<glyph unicode="&#xd6;" horiz-adv-x="1024" d="M934 739q59 246 50 385.5t-50 189.5t-119 50q-121 0 -220 -137t-177 -488q-59 -246 -50 -385t50 -189t119 -50q121 0 220 137t177 487zM1094 739.5q-170 -759.5 -586 -759.5q-420 0 -250 759.5t586 759.5q420 0 250 -759.5zM659 1577l46 209h135l-45 -209h-136zM930 1577 l45 209h135l-45 -209h-135z" />
<glyph unicode="&#xd7;" horiz-adv-x="1228" d="M1362 967l-531 -435l338 -434l-120 -98l-338 436l-531 -436l-76 98l531 434l-338 435l119 98l338 -436l530 436z" />
<glyph unicode="&#xd8;" horiz-adv-x="1024" d="M981 1155l-586 -950q41 -90 142 -90q121 0 220 137t177 487q57 262 51 416h-4zM373 342l579 942q-45 80 -137 80q-121 0 -220 -137t-177 -488q-55 -252 -49 -397h4zM303 57l-186 -303h-111l244 389q-82 195 8 596q170 760 586 760q127 0 198 -69l134 217h110l-186 -304 q84 -193 -6 -604q-170 -760 -586 -759q-133 -1 -205 77z" />
<glyph unicode="&#xd9;" horiz-adv-x="1024" d="M463 1479h160l-240 -1086q-66 -279 154 -278q215 0 280 278l240 1086h160l-242 -1090q-43 -188 -160 -298.5t-307.5 -110.5t-260 110.5t-26.5 298.5zM870 1556l-194 283h160l137 -283h-103z" />
<glyph unicode="&#xda;" horiz-adv-x="1024" d="M463 1479h160l-240 -1086q-66 -279 154 -278q215 0 280 278l240 1086h160l-242 -1090q-43 -188 -160 -298.5t-307.5 -110.5t-260 110.5t-26.5 298.5zM1163 1839l-321 -283h-103l265 283h159z" />
<glyph unicode="&#xdb;" horiz-adv-x="1024" d="M463 1479h160l-240 -1086q-66 -279 154 -278q215 0 280 278l240 1086h160l-242 -1090q-43 -188 -160 -298.5t-307.5 -110.5t-260 110.5t-26.5 298.5zM580 1556l270 283h139l144 -283h-132l-98 209l-192 -209h-131z" />
<glyph unicode="&#xdc;" horiz-adv-x="1024" d="M463 1479h160l-240 -1086q-66 -279 154 -278q215 0 280 278l240 1086h160l-242 -1090q-43 -188 -160 -298.5t-307.5 -110.5t-260 110.5t-26.5 298.5zM659 1577l46 209h135l-45 -209h-136zM930 1577l45 209h135l-45 -209h-135z" />
<glyph unicode="&#xdd;" d="M360 1479h172l111 -648l389 648h172l-528 -852l-139 -627h-160l139 627zM1106 1839l-322 -283h-102l264 283h160z" />
<glyph unicode="&#xde;" d="M115 0l327 1479h160l-74 -332h189q178 0 261 -110.5t42 -295.5q-39 -184 -172 -294.5t-311 -110.5h-189l-74 -336h-159zM500 1012l-121 -541h168q254 0 313.5 270.5t-192.5 270.5h-168z" />
<glyph unicode="&#xdf;" d="M147 0l265 1188q29 127 129 219t237 92q150 0 216.5 -101.5t29.5 -271.5q-47 -215 -213 -299q49 -29 78 -67.5t45 -124.5t-16 -213q-100 -442 -379 -442q-55 0 -109 24l29 127q41 -29 94 -29q145 0 211 295q43 197 12 277t-153 80l26 123q90 6 144.5 62t83.5 189 q29 131 -6 189.5t-111 58.5q-70 0 -126 -52t-75 -136l-264 -1188h-148z" />
<glyph unicode="&#xe0;" d="M430 754l-131 20q53 137 151.5 224t231.5 87q145 0 207.5 -79.5t32.5 -223.5l-134 -594q-33 -145 -14 -188h-153l2 90q-53 -45 -128 -77.5t-124 -32.5q-125 0 -184.5 74.5t-32.5 199.5q20 94 85.5 172t154.5 130t178.5 87t181.5 53l18 76q18 88 -12.5 139.5t-100.5 51.5 q-78 0 -137 -62.5t-92 -146.5zM647 213l80 360q-88 -25 -167 -59.5t-158.5 -102t-96.5 -145.5q-37 -164 115 -164q96 0 227 111zM731 1184l-194 282h159l138 -282h-103z" />
<glyph unicode="&#xe1;" d="M430 754l-131 20q53 137 151.5 224t231.5 87q145 0 207.5 -79.5t32.5 -223.5l-134 -594q-33 -145 -14 -188h-153l2 90q-53 -45 -128 -77.5t-124 -32.5q-125 0 -184.5 74.5t-32.5 199.5q20 94 85.5 172t154.5 130t178.5 87t181.5 53l18 76q18 88 -12.5 139.5t-100.5 51.5 q-78 0 -137 -62.5t-92 -146.5zM647 213l80 360q-88 -25 -167 -59.5t-158.5 -102t-96.5 -145.5q-37 -164 115 -164q96 0 227 111zM1024 1466l-322 -282h-102l264 282h160z" />
<glyph unicode="&#xe2;" d="M430 754l-131 20q53 137 151.5 224t231.5 87q145 0 207.5 -79.5t32.5 -223.5l-134 -594q-33 -145 -14 -188h-153l2 90q-53 -45 -128 -77.5t-124 -32.5q-125 0 -184.5 74.5t-32.5 199.5q20 94 85.5 172t154.5 130t178.5 87t181.5 53l18 76q18 88 -12.5 139.5t-100.5 51.5 q-78 0 -137 -62.5t-92 -146.5zM647 213l80 360q-88 -25 -167 -59.5t-158.5 -102t-96.5 -145.5q-37 -164 115 -164q96 0 227 111zM440 1184l271 282h139l143 -282h-131l-98 209l-193 -209h-131z" />
<glyph unicode="&#xe3;" d="M430 754l-131 20q53 137 151.5 224t231.5 87q145 0 207.5 -79.5t32.5 -223.5l-134 -594q-33 -145 -14 -188h-153l2 90q-53 -45 -128 -77.5t-124 -32.5q-125 0 -184.5 74.5t-32.5 199.5q20 94 85.5 172t154.5 130t178.5 87t181.5 53l18 76q18 88 -12.5 139.5t-100.5 51.5 q-78 0 -137 -62.5t-92 -146.5zM647 213l80 360q-88 -25 -167 -59.5t-158.5 -102t-96.5 -145.5q-37 -164 115 -164q96 0 227 111zM506 1204h-74q18 74 76.5 137.5t126.5 63.5q57 0 135 -45q82 -45 113 -45q68 0 100 102h74q-23 -86 -73 -143t-130 -57q-47 0 -125 45 q-82 45 -119 45q-71 -1 -104 -103z" />
<glyph unicode="&#xe4;" d="M430 754l-131 20q53 137 151.5 224t231.5 87q145 0 207.5 -79.5t32.5 -223.5l-134 -594q-33 -145 -14 -188h-153l2 90q-53 -45 -128 -77.5t-124 -32.5q-125 0 -184.5 74.5t-32.5 199.5q20 94 85.5 172t154.5 130t178.5 87t181.5 53l18 76q18 88 -12.5 139.5t-100.5 51.5 q-78 0 -137 -62.5t-92 -146.5zM647 213l80 360q-88 -25 -167 -59.5t-158.5 -102t-96.5 -145.5q-37 -164 115 -164q96 0 227 111zM518 1204l47 209h135l-47 -209h-135zM788 1204l48 209h135l-47 -209h-136z" />
<glyph unicode="&#xe5;" d="M430 754l-131 20q53 137 151.5 224t231.5 87q145 0 207.5 -79.5t32.5 -223.5l-134 -594q-33 -145 -14 -188h-153l2 90q-53 -45 -128 -77.5t-124 -32.5q-125 0 -184.5 74.5t-32.5 199.5q20 94 85.5 172t154.5 130t178.5 87t181.5 53l18 76q18 88 -12.5 139.5t-100.5 51.5 q-78 0 -137 -62.5t-92 -146.5zM647 213l80 360q-88 -25 -167 -59.5t-158.5 -102t-96.5 -145.5q-37 -164 115 -164q96 0 227 111zM565 1378q18 80 87 137.5t151 57.5t126 -57.5t25 -137.5q-16 -80 -85.5 -137t-151.5 -57t-125 57t-27 137zM651 1378q-10 -43 15.5 -75.5 t68.5 -32.5t84 32.5t49 75.5q10 43 -15.5 76t-68.5 33t-84 -33t-49 -76z" />
<glyph unicode="&#xe6;" horiz-adv-x="1251" d="M573 213l80 360q-346 -133 -385 -307q-37 -164 115 -164q45 0 99 33t91 78zM813 631h356q39 172 15.5 252t-119.5 80q-78 0 -144.5 -82t-107.5 -250zM1290 508h-504l-12 -59q-41 -178 0 -262.5t121 -84.5q137 0 223 201l135 -16q-45 -127 -152.5 -217t-234.5 -90 q-190 0 -233 145q-168 -145 -299 -145q-125 0 -184.5 74.5t-32.5 199.5q20 92 84.5 171t151.5 132t167 86t160 53l18 76q20 94 -6 142.5t-90 48.5q-59 0 -118.5 -64.5t-90.5 -144.5l-131 20q53 137 151.5 224t229.5 87q147 0 188 -131q123 131 261 131q164 0 217 -139 t-2 -368z" />
<glyph unicode="&#xe7;" horiz-adv-x="796" d="M874 750h-143q27 213 -121 213q-98 0 -157.5 -88.5t-114.5 -342.5q-53 -264 -34.5 -347t116.5 -83q74 0 125 50.5t98 183.5h143q-106 -317 -340 -352l-104 -103l4 -4q25 12 66 12q70 0 107.5 -38.5t21.5 -108.5q-18 -82 -94 -133t-168 -51q-115 0 -181 32l47 91 q72 -29 127 -29q61 0 104.5 23.5t51.5 60.5q10 37 -14.5 62.5t-75.5 25.5q-33 0 -90 -21l-23 29l142 148q-152 10 -195 143t18 409q63 287 171 420t276 133q266 1 237 -335z" />
<glyph unicode="&#xe8;" horiz-adv-x="796" d="M358 631h357q39 172 15.5 252t-120.5 80q-86 0 -147.5 -76t-104.5 -256zM836 508h-504l-13 -59q-43 -195 -14 -271t135 -76q137 0 224 201l135 -16q-45 -127 -156 -217t-250 -90q-168 0 -217 132t14 420q63 287 171 420t276 133q164 0 217 -139t-2 -368zM676 1184 l-195 282h160l137 -282h-102z" />
<glyph unicode="&#xe9;" horiz-adv-x="796" d="M358 631h357q39 172 15.5 252t-120.5 80q-86 0 -147.5 -76t-104.5 -256zM836 508h-504l-13 -59q-43 -195 -14 -271t135 -76q137 0 224 201l135 -16q-45 -127 -156 -217t-250 -90q-168 0 -217 132t14 420q63 287 171 420t276 133q164 0 217 -139t-2 -368zM969 1466 l-322 -282h-102l264 282h160z" />
<glyph unicode="&#xea;" horiz-adv-x="796" d="M358 631h357q39 172 15.5 252t-120.5 80q-86 0 -147.5 -76t-104.5 -256zM836 508h-504l-13 -59q-43 -195 -14 -271t135 -76q137 0 224 201l135 -16q-45 -127 -156 -217t-250 -90q-168 0 -217 132t14 420q63 287 171 420t276 133q164 0 217 -139t-2 -368zM385 1184 l270 282h140l143 -282h-131l-98 209l-193 -209h-131z" />
<glyph unicode="&#xeb;" horiz-adv-x="796" d="M358 631h357q39 172 15.5 252t-120.5 80q-86 0 -147.5 -76t-104.5 -256zM836 508h-504l-13 -59q-43 -195 -14 -271t135 -76q137 0 224 201l135 -16q-45 -127 -156 -217t-250 -90q-168 0 -217 132t14 420q63 287 171 420t276 133q164 0 217 -139t-2 -368zM463 1204l47 209 h135l-47 -209h-135zM733 1204l47 209h135l-47 -209h-135z" />
<glyph unicode="&#xec;" horiz-adv-x="454" d="M154 0l235 1065h148l-236 -1065h-147zM504 1184l-195 282h160l137 -282h-102z" />
<glyph unicode="&#xed;" horiz-adv-x="454" d="M154 0l235 1065h148l-236 -1065h-147zM797 1466l-322 -282h-102l264 282h160z" />
<glyph unicode="&#xee;" horiz-adv-x="454" d="M154 0l235 1065h148l-236 -1065h-147zM213 1184l270 282h140l143 -282h-131l-98 209l-193 -209h-131z" />
<glyph unicode="&#xef;" horiz-adv-x="454" d="M154 0l235 1065h148l-236 -1065h-147zM291 1204l47 209h135l-47 -209h-135zM561 1204l47 209h135l-47 -209h-135z" />
<glyph unicode="&#xf0;" horiz-adv-x="796" d="M338 532q-53 -264 -34.5 -347t116.5 -83t158.5 88.5t115.5 341.5q53 264 34 347.5t-117.5 83.5t-158 -88.5t-114.5 -342.5zM588 1434l145 45q47 -53 72 -109l219 76l27 -94l-205 -72q96 -285 -4 -748q-63 -289 -172 -420.5t-277 -131.5t-217 132t14 420q63 287 171 420 t276 133q72 0 98 -18q-2 82 -33 162l-202 -70l-27 94l189 66q-33 64 -74 115z" />
<glyph unicode="&#xf1;" d="M147 0l236 1065h139l-24 -117q66 57 143.5 97t126.5 40q236 0 172 -278l-178 -807h-148l174 786q39 176 -77 177q-96 0 -232 -132l-184 -831h-148zM506 1204h-74q18 74 76.5 137.5t126.5 63.5q57 0 135 -45q82 -45 113 -45q68 0 100 102h74q-23 -86 -73 -143t-130 -57 q-47 0 -125 45q-82 45 -119 45q-71 -1 -104 -103z" />
<glyph unicode="&#xf2;" horiz-adv-x="796" d="M338 532q-53 -264 -34.5 -347t116.5 -83t158.5 88.5t115.5 341.5q53 264 34 347.5t-117.5 83.5t-158 -88.5t-114.5 -342.5zM190 532q63 287 171 420t276 133t217 -132t-12 -421q-63 -289 -172 -420.5t-277 -131.5t-217 131.5t14 420.5zM676 1184l-195 282h160l137 -282 h-102z" />
<glyph unicode="&#xf3;" horiz-adv-x="796" d="M338 532q-53 -264 -34.5 -347t116.5 -83t158.5 88.5t115.5 341.5q53 264 34 347.5t-117.5 83.5t-158 -88.5t-114.5 -342.5zM190 532q63 287 171 420t276 133t217 -132t-12 -421q-63 -289 -172 -420.5t-277 -131.5t-217 131.5t14 420.5zM969 1466l-322 -282h-102l264 282 h160z" />
<glyph unicode="&#xf4;" horiz-adv-x="796" d="M338 532q-53 -264 -34.5 -347t116.5 -83t158.5 88.5t115.5 341.5q53 264 34 347.5t-117.5 83.5t-158 -88.5t-114.5 -342.5zM190 532q63 287 171 420t276 133t217 -132t-12 -421q-63 -289 -172 -420.5t-277 -131.5t-217 131.5t14 420.5zM385 1184l270 282h140l143 -282 h-131l-98 209l-193 -209h-131z" />
<glyph unicode="&#xf5;" horiz-adv-x="796" d="M338 532q-53 -264 -34.5 -347t116.5 -83t158.5 88.5t115.5 341.5q53 264 34 347.5t-117.5 83.5t-158 -88.5t-114.5 -342.5zM190 532q63 287 171 420t276 133t217 -132t-12 -421q-63 -289 -172 -420.5t-277 -131.5t-217 131.5t14 420.5zM451 1204h-74q18 74 76.5 137.5 t126.5 63.5q57 0 135 -45q82 -45 112 -45q68 0 101 102h73q-23 -86 -72.5 -143t-129.5 -57q-47 0 -125 45q-82 45 -119 45q-71 -1 -104 -103z" />
<glyph unicode="&#xf6;" horiz-adv-x="796" d="M338 532q-53 -264 -34.5 -347t116.5 -83t158.5 88.5t115.5 341.5q53 264 34 347.5t-117.5 83.5t-158 -88.5t-114.5 -342.5zM190 532q63 287 171 420t276 133t217 -132t-12 -421q-63 -289 -172 -420.5t-277 -131.5t-217 131.5t14 420.5zM463 1204l47 209h135l-47 -209 h-135zM733 1204l47 209h135l-47 -209h-135z" />
<glyph unicode="&#xf7;" horiz-adv-x="1228" d="M1249 465h-1065l31 135h1065zM690 950.5q12 55.5 60.5 95t103.5 39.5t87 -39.5t19.5 -95t-61.5 -95.5t-104.5 -40t-86 40t-18.5 95.5zM504 114.5q12 55.5 61 95.5t104.5 40t86 -40t18.5 -95.5t-60 -95t-103.5 -39.5t-87 39.5t-19.5 95z" />
<glyph unicode="&#xf8;" horiz-adv-x="796" d="M297 254l412 670q-29 39 -99 39q-98 0 -157.5 -88.5t-114.5 -342.5q-41 -182 -45 -278h4zM1038 1290l-194 -315q66 -129 -2 -443q-63 -289 -172 -420.5t-277 -131.5q-90 0 -139 36l-164 -262h-102l202 326q-74 131 0 452q63 287 171 420t276 133q98 0 147 -41l152 246 h102zM731 797l-403 -660q25 -35 92 -35q98 0 158.5 88.5t115.5 341.5q39 180 41 265h-4z" />
<glyph unicode="&#xf9;" d="M997 1065l-235 -1065h-139l26 117q-68 -57 -145.5 -97t-126.5 -40q-233 0 -172 278l178 807h147l-174 -786q-39 -176 78 -177q96 0 232 131l184 832h147zM731 1184l-194 282h159l138 -282h-103z" />
<glyph unicode="&#xfa;" d="M997 1065l-235 -1065h-139l26 117q-68 -57 -145.5 -97t-126.5 -40q-233 0 -172 278l178 807h147l-174 -786q-39 -176 78 -177q96 0 232 131l184 832h147zM1024 1466l-322 -282h-102l264 282h160z" />
<glyph unicode="&#xfb;" d="M997 1065l-235 -1065h-139l26 117q-68 -57 -145.5 -97t-126.5 -40q-233 0 -172 278l178 807h147l-174 -786q-39 -176 78 -177q96 0 232 131l184 832h147zM440 1184l271 282h139l143 -282h-131l-98 209l-193 -209h-131z" />
<glyph unicode="&#xfc;" d="M997 1065l-235 -1065h-139l26 117q-68 -57 -145.5 -97t-126.5 -40q-233 0 -172 278l178 807h147l-174 -786q-39 -176 78 -177q96 0 232 131l184 832h147zM518 1204l47 209h135l-47 -209h-135zM788 1204l48 209h135l-47 -209h-136z" />
<glyph unicode="&#xfd;" horiz-adv-x="681" d="M240 1065h151l21 -815h4l344 815h151l-475 -1042q-170 -371 -418 -371h-75l28 123h45q176 0 273 233zM911 1466l-321 -282h-103l265 282h159z" />
<glyph unicode="&#xfe;" d="M627 1479l-109 -492h4q98 98 221 98q88 0 142.5 -52t73 -175t-28.5 -326q-66 -289 -179.5 -420.5t-250.5 -131.5q-98 0 -176 98l-95 -426h-147l405 1827h140zM498 860l-148 -663q25 -31 38 -45.5t42 -32t59 -17.5q98 0 169 97.5t124 332.5q47 246 19.5 338.5t-125.5 92.5 q-80 -1 -178 -103z" />
<glyph unicode="&#xff;" horiz-adv-x="681" d="M240 1065h151l21 -815h4l344 815h151l-475 -1042q-170 -371 -418 -371h-75l28 123h45q176 0 273 233zM406 1204l47 209h135l-47 -209h-135zM676 1204l47 209h135l-47 -209h-135z" />
<glyph unicode="&#x152;" horiz-adv-x="1478" d="M1057 705l-125 -570h504l-31 -135h-791q-147 0 -237 34t-140.5 116.5t-49.5 226t50.5 362.5t111 362.5t149.5 226.5t192.5 117t251.5 34h766l-31 -136h-479l-111 -503h365l-31 -135h-364zM817 344l176 791q27 119 -6 161.5t-137 42.5q-160 0 -268.5 -131t-184.5 -469 q-39 -174 -44 -293.5t24 -185t79 -93.5t128 -28q104 0 156 43t77 162z" />
<glyph unicode="&#x153;" horiz-adv-x="1251" d="M313 532q-53 -264 -34.5 -347t117 -83t160.5 89.5t118 340.5q53 264 31.5 347.5t-120 83.5t-158 -88.5t-114.5 -342.5zM842 631h332q39 172 15 252t-120 80q-143 0 -227 -332zM1294 508h-479l-12 -59q-37 -195 -9.5 -271t105.5 -76q141 0 219 201l135 -16 q-41 -125 -148.5 -216t-234.5 -91q-172 0 -213 165q-102 -166 -288 -165q-168 0 -217.5 132t14.5 420q63 287 170.5 420t275.5 133q195 0 219 -180q117 180 265 180q164 0 217 -139t-2 -368z" />
<glyph unicode="&#x178;" d="M360 1479h172l111 -648l389 648h172l-528 -852l-139 -627h-160l139 627zM602 1577l45 209h135l-45 -209h-135zM872 1577l46 209h135l-45 -209h-136z" />
<glyph unicode="&#x2c6;" horiz-adv-x="454" d="M213 1184l270 282h140l143 -282h-131l-98 209l-193 -209h-131z" />
<glyph unicode="&#x2dc;" horiz-adv-x="454" d="M279 1204h-74q18 74 76.5 137.5t126.5 63.5q57 0 135 -45q82 -45 112 -45q68 0 101 102h73q-23 -86 -72.5 -143t-129.5 -57q-47 0 -125 45q-82 45 -119 45q-71 -1 -104 -103z" />
<glyph unicode="&#x2000;" horiz-adv-x="972" />
<glyph unicode="&#x2001;" horiz-adv-x="1945" />
<glyph unicode="&#x2002;" horiz-adv-x="972" />
<glyph unicode="&#x2003;" horiz-adv-x="1945" />
<glyph unicode="&#x2004;" horiz-adv-x="647" />
<glyph unicode="&#x2005;" horiz-adv-x="485" />
<glyph unicode="&#x2006;" horiz-adv-x="323" />
<glyph unicode="&#x2007;" horiz-adv-x="323" />
<glyph unicode="&#x2008;" horiz-adv-x="241" />
<glyph unicode="&#x2009;" horiz-adv-x="389" />
<glyph unicode="&#x200a;" horiz-adv-x="106" />
<glyph unicode="&#x2010;" horiz-adv-x="681" d="M694 465h-504l31 135h504z" />
<glyph unicode="&#x2011;" horiz-adv-x="681" d="M694 465h-504l31 135h504z" />
<glyph unicode="&#x2012;" horiz-adv-x="681" d="M694 465h-504l31 135h504z" />
<glyph unicode="&#x2013;" horiz-adv-x="1024" d="M1130 483h-1024l23 99h1024z" />
<glyph unicode="&#x2014;" horiz-adv-x="2048" d="M2154 483h-2048l23 99h2048z" />
<glyph unicode="&#x2018;" horiz-adv-x="454" d="M541 999h-172l45 205l188 295h62l-162 -307h82z" />
<glyph unicode="&#x2019;" horiz-adv-x="454" d="M463 1479h172l-45 -205l-189 -295h-61l162 307h-82z" />
<glyph unicode="&#x201a;" horiz-adv-x="454" d="M178 193h172l-45 -205l-188 -295h-62l162 307h-82z" />
<glyph unicode="&#x201c;" horiz-adv-x="796" d="M883 999h-172l45 205l188 295h62l-162 -307h82zM541 999h-172l45 205l188 295h62l-162 -307h82z" />
<glyph unicode="&#x201d;" horiz-adv-x="796" d="M463 1479h172l-45 -205l-189 -295h-61l162 307h-82zM805 1479h172l-45 -205l-189 -295h-61l162 307h-82z" />
<glyph unicode="&#x201e;" horiz-adv-x="796" d="M178 193h172l-45 -205l-188 -295h-62l162 307h-82zM520 193h172l-45 -205l-188 -295h-62l162 307h-82z" />
<glyph unicode="&#x2022;" horiz-adv-x="1024" d="M305 739q33 154 165 261.5t285.5 107.5t237.5 -107.5t51.5 -261t-166 -262t-287 -108.5t-237.5 108t-49 262z" />
<glyph unicode="&#x2026;" horiz-adv-x="2048" d="M299 193h172l-43 -193h-172zM981 193h172l-43 -193h-172zM1663 193h172l-43 -193h-172z" />
<glyph unicode="&#x202f;" horiz-adv-x="389" />
<glyph unicode="&#x2039;" horiz-adv-x="681" d="M588 217h-139l-183 315l324 316h139l-332 -316z" />
<glyph unicode="&#x203a;" horiz-adv-x="681" d="M328 217h-140l334 315l-192 316h139l184 -316z" />
<glyph unicode="&#x205f;" horiz-adv-x="485" />
<glyph unicode="&#x20ac;" d="M1198 1343l-76 -161q-49 90 -100 136t-137 46q-137 0 -220 -118t-139 -314h478l-58 -123h-450l-43 -188h401l-57 -123h-365q-12 -109 -9 -194t52 -137t146 -52q147 0 290 121l-34 -158q-129 -98 -291 -98q-143 0 -222 68.5t-92.5 183t0.5 266.5h-131l58 123h92 q4 23 13 65.5l11 52.5l17 70h-121l57 123h97q37 123 82 218t109.5 178t156.5 127t205 44q188 0 280 -156z" />
<glyph unicode="&#x2122;" horiz-adv-x="2027" d="M1090 1479l-25 -111h-274l-168 -756h-136l168 756h-274l25 111h684zM1333 1343l-162 -731h-135l193 867h215l112 -658l400 658h217l-193 -867h-135l162 731h-4l-451 -731h-90l-123 731h-6z" />
<glyph unicode="&#xe000;" horiz-adv-x="1065" d="M0 1065h1065v-1065h-1065v1065z" />
<glyph unicode="&#xfb01;" d="M213 942l27 123h163l50 217q25 111 86 164t178 53q47 0 112 -12l-24 -115q-33 16 -78 17q-104 0 -129 -113l-47 -211h172l-27 -123h-172l-209 -942h-147l209 942h-164zM629 0l235 1065h148l-236 -1065h-147zM918 1307l38 172h148l-39 -172h-147z" />
<glyph unicode="&#xfb02;" d="M213 942l27 123h163l50 217q25 111 86 164t178 53q47 0 112 -12l-24 -115q-33 16 -78 17q-104 0 -129 -113l-47 -211h172l-27 -123h-172l-209 -942h-147l209 942h-164zM629 0l327 1479h148l-328 -1479h-147z" />
<glyph unicode="&#xfb03;" horiz-adv-x="1593" d="M1293 0l235 1065h148l-236 -1065h-147zM1581 1307l39 172h148l-39 -172h-148zM815 942l26 123h164l49 217q25 111 86.5 164t178.5 53q47 0 112 -12l-24 -115q-33 16 -78 17q-104 0 -129 -113l-47 -211h172l-27 -123h-172l-209 -942h-147l209 942h-164zM246 942l26 123 h164l49 217q25 111 86.5 164t178.5 53q47 0 112 -12l-24 -115q-33 16 -78 17q-104 0 -129 -113l-47 -211h172l-27 -123h-172l-209 -942h-147l209 942h-164z" />
<glyph unicode="&#xfb04;" horiz-adv-x="1593" d="M1293 0l327 1479h148l-328 -1479h-147zM815 942l26 123h164l49 217q25 111 86.5 164t178.5 53q47 0 112 -12l-24 -115q-33 16 -78 17q-104 0 -129 -113l-47 -211h172l-27 -123h-172l-209 -942h-147l209 942h-164zM246 942l26 123h164l49 217q25 111 86.5 164t178.5 53 q47 0 112 -12l-24 -115q-33 16 -78 17q-104 0 -129 -113l-47 -211h172l-27 -123h-172l-209 -942h-147l209 942h-164z" />
</font>
</defs>
</svg>
